<svg viewBox="0 0 330 200" xmlns="http://www.w3.org/2000/svg"><g><g><g><g><g><line x1="53.1875" y1="177" x2="48.1875" y2="177" style="visibility: inherit;" fill="rgb(0, 0, 0)" stroke="rgb(204, 204, 204)" stroke-width="1px"></line><line x1="53.1875" y1="154.875" x2="48.1875" y2="154.875" style="visibility: inherit;" fill="rgb(0, 0, 0)" stroke="rgb(204, 204, 204)" stroke-width="1px"></line><line x1="53.1875" y1="132.74999999999997" x2="48.1875" y2="132.74999999999997" style="visibility: inherit;" fill="rgb(0, 0, 0)" stroke="rgb(204, 204, 204)" stroke-width="1px"></line><line x1="53.1875" y1="110.62499999999996" x2="48.1875" y2="110.62499999999996" style="visibility: inherit;" fill="rgb(0, 0, 0)" stroke="rgb(204, 204, 204)" stroke-width="1px"></line><line x1="53.1875" y1="88.50000000000006" x2="48.1875" y2="88.50000000000006" style="visibility: inherit;" fill="rgb(0, 0, 0)" stroke="rgb(204, 204, 204)" stroke-width="1px"></line><line x1="53.1875" y1="66.37500000000004" x2="48.1875" y2="66.37500000000004" style="visibility: inherit;" fill="rgb(0, 0, 0)" stroke="rgb(204, 204, 204)" stroke-width="1px"></line><line x1="53.1875" y1="44.25000000000003" x2="48.1875" y2="44.25000000000003" style="visibility: inherit;" fill="rgb(0, 0, 0)" stroke="rgb(204, 204, 204)" stroke-width="1px"></line><line x1="53.1875" y1="22.12500000000003" x2="48.1875" y2="22.12500000000003" style="visibility: inherit;" fill="rgb(0, 0, 0)" stroke="rgb(204, 204, 204)" stroke-width="1px"></line><line x1="53.1875" y1="0" x2="48.1875" y2="0" style="visibility: inherit;" fill="rgb(0, 0, 0)" stroke="rgb(204, 204, 204)" stroke-width="1px"></line></g><g transform="translate(43.1875, 0)"><text x="0" y="177" dx="0em" dy="0.3em" style="text-anchor: end; visibility: hidden; font-family: &quot;Helvetica Neue&quot;, sans-serif; font-size: 12px; font-weight: 200;" fill="rgb(50, 49, 63)" stroke="none" stroke-width="1px">0.86</text><text x="0" y="154.875" dx="0em" dy="0.3em" style="text-anchor: end; visibility: inherit; font-family: &quot;Helvetica Neue&quot;, sans-serif; font-size: 12px; font-weight: 200;" fill="rgb(50, 49, 63)" stroke="none" stroke-width="1px">0.88</text><text x="0" y="132.74999999999997" dx="0em" dy="0.3em" style="text-anchor: end; visibility: hidden; font-family: &quot;Helvetica Neue&quot;, sans-serif; font-size: 12px; font-weight: 200;" fill="rgb(50, 49, 63)" stroke="none" stroke-width="1px">0.9</text><text x="0" y="110.62499999999996" dx="0em" dy="0.3em" style="text-anchor: end; visibility: inherit; font-family: &quot;Helvetica Neue&quot;, sans-serif; font-size: 12px; font-weight: 200;" fill="rgb(50, 49, 63)" stroke="none" stroke-width="1px">0.92</text><text x="0" y="88.50000000000006" dx="0em" dy="0.3em" style="text-anchor: end; visibility: hidden; font-family: &quot;Helvetica Neue&quot;, sans-serif; font-size: 12px; font-weight: 200;" fill="rgb(50, 49, 63)" stroke="none" stroke-width="1px">0.94</text><text x="0" y="66.37500000000004" dx="0em" dy="0.3em" style="text-anchor: end; visibility: inherit; font-family: &quot;Helvetica Neue&quot;, sans-serif; font-size: 12px; font-weight: 200;" fill="rgb(50, 49, 63)" stroke="none" stroke-width="1px">0.96</text><text x="0" y="44.25000000000003" dx="0em" dy="0.3em" style="text-anchor: end; visibility: hidden; font-family: &quot;Helvetica Neue&quot;, sans-serif; font-size: 12px; font-weight: 200;" fill="rgb(50, 49, 63)" stroke="none" stroke-width="1px">0.98</text><text x="0" y="22.12500000000003" dx="0em" dy="0.3em" style="text-anchor: end; visibility: inherit; font-family: &quot;Helvetica Neue&quot;, sans-serif; font-size: 12px; font-weight: 200;" fill="rgb(50, 49, 63)" stroke="none" stroke-width="1px">1</text><text x="0" y="0" dx="0em" dy="0.3em" style="text-anchor: end; visibility: hidden; font-family: &quot;Helvetica Neue&quot;, sans-serif; font-size: 12px; font-weight: 200;" fill="rgb(50, 49, 63)" stroke="none" stroke-width="1px">1.02</text></g><line x1="53.1875" y1="0" x2="53.1875" y2="177" fill="rgb(0, 0, 0)" stroke="rgb(204, 204, 204)" stroke-width="1px"></line></g></g><g transform="translate(53, 0)" clip-path="url(#clip_0)"><clipPath id="clip_0"><rect width="276" height="177"></rect></clipPath><g><g><g><line x1="0" y1="0" x2="0" y2="177" fill="rgb(0, 0, 0)" stroke="rgb(60, 60, 60)" stroke-width="1px" opacity="0.25"></line><line x1="18.454166666666666" y1="0" x2="18.454166666666666" y2="177" fill="rgb(0, 0, 0)" stroke="rgb(60, 60, 60)" stroke-width="1px" opacity="0.25"></line><line x1="36.90833333333333" y1="0" x2="36.90833333333333" y2="177" fill="rgb(0, 0, 0)" stroke="rgb(60, 60, 60)" stroke-width="1px" opacity="0.25"></line><line x1="55.362500000000004" y1="0" x2="55.362500000000004" y2="177" fill="rgb(0, 0, 0)" stroke="rgb(60, 60, 60)" stroke-width="1px" opacity="0.25"></line><line x1="73.81666666666666" y1="0" x2="73.81666666666666" y2="177" fill="rgb(0, 0, 0)" stroke="rgb(60, 60, 60)" stroke-width="1px" opacity="0.25"></line><line x1="92.27083333333333" y1="0" x2="92.27083333333333" y2="177" fill="rgb(0, 0, 0)" stroke="rgb(60, 60, 60)" stroke-width="1px" opacity="0.25"></line><line x1="110.72500000000001" y1="0" x2="110.72500000000001" y2="177" fill="rgb(0, 0, 0)" stroke="rgb(60, 60, 60)" stroke-width="1px" opacity="0.25"></line><line x1="129.17916666666667" y1="0" x2="129.17916666666667" y2="177" fill="rgb(0, 0, 0)" stroke="rgb(60, 60, 60)" stroke-width="1px" opacity="0.25"></line><line x1="147.63333333333333" y1="0" x2="147.63333333333333" y2="177" fill="rgb(0, 0, 0)" stroke="rgb(60, 60, 60)" stroke-width="1px" opacity="0.25"></line><line x1="166.0875" y1="0" x2="166.0875" y2="177" fill="rgb(0, 0, 0)" stroke="rgb(60, 60, 60)" stroke-width="1px" opacity="0.25"></line><line x1="184.54166666666666" y1="0" x2="184.54166666666666" y2="177" fill="rgb(0, 0, 0)" stroke="rgb(60, 60, 60)" stroke-width="1px" opacity="0.25"></line><line x1="202.9958333333333" y1="0" x2="202.9958333333333" y2="177" fill="rgb(0, 0, 0)" stroke="rgb(60, 60, 60)" stroke-width="1px" opacity="0.25"></line><line x1="221.45000000000002" y1="0" x2="221.45000000000002" y2="177" fill="rgb(0, 0, 0)" stroke="rgb(60, 60, 60)" stroke-width="1px" opacity="0.25"></line><line x1="239.90416666666667" y1="0" x2="239.90416666666667" y2="177" fill="rgb(0, 0, 0)" stroke="rgb(60, 60, 60)" stroke-width="1px" opacity="0.25"></line><line x1="258.35833333333335" y1="0" x2="258.35833333333335" y2="177" fill="rgb(0, 0, 0)" stroke="rgb(60, 60, 60)" stroke-width="1px" opacity="0.25"></line><line x1="276.8125" y1="0" x2="276.8125" y2="177" fill="rgb(0, 0, 0)" stroke="rgb(60, 60, 60)" stroke-width="1px" opacity="0.25"></line></g><g><line x1="0" y1="177" x2="276.8125" y2="177" fill="rgb(0, 0, 0)" stroke="rgb(60, 60, 60)" stroke-width="1px" opacity="0.25"></line><line x1="0" y1="154.875" x2="276.8125" y2="154.875" fill="rgb(0, 0, 0)" stroke="rgb(60, 60, 60)" stroke-width="1px" opacity="0.25"></line><line x1="0" y1="132.74999999999997" x2="276.8125" y2="132.74999999999997" fill="rgb(0, 0, 0)" stroke="rgb(60, 60, 60)" stroke-width="1px" opacity="0.25"></line><line x1="0" y1="110.62499999999996" x2="276.8125" y2="110.62499999999996" fill="rgb(0, 0, 0)" stroke="rgb(60, 60, 60)" stroke-width="1px" opacity="0.25"></line><line x1="0" y1="88.50000000000006" x2="276.8125" y2="88.50000000000006" fill="rgb(0, 0, 0)" stroke="rgb(60, 60, 60)" stroke-width="1px" opacity="0.25"></line><line x1="0" y1="66.37500000000004" x2="276.8125" y2="66.37500000000004" fill="rgb(0, 0, 0)" stroke="rgb(60, 60, 60)" stroke-width="1px" opacity="0.25"></line><line x1="0" y1="44.25000000000003" x2="276.8125" y2="44.25000000000003" fill="rgb(0, 0, 0)" stroke="rgb(60, 60, 60)" stroke-width="1px" opacity="0.25"></line><line x1="0" y1="22.12500000000003" x2="276.8125" y2="22.12500000000003" fill="rgb(0, 0, 0)" stroke="rgb(60, 60, 60)" stroke-width="1px" opacity="0.25"></line><line x1="0" y1="0" x2="276.8125" y2="0" fill="rgb(0, 0, 0)" stroke="rgb(60, 60, 60)" stroke-width="1px" opacity="0.25"></line></g></g></g><g><g><line x1="0" y1="1128.375" x2="276.8125" y2="1128.375" fill="rgb(0, 0, 0)" stroke="rgb(153, 153, 153)" stroke-width="1.5px"></line></g></g><g><g><line x1="18.454166666666666" y1="0" x2="18.454166666666666" y2="177" fill="rgb(0, 0, 0)" stroke="rgb(153, 153, 153)" stroke-width="1.5px"></line></g></g><g><g><g><g><g><path stroke="rgb(255, 112, 67)" stroke-width="2px" d="M23.99041666666667,211.42534109908448L24.913125,157.6599921876259L25.835833333333333,144.70947535265256L26.758541666666666,121.52507052851652L27.681250000000002,136.41812132841693L28.603958333333335,148.63019523668547L29.526666666666667,202.66015579081883L30.449375,155.55608107287398L31.372083333333332,203.76834674437944L32.29479166666667,157.60108449299167L33.2175,144.80026225198802L34.140208333333334,118.7669991109318L35.062916666666666,105.81717819810325L35.985625,79.90098354967371L36.90833333333333,78.42736562821891L37.831041666666664,137.40452406903094L38.753750000000004,125.4712530523831L39.676458333333336,95.86076658466041L40.59916666666667,115.33891094928529L41.521875,88.56615650122231L42.44458333333333,146.98414779919955L43.36729166666667,121.38484953332775L44.29,125.27529153414342L45.21270833333333,91.9589073042704L46.135416666666664,70.973162313962L47.058125000000004,108.51880608563579L47.98083333333334,134.53698075992162L48.90354166666667,96.88799400066901L49.82625,91.83020836486494L50.74895833333333,82.82338044880214L51.67166666666667,63.69919088330563L52.594375,62.62615514834272L53.51708333333333,61.62110095270526L54.439791666666665,57.13903629405951L55.362500000000004,54.75363814287586L56.28520833333334,50.449417226755955L57.20791666666667,45.07155081564326L58.130624999999995,42.79686496748889L59.053333333333335,58.19730462158921L59.97604166666667,79.9186665886879L60.89875,65.6834745800106L61.82145833333333,59.974829315663825L62.744166666666665,89.31716687716637L63.666875000000005,73.67565168858904L64.58958333333334,74.83738869382685L65.51229166666667,66.69604436127617L66.435,85.90242428527864L67.35770833333333,75.54635035361974L68.28041666666667,86.40179779152905L69.203125,65.99140979062724L70.12583333333333,68.84943266636955L71.04854166666667,71.39812014059399L71.97125,59.55159257385655L72.89395833333333,48.48024372180325L73.81666666666666,41.364793419361035L74.73937500000001,42.96302354307173L75.66208333333333,68.02327616197645L76.58479166666667,64.47788476456866L77.50750000000001,54.967322441993176L78.43020833333333,53.818594606553276L79.35291666666667,49.692582697769794L80.27562499999999,42.274501187265486L81.19833333333334,35.970224393999985L82.12104166666667,35.30708886003271L83.04375,74.11140175351946L83.96645833333334,74.98743049913324L84.88916666666665,65.8846755541187L85.811875,57.38124020795935L86.73458333333333,59.90895500124053L87.65729166666667,48.30979637110562L88.58,42.687199996735615L89.50270833333333,47.00756230761178L90.42541666666666,45.389898865279946L91.34812500000001,39.848187213455105L92.27083333333333,40.75667310077807L93.19354166666666,40.879763748162134L94.11625000000001,41.48365124816496L95.03895833333333,37.825159315793485L95.96166666666667,33.85428443224953L96.88437499999999,32.028800670335954L97.80708333333334,32.65189801694768L98.72979166666667,30.733447617541657L99.6525,35.10214895382569L100.57520833333334,30.512218632549292L101.49791666666665,31.802716921717092L102.420625,33.758618373245014L103.34333333333333,37.197459994894245L104.26604166666667,39.60511769005166L105.18875,53.166201717546556L106.11145833333335,66.89351985865291L107.03416666666666,51.06573227651997L107.956875,43.030870792914044L108.87958333333333,46.292114852457416L109.80229166666666,44.403589223974365L110.72500000000001,41.9301990360936L111.64770833333333,41.83032782619725L112.57041666666667,36.23037748185109L113.49312499999999,33.60975282578056L114.41583333333334,33.44517298453084L115.33854166666667,31.76307775922436L116.26124999999999,32.01307126490977L117.18395833333334,33.702526596836435L118.10666666666667,31.151136319430094L119.029375,29.04638094937289L119.95208333333333,28.040104265424503L120.87479166666667,30.90349752629581L121.7975,37.9049845631408L122.72020833333335,32.52814469906619L123.64291666666666,32.33031913145149L124.565625,30.918613079212776L125.48833333333333,31.178919770134996L126.41104166666666,40.60899523366294L127.33375000000001,38.60350444000247L128.25645833333334,34.07146698284919L129.17916666666667,30.731059205822703L130.101875,29.925297053034654L131.02458333333334,36.35590226136176L131.94729166666667,37.11171487976634L132.87,38.19989178186367L133.79270833333334,33.052817759547935L134.71541666666667,30.17388578512336L135.638125,29.32766444836892L136.56083333333333,28.144730230300667L137.48354166666667,27.556505954342384L138.40625,26.568882057712756L139.32895833333333,26.23288425782104L140.25166666666667,25.76458101855974L141.174375,28.835974105520677L142.09708333333333,30.19266493816596L143.0197916666667,36.39816274463783L143.9425,35.13847497832569L144.86520833333333,36.31036236126289L145.78791666666666,31.632139505380735L146.710625,29.895400036236254L147.63333333333333,29.04241275123391L148.55604166666666,28.348315997908315L149.47875000000002,27.395072820180587L150.40145833333332,31.600176931854406L151.32416666666666,30.541295886895767L152.24687500000002,28.26860382608271L153.16958333333335,27.33711749584498L154.09229166666665,29.394631184762858L155.01500000000001,27.94858977653155L155.93770833333335,30.274667629346737L156.86041666666665,30.738536386934214L157.78312499999998,30.83117725208237L158.70583333333335,34.070336447685094L159.62854166666668,34.38659655244902L160.55124999999998,30.596040267895148L161.47395833333334,27.90308161923315L162.39666666666668,26.337946536237155L163.31937499999998,25.429249550160222L164.24208333333334,26.572034898553113L165.16479166666667,26.498104514571367L166.0875,25.353167976076776L167.01020833333334,27.17120330639807L167.93291666666667,45.21295605366305L168.855625,88.36665150085011L169.7783333333333,74.99928243493386L170.70104166666667,56.722551486106866L171.62375,70.04013184381256L172.54645833333333,55.3472884873911L173.46916666666667,44.93810713174125L174.391875,37.62240407396666L175.31458333333333,32.67931707816905L176.2372916666667,32.6202069766378L177.16,30.883233347359692L178.08270833333333,29.270503973259565L179.00541666666666,35.39585722404354L179.928125,32.278542929396934L180.85083333333333,29.17591176838036L181.77354166666666,32.16565524584266L182.69625000000002,30.144613331831835L183.61895833333332,30.9609684385523L184.54166666666666,30.437979378561096L185.46437500000002,28.1661018361211L186.38708333333332,28.423458709094575L187.30979166666665,30.623733123405884L188.23250000000002,27.710384893574712L189.15520833333335,26.468777017687813L190.07791666666665,29.20785159879634L191.00062499999999,27.60695354350628L191.92333333333335,26.261549903203274L192.84604166666665,26.31518952444145L193.76874999999998,27.012446691959752L194.69145833333334,30.766295987587966L195.61416666666668,27.74865851296292L196.53687499999998,26.008972176869662L197.45958333333334,25.38040924606318L198.38229166666667,26.863451388702373L199.305,28.69518264962761L200.22770833333334,27.478280549249178L201.15041666666667,26.130329993367894L202.073125,28.754958860278606L202.9958333333333,26.845696873784306L203.91854166666667,25.268010775637748L204.84125,26.951308632130747L205.76395833333333,28.417048301837042L206.68666666666667,27.108839515770228L207.609375,25.96943350072192L208.53208333333333,26.015007420989832L209.45479166666667,25.275998165972794L210.3775,24.258671409349404L211.30020833333333,23.773187617338237L212.2229166666667,23.745225894377626L213.145625,25.00120352979073L214.06833333333333,27.051176829788517L214.99104166666666,28.1393685124238L215.91375,28.15421818387034L216.83645833333333,29.145546047040966L217.75916666666666,28.129987387746155L218.68187500000002,26.34242572122193L219.60458333333332,24.787119708856295L220.52729166666666,24.157776738643804L221.45000000000002,24.107643643283836L222.37270833333335,29.999080204525058L223.29541666666665,27.166792788242333L224.21812500000001,25.832029103121187L225.14083333333335,25.497059869099274L226.06354166666665,33.091278676586484L226.98624999999998,29.032239892719502L227.90895833333335,26.53267248787776L228.83166666666668,25.559589149464898L229.75437499999998,28.044529582208213L230.67708333333334,26.48020743438346L231.59979166666668,25.349181742124216L232.52249999999998,24.29245353380003L233.44520833333334,23.520000318522165L234.36791666666667,23.95454627265616L235.290625,23.661608684003852L236.21333333333334,24.285959808791063L237.13604166666667,25.288507800557824L238.05875,24.73881818131133L238.9814583333333,24.219948013278923L239.90416666666667,24.891043972762276L240.826875,24.122227091665223L241.74958333333333,24.329386364862387L242.67229166666667,24.926322919991605L243.595,24.548515309612156L244.51770833333333,24.061878198218466L245.4404166666667,26.916334530015064L246.363125,26.191531217276605L247.28583333333333,32.19131872426243L248.20854166666666,29.528698094908947L249.13125,28.785255508556702L250.05395833333333,27.09344334419646L250.97666666666666,27.422006863451486L251.89937500000002,26.275494157133437L252.82208333333332,29.314698349748852L253.74479166666666,33.292113382407905L254.66750000000002,29.69965386318492L255.59020833333332,27.530674123330897L256.5129166666667,29.311580743529788L257.435625,28.12495198615693L258.35833333333335,26.24825228910629L259.2810416666667,26.550283465748976" style="fill: none;" fill="none"></path></g><g><path stroke="rgb(0, 119, 187)" stroke-width="2px" d="M20.299583333333334,226.85767436027524L21.222291666666663,157.16993382512308L22.145,164.30069757910337L23.067708333333332,194.86930809047468L23.99041666666667,172.74623126041237L24.913125,187.5801419074235L30.449375,193.07318897672678L31.372083333333332,130.41102880078301L32.29479166666667,112.02653746923383L33.2175,137.34759433339696L34.140208333333334,129.59180419814192L35.062916666666666,107.37877413531514L35.985625,117.18283397754085L36.90833333333333,113.966215777472L37.831041666666664,86.24981237107863L38.753750000000004,78.10775297275907L39.676458333333336,103.15112504091141L40.59916666666667,131.59333741300327L41.521875,94.36210234783994L42.44458333333333,91.92164872522835L43.36729166666667,85.24481894931759L44.29,68.35587452846089L45.21270833333333,71.15937841117876L46.135416666666664,94.65049063841693L47.058125000000004,142.5896301181269L47.98083333333334,116.18914965749542L48.90354166666667,175.8296326265785L49.82625,128.88486471774056L50.74895833333333,98.24676760815296L51.67166666666667,75.49873247991702L52.594375,58.17006381308197L53.51708333333333,117.14305642064562L54.439791666666665,88.11263661363782L55.362500000000004,73.12510987173202L56.28520833333334,69.08857223694035L57.20791666666667,66.78143389891538L58.130624999999995,64.36409273000858L59.053333333333335,61.61054929597552L59.97604166666667,51.85263023575068L60.89875,115.37482430019722L61.82145833333333,137.5061232186418L62.744166666666665,115.23217200807755L63.666875000000005,91.27389106463129L64.58958333333334,111.26329856716276L65.51229166666667,94.48323472493313L66.435,78.83128070918191L67.35770833333333,99.41905117090646L68.28041666666667,96.73160190615434L69.203125,72.83073360461509L70.12583333333333,56.07636756144437L71.04854166666667,51.66167975927769L71.97125,41.77808390536998L72.89395833333333,39.04162909078025L73.81666666666666,36.1506335823978L74.73937500000001,59.58416905935141L75.66208333333333,63.80660571417546L76.58479166666667,68.41293605423775L77.50750000000001,56.76118402634145L78.43020833333333,59.209448605502246L79.35291666666667,47.64364401681678L80.27562499999999,46.46025333513893L81.19833333333334,45.03788143223571L82.12104166666667,48.85010007516169L83.04375,75.26575386223556L83.96645833333334,57.75682017622806L84.88916666666665,48.35879028688922L85.811875,44.93463299781706L86.73458333333333,52.99465583628799L87.65729166666667,51.50740827838413L88.58,52.27943123412028L89.50270833333333,61.62154362816747L90.42541666666666,54.249439848775424L91.34812500000001,44.86682318050552L92.27083333333333,40.16903113364509L93.19354166666666,39.04848746680807L94.11625000000001,36.33705299033875L95.03895833333333,41.75929508766029L95.96166666666667,41.57924114561368L96.88437499999999,59.43831846056152L97.80708333333334,46.68376362882711L98.72979166666667,41.70145233012832L99.6525,59.5892933341121L100.57520833333334,47.476558025613656L101.49791666666665,71.62266272064167L102.420625,59.905758582091934L103.34333333333333,75.10662272127675L104.26604166666667,56.874731841994546L105.18875,68.0990837951381L106.11145833333335,62.261444600813334L107.03416666666666,49.68415405296852L107.956875,63.28171206679083L108.87958333333333,55.50211745003541L109.80229166666666,44.34229906499198L110.72500000000001,41.46467204153424L111.64770833333333,46.06473309552592L112.57041666666667,56.31275343153433L113.49312499999999,58.916758199057284L114.41583333333334,50.087811267090586L115.33854166666667,61.33625380737344L116.26124999999999,75.97842388476582L117.18395833333334,58.302582437548935L118.10666666666667,52.86912041589855L119.029375,57.12741097024234L119.95208333333333,53.13968358165707L120.87479166666667,47.38792010382815L121.7975,49.23044111869328L122.72020833333335,60.463974967846724L123.64291666666666,50.435468110590875L124.565625,43.32453770229199L125.48833333333333,36.79605471366031L126.41104166666666,49.07029487653597L127.33375000000001,55.104692184710686L128.25645833333334,46.16320822464468L129.17916666666667,45.4335755695524L130.101875,51.57563377556946L131.02458333333334,46.128769547568254L131.94729166666667,64.02483939577726L132.87,52.109473797378456L133.79270833333334,43.10345054429624L134.71541666666667,39.364208082925416L135.638125,34.713569558007265L136.56083333333333,40.43072428485323L137.48354166666667,35.36023129332412L138.40625,35.19429353063322L139.32895833333333,41.34709598532331L140.25166666666667,37.47652159876225L141.174375,47.41583468166945L142.09708333333333,40.611363754558425L143.0197916666667,46.58918229692463L143.9425,41.44551911326215L144.86520833333333,47.91679724676598L145.78791666666666,42.59319281949513L146.710625,40.391576244675576L147.63333333333333,45.77198035373897L148.55604166666666,39.03424991878629L149.47875000000002,42.02383440561749L150.40145833333332,89.65700923101699L151.32416666666666,90.62117621121769L152.24687500000002,70.26168048869346L153.16958333333335,55.689530113284405L154.09229166666665,44.62354701694514L155.01500000000001,61.97048746309673L155.93770833333335,48.27396117902987L156.86041666666665,43.35440432582624L157.78312499999998,55.85127861234152L158.70583333333335,61.06384639103773L159.62854166666668,54.49211871719105L160.55124999999998,48.57074196395723L161.47395833333334,40.240865893706484L162.39666666666668,36.589967076507094L163.31937499999998,39.00092543633397L164.24208333333334,36.2983877508141L165.16479166666667,36.92528585483416L166.0875,33.64858505660163L167.01020833333334,36.50350268801378L167.93291666666667,34.74591798854061L168.855625,52.08722974820249L169.7783333333333,50.73338414408748L170.70104166666667,50.346453673708325L171.62375,51.81242695276019L172.54645833333333,42.21963695778899L173.46916666666667,61.52068750914607L174.391875,48.50710626159113L175.31458333333333,39.567995141232046L176.2372916666667,46.04756130593066L177.16,64.76272410045291L178.08270833333333,69.44574404889471L179.00541666666666,58.43418303212009L179.928125,56.46925615716272L180.85083333333333,60.55687107711009L181.77354166666666,74.82546480935198L182.69625000000002,59.19753031993737L183.61895833333332,48.575023013739724L184.54166666666666,41.874045943253606L185.46437500000002,39.9162000268897L186.38708333333332,43.58943864406362L187.30979166666665,46.927720193274126L188.23250000000002,63.741232183103094L189.15520833333335,51.081803671434216L190.07791666666665,45.40371858591723L191.00062499999999,43.28650223919672L191.92333333333335,37.56997110670173L192.84604166666665,34.91653405562258L193.76874999999998,34.3068898852778L194.69145833333334,31.847978993422544L195.61416666666668,31.405690624813246L196.53687499999998,30.917501136362603L197.45958333333334,35.97893467229608L198.38229166666667,32.1354923646569L199.305,38.107396340425055L200.22770833333334,53.29387506011439L201.15041666666667,45.31979045965255L202.073125,63.843292580234845L202.9958333333333,48.83047505985971L203.91854166666667,42.72277462942165L204.84125,46.660922315494844L205.76395833333333,46.0799327533106L206.68666666666667,45.46463445667399L207.609375,42.884170841240774L208.53208333333333,51.700234407820545L209.45479166666667,45.531704517983314L210.3775,46.88446918295804L211.30020833333333,48.93512258033138L212.2229166666667,58.669676453472306L213.145625,48.59928740894864L214.06833333333333,57.49926131866013L214.99104166666666,45.68912969769016L215.91375,40.80083133423901L216.83645833333333,38.8772784331118L217.75916666666666,42.96946169487683L218.68187500000002,41.02583442659417L219.60458333333332,38.63754350263619L220.52729166666666,48.23736008595674L221.45000000000002,49.341736272521345L222.37270833333335,41.11533534261429L223.29541666666665,37.938394473390844L224.21812500000001,42.42301135444461L225.14083333333335,57.648895771406956L226.06354166666665,54.95827362007081L226.98624999999998,47.68233645597806L227.90895833333335,47.21268632793257L228.83166666666668,44.83439585437674L229.75437499999998,37.48252914470615L230.67708333333334,33.885026825202516L231.59979166666668,32.94188798232861L232.52249999999998,32.4772848890066L233.44520833333334,49.993456352105085L234.36791666666667,48.4406859328451L235.290625,54.0652294308007L236.21333333333334,44.74954491556056L237.13604166666667,52.64728249132854L238.05875,64.23921940934794L238.9814583333333,59.33784469492517L239.90416666666667,47.54850530938674L240.826875,64.92394495198957L241.74958333333333,53.452426816164476L242.67229166666667,66.07608484336092L243.595,56.19294704859472L244.51770833333333,50.48250483194009L245.4404166666667,73.2709344787539L246.363125,63.54151118774061L247.28583333333333,75.70810297118936L248.20854166666666,59.457032650633536L249.13125,56.9040375530266L250.05395833333333,46.34142155525353L250.97666666666666,45.00371844218529L251.89937500000002,39.96083168176628L252.82208333333332,34.30519011013402L253.74479166666666,69.44217397208627L254.66750000000002,54.85684948823233L255.59020833333332,48.73556431330073L256.5129166666667,46.95673318026556L257.435625,43.65789382051284L258.35833333333335,36.30061092609682L259.2810416666667,47.19643329760149" style="fill: none;" fill="none"></path></g></g></g></g><g opacity="0.2"><g><g><g><path stroke="rgb(255, 112, 67)" stroke-width="2px" d="M20.299583333333334,334.57445526123047L21.222291666666663,135.61791801452637L22.145,351.0831298828125L23.067708333333332,105.58833503723145L23.99041666666667,213.6290016174316L24.913125,80.77468299865723L25.835833333333333,125.8274974822998L26.758541666666666,87.33257675170898L27.681250000000002,158.53256607055664L28.603958333333335,166.83754348754883L29.526666666666667,283.4110679626464L30.449375,85.05377197265625L31.372083333333332,275.99229240417475L32.29479166666667,88.40445899963379L33.2175,125.60805702209473L34.140208333333334,79.72812080383301L35.062916666666666,86.3957347869873L35.985625,41.03063964843753L36.90833333333333,76.21707344055176L37.831041666666664,225.86702728271482L38.753750000000004,107.57173919677734L39.676458333333336,51.445621490478516L40.59916666666667,144.5558967590332L41.521875,48.40721511840823L42.44458333333333,234.61088562011716L43.36729166666667,82.9859676361084L44.29,131.11094856262207L45.21270833333333,41.9843616485596L46.135416666666664,39.49455642700198L47.058125000000004,164.83725929260254L47.98083333333334,173.5642375946045L48.90354166666667,40.41451835632327L49.82625,84.2435302734375L50.74895833333333,69.31313896179199L51.67166666666667,35.01290702819827L52.594375,61.0166015625L53.51708333333333,60.1135196685791L54.439791666666665,50.4159393310547L55.362500000000004,51.175540924072266L56.28520833333334,43.99308586120608L57.20791666666667,37.004751205444364L58.130624999999995,39.38483619689944L59.053333333333335,81.29796409606934L59.97604166666667,112.5007095336914L60.89875,44.330686569213896L61.82145833333333,51.411861419677734L62.744166666666665,133.33067321777344L63.666875000000005,50.213378906250014L64.58958333333334,76.57999420166016L65.51229166666667,54.48402786254883L66.435,114.71199417114258L67.35770833333333,60.01223945617676L68.28041666666667,102.68496894836426L69.203125,35.37582778930667L70.12583333333333,73.13646697998047L71.04854166666667,75.22115135192871L71.97125,41.78180122375491L72.89395833333333,31.873220443725614L73.81666666666666,30.69161796569827L74.73937500000001,45.360368728637724L75.66208333333333,105.61365509033203L76.58479166666667,59.15979766845703L77.50750000000001,40.70147895812991L78.43020833333333,52.095502853393555L79.35291666666667,43.503564834594755L80.27562499999999,31.147378921508817L81.19833333333334,26.51380920410159L82.12104166666667,34.31238555908206L83.04375,132.31787109375L83.96645833333334,76.30147361755371L84.88916666666665,52.23054313659668L85.811875,44.62608718872073L86.73458333333333,63.70052719116211L87.65729166666667,30.91105842590335L88.58,34.25330543518069L89.50270833333333,53.48810577392578L90.42541666666666,42.963403701782255L91.34812500000001,31.535619735717802L92.27083333333333,42.119401931762724L93.19354166666666,41.06439971923831L94.11625000000001,42.389482498168974L95.03895833333333,32.33742141723636L95.96166666666667,27.897972106933622L96.88437499999999,29.29057502746585L97.80708333333334,33.58654403686526L98.72979166666667,27.855772018432646L99.6525,41.65520095825198L100.57520833333334,23.627323150634794L101.49791666666665,33.73846435546878L102.420625,36.69247055053714L103.34333333333333,42.35572242736819L104.26604166666667,43.216604232788114L105.18875,73.50782775878906L106.11145833333335,87.4844970703125L107.03416666666666,27.32405090332034L107.956875,30.97857856750491L108.87958333333333,51.18398094177246L109.80229166666666,41.57080078125003L110.72500000000001,38.22011375427249L111.64770833333333,41.68052101135257L112.57041666666667,27.83045196533206L113.49312499999999,29.678815841674833L114.41583333333334,33.19830322265628L115.33854166666667,29.239934921264677L116.26124999999999,32.38806152343753L117.18395833333334,36.23670959472659L118.10666666666667,27.32405090332034L119.029375,25.889247894287138L119.95208333333333,26.53068923950198L120.87479166666667,35.19858741760257L121.7975,48.40721511840823L122.72020833333335,24.46288490295413L123.64291666666666,32.033580780029325L124.565625,28.80105400085452L125.48833333333333,31.569379806518583L126.41104166666666,54.75410842895508L127.33375000000001,35.59526824951175L128.25645833333334,27.27341079711917L129.17916666666667,25.72044754028323L130.101875,28.716653823852567L131.02458333333334,46.00181007385257L131.94729166666667,38.245433807373075L132.87,39.832157135009794L133.79270833333334,25.332206726074247L134.71541666666667,25.855487823486357L135.638125,28.058332443237333L136.56083333333333,26.37032890319827L137.48354166666667,26.674169540405302L138.40625,25.087446212768583L139.32895833333333,25.728887557983427L140.25166666666667,25.062126159667997L141.174375,33.44306373596194L142.09708333333333,32.22770118713382L143.0197916666667,45.70640945434573L143.9425,33.24894332885745L144.86520833333333,38.068193435668974L145.78791666666666,24.614805221557646L146.710625,27.29029083251956L147.63333333333333,27.762931823730497L148.55604166666666,27.30717086791995L149.47875000000002,25.965208053588896L150.40145833333332,37.90783309936526L151.32416666666666,28.952974319458036L152.24687500000002,24.85956573486331L153.16958333333335,25.93988800048831L154.09229166666665,32.48090171813968L155.01500000000001,25.7795276641846L155.93770833333335,33.763784408569364L156.86041666666665,31.434339523315458L157.78312499999998,30.970138549804716L158.70583333333335,38.929075241088896L159.62854166666668,34.860986709594755L160.55124999999998,24.91020584106448L161.47395833333334,23.863643646240263L162.39666666666668,23.990243911743192L163.31937499999998,24.06620407104495L164.24208333333334,28.286212921142607L165.16479166666667,26.38720893859866L166.0875,23.63576316833499L167.01020833333334,29.89825630187991L167.93291666666667,72.27558517456055L168.855625,153.09719467163086L169.7783333333333,54.94822883605957L170.70104166666667,29.30745506286624L171.62375,90.0165023803711L172.54645833333333,33.30802345275882L173.46916666666667,29.32433509826663L174.391875,26.648849487304716L175.31458333333333,25.264686584472685L176.2372916666667,32.53154182434085L177.16,28.27777290344241L178.08270833333333,26.851409912109403L179.00541666666666,44.583887100219755L179.928125,27.602571487426786L180.85083333333333,24.521965026855497L181.77354166666666,36.65027046203616L182.69625000000002,27.113050460815458L183.61895833333332,32.18550109863284L184.54166666666666,29.653495788574247L185.46437500000002,24.758285522460966L186.38708333333332,28.809494018554716L187.30979166666665,33.924144744873075L188.23250000000002,23.340362548828153L189.15520833333335,24.60636520385745L190.07791666666665,33.31646347045901L191.00062499999999,25.205606460571317L191.92333333333335,24.243444442749052L192.84604166666665,26.395648956298857L193.76874999999998,28.058332443237333L194.69145833333334,36.3970699310303L195.61416666666668,23.22220230102542L196.53687499999998,23.39944267272952L197.45958333333334,24.437564849853544L198.38229166666667,29.08801460266116L199.305,31.442779541015653L200.22770833333334,25.65292739868167L201.15041666666667,24.108404159545927L202.073125,32.69190216064456L202.9958333333333,23.981803894042997L203.91854166666667,22.901481628417997L204.84125,29.476255416870146L205.76395833333333,30.615657806396513L206.68666666666667,25.14652633666995L207.609375,24.260324478149442L208.53208333333333,26.08336830139163L209.45479166666667,24.167484283447294L210.3775,22.73268127441409L211.30020833333333,23.044961929321317L212.2229166666667,23.703283309936552L213.145625,26.885169982910185L214.06833333333333,30.126136779785185L214.99104166666666,29.77165603637698L215.91375,28.176492691040067L216.83645833333333,30.632537841796903L217.75916666666666,26.60664939880374L218.68187500000002,23.661083221435575L219.60458333333332,22.454160690307646L220.52729166666666,23.213762283325224L221.45000000000002,24.03244400024417L222.37270833333335,38.83623504638675L223.29541666666665,22.918361663818388L224.21812500000001,23.82988357543948L225.14083333333335,24.994606018066435L226.06354166666665,44.48260688781741L226.98624999999998,22.943681716918974L227.90895833333335,22.783321380615263L228.83166666666668,24.09996414184573L229.75437499999998,31.77194023132327L230.67708333333334,24.133724212646513L231.59979166666668,23.65264320373538L232.52249999999998,22.707361221313505L233.44520833333334,22.361320495605497L234.36791666666667,24.60636520385745L235.290625,23.22220230102542L236.21333333333334,25.222486495971708L237.13604166666667,26.792329788208036L238.05875,23.914283752441435L238.9814583333333,23.441642761230497L239.90416666666667,25.897687911987333L240.826875,22.96900177001956L241.74958333333333,24.64012527465823L242.67229166666667,25.821727752685575L243.595,23.981803894042997L244.51770833333333,23.331922531127958L245.4404166666667,31.19801902770999L246.363125,25.104326248168974L247.28583333333333,41.19099998474124L248.20854166666666,25.534767150878935L249.13125,27.67009162902835L250.05395833333333,24.55572509765628L250.97666666666666,27.914852142334013L251.89937500000002,24.55572509765628L252.82208333333332,33.8735046386719L253.74479166666666,39.25823593139651L254.66750000000002,24.310964584350614L255.59020833333332,24.277204513549833L256.5129166666667,31.982940673828153L257.435625,26.345008850097685L258.35833333333335,23.433202743530302L259.2810416666667,27.00333023071292" style="fill: none;" fill="none"></path></g><g><path stroke="rgb(0, 119, 187)" stroke-width="2px" d="M19.376875000000002,345.23419761657715L20.299583333333334,155.83176040649414L21.222291666666663,90.26970291137695L22.145,172.68647575378418L23.067708333333332,234.77968597412107L23.99041666666667,142.14205169677734L24.913125,208.7928714752197L26.758541666666666,237.91937255859372L27.681250000000002,132.93399238586426L28.603958333333335,345.5380382537842L29.526666666666667,307.60859870910645L30.449375,75.98919296264648L31.372083333333332,36.54055023193362L32.29479166666667,84.47141075134277L33.2175,175.3113212585449L34.140208333333334,117.96140098571777L35.062916666666666,74.06486892700195L35.985625,131.88743019104004L36.90833333333333,109.14158248901367L37.831041666666664,44.6767272949219L38.753750000000004,65.89493179321289L39.676458333333336,140.71568870544434L40.59916666666667,174.2563190460205L41.521875,38.515514373779325L42.44458333333333,88.26097869873047L43.36729166666667,75.2295913696289L44.29,43.02248382568362L45.21270833333333,75.36463165283203L46.135416666666664,129.88714599609375L47.058125000000004,214.49832344055173L47.98083333333334,76.58843421936035L48.90354166666667,265.29034996032715L49.82625,58.467716217041016L50.74895833333333,52.28962326049805L51.67166666666667,41.376680374145536L52.594375,32.177061080932646L53.51708333333333,205.60254478454587L54.439791666666665,44.567007064819364L55.362500000000004,50.64381980895996L56.28520833333334,63.03376579284668L57.20791666666667,63.32072639465332L58.130624999999995,60.738080978393555L59.053333333333335,57.480234146118164L59.97604166666667,37.21575164794925L60.89875,210.65811538696286L61.82145833333333,170.70307159423828L62.744166666666665,81.82124519348145L63.666875000000005,55.336469650268555L64.58958333333334,141.24740982055664L65.51229166666667,69.31313896179199L66.435,55.353349685668945L67.35770833333333,130.30070686340332L68.28041666666667,92.7004280090332L69.203125,36.97943115234378L70.12583333333333,30.94481849670413L71.04854166666667,45.0396480560303L71.97125,26.952690124511747L72.89395833333333,34.93694686889651L73.81666666666666,31.814140319824247L74.73937500000001,94.73447227478027L75.66208333333333,70.14026069641113L76.58479166666667,75.32243156433105L77.50750000000001,39.2835559844971L78.43020833333333,62.881845474243164L79.35291666666667,30.29493713378909L80.27562499999999,44.6851673126221L81.19833333333334,42.90432357788089L82.12104166666667,54.56842803955078L83.04375,114.88923454284668L83.96645833333334,31.493419647216825L84.88916666666665,34.26174545288089L85.811875,39.79839706420901L86.73458333333333,65.08469009399414L87.65729166666667,49.276536941528335L88.58,53.43746566772461L89.50270833333333,75.63471221923828L90.42541666666666,43.19128417968753L91.34812500000001,30.792898178100614L92.27083333333333,33.12234306335452L93.19354166666666,37.36767196655276L94.11625000000001,32.269901275634794L95.03895833333333,49.89265823364259L95.96166666666667,41.309160232543974L96.88437499999999,86.2269344329834L97.80708333333334,27.551931381225614L98.72979166666667,34.22798538208011L99.6525,86.42105484008789L100.57520833333334,29.30745506286624L101.49791666666665,107.8418197631836L102.420625,42.33040237426761L103.34333333333333,97.90791893005371L104.26604166666667,29.526895523071317L105.18875,84.93561172485352L106.11145833333335,53.50498580932617L107.03416666666666,30.8182182312012L107.956875,83.67804908752441L108.87958333333333,43.83272552490237L109.80229166666666,27.602571487426786L110.72500000000001,37.148231506347685L111.64770833333333,52.96482467651367L112.57041666666667,71.68478393554688L113.49312499999999,62.8227653503418L114.41583333333334,36.84439086914065L115.33854166666667,78.20891761779785L116.26124999999999,97.94167900085449L117.18395833333334,31.78882026672366L118.10666666666667,44.71892738342288L119.029375,63.51484680175781L119.95208333333333,47.158092498779325L120.87479166666667,38.76027488708499L121.7975,51.99422264099121L122.72020833333335,77.31427574157715L123.64291666666666,35.39270782470706L124.565625,32.65814208984378L125.48833333333333,27.00333023071292L126.41104166666666,67.48165512084961L127.33375000000001,64.15628814697266L128.25645833333334,32.75098228454593L129.17916666666667,44.33912658691409L130.101875,60.78872108459473L131.02458333333334,37.958473205566435L131.94729166666667,90.86894416809082L132.87,34.2364253997803L133.79270833333334,29.59441566467288L134.71541666666667,33.75534439086917L135.638125,27.73761177062991L136.56083333333333,49.006456375122085L137.48354166666667,27.754491806030302L138.40625,34.94538688659671L139.32895833333333,50.5762996673584L140.25166666666667,31.670660018920927L141.174375,62.32480430603027L142.09708333333333,30.40465736389163L143.0197916666667,55.55591011047363L143.9425,33.73002433776858L144.86520833333333,57.623714447021484L145.78791666666666,34.607786178588896L146.710625,37.08915138244632L147.63333333333333,53.842586517333984L148.55604166666666,28.92765426635745L149.47875000000002,46.508211135864286L150.40145833333332,161.1067714691162L151.32416666666666,92.06742668151855L152.24687500000002,39.722436904907255L153.16958333333335,33.83130455017093L154.09229166666665,28.024572372436552L155.01500000000001,87.99089813232422L155.93770833333335,27.729171752929716L156.86041666666665,35.975069046020536L157.78312499999998,74.59659004211426L158.70583333333335,68.88269805908203L159.62854166666668,44.63452720642093L160.55124999999998,39.688676834106474L161.47395833333334,27.746051788330107L162.39666666666668,31.113618850708036L163.31937499999998,42.61736297607425L164.24208333333334,32.24458122253421L165.16479166666667,37.865633010864286L166.0875,28.733533859252958L167.01020833333334,40.785879135131864L167.93291666666667,32.10954093933108L168.855625,78.09919738769531L169.7783333333333,48.70261573791507L170.70104166666667,49.76605796813966L171.62375,54.01138687133789L172.54645833333333,27.83045196533206L173.46916666666667,90.47226333618164L174.391875,28.986734390258817L175.31458333333333,26.159328460693388L176.2372916666667,55.766910552978516L177.16,92.83546829223633L178.08270833333333,76.47027397155762L179.00541666666666,41.916841506958036L179.928125,53.52186584472656L180.85083333333333,66.68829345703125L181.77354166666666,96.22835540771484L182.69625000000002,35.75562858581546L183.61895833333332,32.64126205444339L184.54166666666666,31.822580337524442L185.46437500000002,36.97943115234378L186.38708333333332,49.09929656982423L187.30979166666665,51.935142517089844L188.23250000000002,88.96150016784668L189.15520833333335,32.09266090393069L190.07791666666665,36.88659095764163L191.00062499999999,40.11067771911624L191.92333333333335,28.995174407959013L192.84604166666665,30.936378479003935L193.76874999999998,33.39242362976077L194.69145833333334,28.159612655639677L195.61416666666668,30.742258071899442L196.53687499999998,30.185216903686552L197.45958333333334,43.57108497619632L198.38229166666667,26.37032890319827L199.305,47.06525230407718L200.22770833333334,76.07359313964844L201.15041666666667,33.35866355895999L202.073125,91.6285457611084L202.9958333333333,26.311248779296903L203.91854166666667,33.56122398376468L204.84125,52.56814384460449L205.76395833333333,45.20844841003421L206.68666666666667,44.54168701171878L207.609375,39.01347541809085L208.53208333333333,64.92432975769043L209.45479166666667,36.27890968322757L210.3775,48.91361618041995L211.30020833333333,52.0111026763916L212.2229166666667,73.2715072631836L213.145625,33.493703842163114L214.06833333333333,70.84922218322754L214.99104166666666,27.97393226623538L215.91375,33.46838378906253L216.83645833333333,35.99194908142093L217.75916666666666,49.10773658752443L218.68187500000002,38.11039352416995L219.60458333333332,35.05510711669925L220.52729166666666,62.6370849609375L221.45000000000002,50.998300552368164L222.37270833333335,28.775733947753935L223.29541666666665,33.17298316955569L224.21812500000001,49.149936676025405L225.14083333333335,80.48772239685059L226.06354166666665,50.922340393066406L226.98624999999998,36.768430709838896L227.90895833333335,46.508211135864286L228.83166666666668,41.266960144043L229.75437499999998,26.454729080200224L230.67708333333334,28.488773345947294L231.59979166666668,31.527179718017607L232.52249999999998,31.780380249023466L233.44520833333334,76.26771354675293L234.36791666666667,46.11153030395511L235.290625,62.502044677734375L236.21333333333334,30.776018142700224L237.13604166666667,64.49388885498047L238.05875,81.62712478637695L238.9814583333333,51.985782623291016L239.90416666666667,29.86449623107913L240.826875,90.98710441589355L241.74958333333333,36.245149612426786L242.67229166666667,85.01157188415527L243.595,41.36824035644534L244.51770833333333,41.916841506958036L245.4404166666667,107.45357894897461L246.363125,48.94737625122073L247.28583333333333,93.9579906463623L248.20854166666666,35.08042716979983L249.13125,53.07454490661621L250.05395833333333,30.49749755859378L250.97666666666666,42.997163772583036L251.89937500000002,32.396501541137724L252.82208333333332,25.821727752685575L253.74479166666666,122.14764976501465L254.66750000000002,32.9788627624512L255.59020833333332,39.55363655090335L256.5129166666667,44.28848648071292L257.435625,38.70963478088382L258.35833333333335,25.264686584472685L259.2810416666667,63.5401668548584" style="fill: none;" fill="none"></path></g></g></g></g></g></g><g transform="translate(53, 177)" clip-path="url(#clip_1)"><clipPath id="clip_1"><rect width="276" height="23"></rect></clipPath><g><g><line x1="0" y1="0" x2="0" y2="5" style="visibility: inherit;" fill="rgb(0, 0, 0)" stroke="rgb(204, 204, 204)" stroke-width="1px"></line><line x1="18.454166666666666" y1="0" x2="18.454166666666666" y2="5" style="visibility: inherit;" fill="rgb(0, 0, 0)" stroke="rgb(204, 204, 204)" stroke-width="1px"></line><line x1="36.90833333333333" y1="0" x2="36.90833333333333" y2="5" style="visibility: inherit;" fill="rgb(0, 0, 0)" stroke="rgb(204, 204, 204)" stroke-width="1px"></line><line x1="55.362500000000004" y1="0" x2="55.362500000000004" y2="5" style="visibility: inherit;" fill="rgb(0, 0, 0)" stroke="rgb(204, 204, 204)" stroke-width="1px"></line><line x1="73.81666666666666" y1="0" x2="73.81666666666666" y2="5" style="visibility: inherit;" fill="rgb(0, 0, 0)" stroke="rgb(204, 204, 204)" stroke-width="1px"></line><line x1="92.27083333333333" y1="0" x2="92.27083333333333" y2="5" style="visibility: inherit;" fill="rgb(0, 0, 0)" stroke="rgb(204, 204, 204)" stroke-width="1px"></line><line x1="110.72500000000001" y1="0" x2="110.72500000000001" y2="5" style="visibility: inherit;" fill="rgb(0, 0, 0)" stroke="rgb(204, 204, 204)" stroke-width="1px"></line><line x1="129.17916666666667" y1="0" x2="129.17916666666667" y2="5" style="visibility: inherit;" fill="rgb(0, 0, 0)" stroke="rgb(204, 204, 204)" stroke-width="1px"></line><line x1="147.63333333333333" y1="0" x2="147.63333333333333" y2="5" style="visibility: inherit;" fill="rgb(0, 0, 0)" stroke="rgb(204, 204, 204)" stroke-width="1px"></line><line x1="166.0875" y1="0" x2="166.0875" y2="5" style="visibility: inherit;" fill="rgb(0, 0, 0)" stroke="rgb(204, 204, 204)" stroke-width="1px"></line><line x1="184.54166666666666" y1="0" x2="184.54166666666666" y2="5" style="visibility: inherit;" fill="rgb(0, 0, 0)" stroke="rgb(204, 204, 204)" stroke-width="1px"></line><line x1="202.9958333333333" y1="0" x2="202.9958333333333" y2="5" style="visibility: inherit;" fill="rgb(0, 0, 0)" stroke="rgb(204, 204, 204)" stroke-width="1px"></line><line x1="221.45000000000002" y1="0" x2="221.45000000000002" y2="5" style="visibility: inherit;" fill="rgb(0, 0, 0)" stroke="rgb(204, 204, 204)" stroke-width="1px"></line><line x1="239.90416666666667" y1="0" x2="239.90416666666667" y2="5" style="visibility: inherit;" fill="rgb(0, 0, 0)" stroke="rgb(204, 204, 204)" stroke-width="1px"></line><line x1="258.35833333333335" y1="0" x2="258.35833333333335" y2="5" style="visibility: inherit;" fill="rgb(0, 0, 0)" stroke="rgb(204, 204, 204)" stroke-width="1px"></line><line x1="276.8125" y1="0" x2="276.8125" y2="5" style="visibility: inherit;" fill="rgb(0, 0, 0)" stroke="rgb(204, 204, 204)" stroke-width="1px"></line></g><g transform="translate(0, 8)"><text x="0" y="0" dx="0em" dy="0.95em" style="text-anchor: middle; visibility: hidden; font-family: &quot;Helvetica Neue&quot;, sans-serif; font-size: 12px; font-weight: 200;" fill="rgb(50, 49, 63)" stroke="none" stroke-width="1px">-2k</text><text x="18.454166666666666" y="0" dx="0em" dy="0.95em" style="text-anchor: middle; visibility: inherit; font-family: &quot;Helvetica Neue&quot;, sans-serif; font-size: 12px; font-weight: 200;" fill="rgb(50, 49, 63)" stroke="none" stroke-width="1px">0</text><text x="36.90833333333333" y="0" dx="0em" dy="0.95em" style="text-anchor: middle; visibility: hidden; font-family: &quot;Helvetica Neue&quot;, sans-serif; font-size: 12px; font-weight: 200;" fill="rgb(50, 49, 63)" stroke="none" stroke-width="1px">2k</text><text x="55.362500000000004" y="0" dx="0em" dy="0.95em" style="text-anchor: middle; visibility: inherit; font-family: &quot;Helvetica Neue&quot;, sans-serif; font-size: 12px; font-weight: 200;" fill="rgb(50, 49, 63)" stroke="none" stroke-width="1px">4k</text><text x="73.81666666666666" y="0" dx="0em" dy="0.95em" style="text-anchor: middle; visibility: hidden; font-family: &quot;Helvetica Neue&quot;, sans-serif; font-size: 12px; font-weight: 200;" fill="rgb(50, 49, 63)" stroke="none" stroke-width="1px">6k</text><text x="92.27083333333333" y="0" dx="0em" dy="0.95em" style="text-anchor: middle; visibility: inherit; font-family: &quot;Helvetica Neue&quot;, sans-serif; font-size: 12px; font-weight: 200;" fill="rgb(50, 49, 63)" stroke="none" stroke-width="1px">8k</text><text x="110.72500000000001" y="0" dx="0em" dy="0.95em" style="text-anchor: middle; visibility: hidden; font-family: &quot;Helvetica Neue&quot;, sans-serif; font-size: 12px; font-weight: 200;" fill="rgb(50, 49, 63)" stroke="none" stroke-width="1px">10k</text><text x="129.17916666666667" y="0" dx="0em" dy="0.95em" style="text-anchor: middle; visibility: inherit; font-family: &quot;Helvetica Neue&quot;, sans-serif; font-size: 12px; font-weight: 200;" fill="rgb(50, 49, 63)" stroke="none" stroke-width="1px">12k</text><text x="147.63333333333333" y="0" dx="0em" dy="0.95em" style="text-anchor: middle; visibility: hidden; font-family: &quot;Helvetica Neue&quot;, sans-serif; font-size: 12px; font-weight: 200;" fill="rgb(50, 49, 63)" stroke="none" stroke-width="1px">14k</text><text x="166.0875" y="0" dx="0em" dy="0.95em" style="text-anchor: middle; visibility: inherit; font-family: &quot;Helvetica Neue&quot;, sans-serif; font-size: 12px; font-weight: 200;" fill="rgb(50, 49, 63)" stroke="none" stroke-width="1px">16k</text><text x="184.54166666666666" y="0" dx="0em" dy="0.95em" style="text-anchor: middle; visibility: hidden; font-family: &quot;Helvetica Neue&quot;, sans-serif; font-size: 12px; font-weight: 200;" fill="rgb(50, 49, 63)" stroke="none" stroke-width="1px">18k</text><text x="202.9958333333333" y="0" dx="0em" dy="0.95em" style="text-anchor: middle; visibility: inherit; font-family: &quot;Helvetica Neue&quot;, sans-serif; font-size: 12px; font-weight: 200;" fill="rgb(50, 49, 63)" stroke="none" stroke-width="1px">20k</text><text x="221.45000000000002" y="0" dx="0em" dy="0.95em" style="text-anchor: middle; visibility: hidden; font-family: &quot;Helvetica Neue&quot;, sans-serif; font-size: 12px; font-weight: 200;" fill="rgb(50, 49, 63)" stroke="none" stroke-width="1px">22k</text><text x="239.90416666666667" y="0" dx="0em" dy="0.95em" style="text-anchor: middle; visibility: inherit; font-family: &quot;Helvetica Neue&quot;, sans-serif; font-size: 12px; font-weight: 200;" fill="rgb(50, 49, 63)" stroke="none" stroke-width="1px">24k</text><text x="258.35833333333335" y="0" dx="0em" dy="0.95em" style="text-anchor: middle; visibility: hidden; font-family: &quot;Helvetica Neue&quot;, sans-serif; font-size: 12px; font-weight: 200;" fill="rgb(50, 49, 63)" stroke="none" stroke-width="1px">26k</text><text x="276.8125" y="0" dx="0em" dy="0.95em" style="text-anchor: middle; visibility: hidden; font-family: &quot;Helvetica Neue&quot;, sans-serif; font-size: 12px; font-weight: 200;" fill="rgb(50, 49, 63)" stroke="none" stroke-width="1px">28k</text></g><line x1="0" y1="0" x2="276.8125" y2="0" fill="rgb(0, 0, 0)" stroke="rgb(204, 204, 204)" stroke-width="1px"></line></g></g></g></g></svg>