<svg viewBox="0 0 330 200" xmlns="http://www.w3.org/2000/svg"><g><g><g><g><g><line x1="53.1875" y1="177" x2="48.1875" y2="177" style="visibility: inherit;" fill="rgb(0, 0, 0)" stroke="rgb(204, 204, 204)" stroke-width="1px"></line><line x1="53.1875" y1="160.9090909090909" x2="48.1875" y2="160.9090909090909" style="visibility: inherit;" fill="rgb(0, 0, 0)" stroke="rgb(204, 204, 204)" stroke-width="1px"></line><line x1="53.1875" y1="144.8181818181818" x2="48.1875" y2="144.8181818181818" style="visibility: inherit;" fill="rgb(0, 0, 0)" stroke="rgb(204, 204, 204)" stroke-width="1px"></line><line x1="53.1875" y1="128.7272727272727" x2="48.1875" y2="128.7272727272727" style="visibility: inherit;" fill="rgb(0, 0, 0)" stroke="rgb(204, 204, 204)" stroke-width="1px"></line><line x1="53.1875" y1="112.63636363636361" x2="48.1875" y2="112.63636363636361" style="visibility: inherit;" fill="rgb(0, 0, 0)" stroke="rgb(204, 204, 204)" stroke-width="1px"></line><line x1="53.1875" y1="96.5454545454545" x2="48.1875" y2="96.5454545454545" style="visibility: inherit;" fill="rgb(0, 0, 0)" stroke="rgb(204, 204, 204)" stroke-width="1px"></line><line x1="53.1875" y1="80.4545454545455" x2="48.1875" y2="80.4545454545455" style="visibility: inherit;" fill="rgb(0, 0, 0)" stroke="rgb(204, 204, 204)" stroke-width="1px"></line><line x1="53.1875" y1="64.3636363636364" x2="48.1875" y2="64.3636363636364" style="visibility: inherit;" fill="rgb(0, 0, 0)" stroke="rgb(204, 204, 204)" stroke-width="1px"></line><line x1="53.1875" y1="48.27272727272728" x2="48.1875" y2="48.27272727272728" style="visibility: inherit;" fill="rgb(0, 0, 0)" stroke="rgb(204, 204, 204)" stroke-width="1px"></line><line x1="53.1875" y1="32.18181818181819" x2="48.1875" y2="32.18181818181819" style="visibility: inherit;" fill="rgb(0, 0, 0)" stroke="rgb(204, 204, 204)" stroke-width="1px"></line><line x1="53.1875" y1="16.090909090909093" x2="48.1875" y2="16.090909090909093" style="visibility: inherit;" fill="rgb(0, 0, 0)" stroke="rgb(204, 204, 204)" stroke-width="1px"></line><line x1="53.1875" y1="0" x2="48.1875" y2="0" style="visibility: inherit;" fill="rgb(0, 0, 0)" stroke="rgb(204, 204, 204)" stroke-width="1px"></line></g><g transform="translate(43.1875, 0)"><text x="0" y="177" dx="0em" dy="0.3em" style="text-anchor: end; visibility: hidden; font-family: &quot;Helvetica Neue&quot;, sans-serif; font-size: 12px; font-weight: 200;" fill="rgb(50, 49, 63)" stroke="none" stroke-width="1px">0.82</text><text x="0" y="160.9090909090909" dx="0em" dy="0.3em" style="text-anchor: end; visibility: inherit; font-family: &quot;Helvetica Neue&quot;, sans-serif; font-size: 12px; font-weight: 200;" fill="rgb(50, 49, 63)" stroke="none" stroke-width="1px">0.84</text><text x="0" y="144.8181818181818" dx="0em" dy="0.3em" style="text-anchor: end; visibility: hidden; font-family: &quot;Helvetica Neue&quot;, sans-serif; font-size: 12px; font-weight: 200;" fill="rgb(50, 49, 63)" stroke="none" stroke-width="1px">0.86</text><text x="0" y="128.7272727272727" dx="0em" dy="0.3em" style="text-anchor: end; visibility: inherit; font-family: &quot;Helvetica Neue&quot;, sans-serif; font-size: 12px; font-weight: 200;" fill="rgb(50, 49, 63)" stroke="none" stroke-width="1px">0.88</text><text x="0" y="112.63636363636361" dx="0em" dy="0.3em" style="text-anchor: end; visibility: hidden; font-family: &quot;Helvetica Neue&quot;, sans-serif; font-size: 12px; font-weight: 200;" fill="rgb(50, 49, 63)" stroke="none" stroke-width="1px">0.9</text><text x="0" y="96.5454545454545" dx="0em" dy="0.3em" style="text-anchor: end; visibility: inherit; font-family: &quot;Helvetica Neue&quot;, sans-serif; font-size: 12px; font-weight: 200;" fill="rgb(50, 49, 63)" stroke="none" stroke-width="1px">0.92</text><text x="0" y="80.4545454545455" dx="0em" dy="0.3em" style="text-anchor: end; visibility: hidden; font-family: &quot;Helvetica Neue&quot;, sans-serif; font-size: 12px; font-weight: 200;" fill="rgb(50, 49, 63)" stroke="none" stroke-width="1px">0.94</text><text x="0" y="64.3636363636364" dx="0em" dy="0.3em" style="text-anchor: end; visibility: inherit; font-family: &quot;Helvetica Neue&quot;, sans-serif; font-size: 12px; font-weight: 200;" fill="rgb(50, 49, 63)" stroke="none" stroke-width="1px">0.96</text><text x="0" y="48.27272727272728" dx="0em" dy="0.3em" style="text-anchor: end; visibility: hidden; font-family: &quot;Helvetica Neue&quot;, sans-serif; font-size: 12px; font-weight: 200;" fill="rgb(50, 49, 63)" stroke="none" stroke-width="1px">0.98</text><text x="0" y="32.18181818181819" dx="0em" dy="0.3em" style="text-anchor: end; visibility: inherit; font-family: &quot;Helvetica Neue&quot;, sans-serif; font-size: 12px; font-weight: 200;" fill="rgb(50, 49, 63)" stroke="none" stroke-width="1px">1</text><text x="0" y="16.090909090909093" dx="0em" dy="0.3em" style="text-anchor: end; visibility: hidden; font-family: &quot;Helvetica Neue&quot;, sans-serif; font-size: 12px; font-weight: 200;" fill="rgb(50, 49, 63)" stroke="none" stroke-width="1px">1.02</text><text x="0" y="0" dx="0em" dy="0.3em" style="text-anchor: end; visibility: hidden; font-family: &quot;Helvetica Neue&quot;, sans-serif; font-size: 12px; font-weight: 200;" fill="rgb(50, 49, 63)" stroke="none" stroke-width="1px">1.04</text></g><line x1="53.1875" y1="0" x2="53.1875" y2="177" fill="rgb(0, 0, 0)" stroke="rgb(204, 204, 204)" stroke-width="1px"></line></g></g><g transform="translate(53, 0)" clip-path="url(#clip_0)"><clipPath id="clip_0"><rect width="276" height="177"></rect></clipPath><g><g><g><line x1="0" y1="0" x2="0" y2="177" fill="rgb(0, 0, 0)" stroke="rgb(60, 60, 60)" stroke-width="1px" opacity="0.25"></line><line x1="18.454166666666666" y1="0" x2="18.454166666666666" y2="177" fill="rgb(0, 0, 0)" stroke="rgb(60, 60, 60)" stroke-width="1px" opacity="0.25"></line><line x1="36.90833333333333" y1="0" x2="36.90833333333333" y2="177" fill="rgb(0, 0, 0)" stroke="rgb(60, 60, 60)" stroke-width="1px" opacity="0.25"></line><line x1="55.362500000000004" y1="0" x2="55.362500000000004" y2="177" fill="rgb(0, 0, 0)" stroke="rgb(60, 60, 60)" stroke-width="1px" opacity="0.25"></line><line x1="73.81666666666666" y1="0" x2="73.81666666666666" y2="177" fill="rgb(0, 0, 0)" stroke="rgb(60, 60, 60)" stroke-width="1px" opacity="0.25"></line><line x1="92.27083333333333" y1="0" x2="92.27083333333333" y2="177" fill="rgb(0, 0, 0)" stroke="rgb(60, 60, 60)" stroke-width="1px" opacity="0.25"></line><line x1="110.72500000000001" y1="0" x2="110.72500000000001" y2="177" fill="rgb(0, 0, 0)" stroke="rgb(60, 60, 60)" stroke-width="1px" opacity="0.25"></line><line x1="129.17916666666667" y1="0" x2="129.17916666666667" y2="177" fill="rgb(0, 0, 0)" stroke="rgb(60, 60, 60)" stroke-width="1px" opacity="0.25"></line><line x1="147.63333333333333" y1="0" x2="147.63333333333333" y2="177" fill="rgb(0, 0, 0)" stroke="rgb(60, 60, 60)" stroke-width="1px" opacity="0.25"></line><line x1="166.0875" y1="0" x2="166.0875" y2="177" fill="rgb(0, 0, 0)" stroke="rgb(60, 60, 60)" stroke-width="1px" opacity="0.25"></line><line x1="184.54166666666666" y1="0" x2="184.54166666666666" y2="177" fill="rgb(0, 0, 0)" stroke="rgb(60, 60, 60)" stroke-width="1px" opacity="0.25"></line><line x1="202.9958333333333" y1="0" x2="202.9958333333333" y2="177" fill="rgb(0, 0, 0)" stroke="rgb(60, 60, 60)" stroke-width="1px" opacity="0.25"></line><line x1="221.45000000000002" y1="0" x2="221.45000000000002" y2="177" fill="rgb(0, 0, 0)" stroke="rgb(60, 60, 60)" stroke-width="1px" opacity="0.25"></line><line x1="239.90416666666667" y1="0" x2="239.90416666666667" y2="177" fill="rgb(0, 0, 0)" stroke="rgb(60, 60, 60)" stroke-width="1px" opacity="0.25"></line><line x1="258.35833333333335" y1="0" x2="258.35833333333335" y2="177" fill="rgb(0, 0, 0)" stroke="rgb(60, 60, 60)" stroke-width="1px" opacity="0.25"></line><line x1="276.8125" y1="0" x2="276.8125" y2="177" fill="rgb(0, 0, 0)" stroke="rgb(60, 60, 60)" stroke-width="1px" opacity="0.25"></line></g><g><line x1="0" y1="177" x2="276.8125" y2="177" fill="rgb(0, 0, 0)" stroke="rgb(60, 60, 60)" stroke-width="1px" opacity="0.25"></line><line x1="0" y1="160.9090909090909" x2="276.8125" y2="160.9090909090909" fill="rgb(0, 0, 0)" stroke="rgb(60, 60, 60)" stroke-width="1px" opacity="0.25"></line><line x1="0" y1="144.8181818181818" x2="276.8125" y2="144.8181818181818" fill="rgb(0, 0, 0)" stroke="rgb(60, 60, 60)" stroke-width="1px" opacity="0.25"></line><line x1="0" y1="128.7272727272727" x2="276.8125" y2="128.7272727272727" fill="rgb(0, 0, 0)" stroke="rgb(60, 60, 60)" stroke-width="1px" opacity="0.25"></line><line x1="0" y1="112.63636363636361" x2="276.8125" y2="112.63636363636361" fill="rgb(0, 0, 0)" stroke="rgb(60, 60, 60)" stroke-width="1px" opacity="0.25"></line><line x1="0" y1="96.5454545454545" x2="276.8125" y2="96.5454545454545" fill="rgb(0, 0, 0)" stroke="rgb(60, 60, 60)" stroke-width="1px" opacity="0.25"></line><line x1="0" y1="80.4545454545455" x2="276.8125" y2="80.4545454545455" fill="rgb(0, 0, 0)" stroke="rgb(60, 60, 60)" stroke-width="1px" opacity="0.25"></line><line x1="0" y1="64.3636363636364" x2="276.8125" y2="64.3636363636364" fill="rgb(0, 0, 0)" stroke="rgb(60, 60, 60)" stroke-width="1px" opacity="0.25"></line><line x1="0" y1="48.27272727272728" x2="276.8125" y2="48.27272727272728" fill="rgb(0, 0, 0)" stroke="rgb(60, 60, 60)" stroke-width="1px" opacity="0.25"></line><line x1="0" y1="32.18181818181819" x2="276.8125" y2="32.18181818181819" fill="rgb(0, 0, 0)" stroke="rgb(60, 60, 60)" stroke-width="1px" opacity="0.25"></line><line x1="0" y1="16.090909090909093" x2="276.8125" y2="16.090909090909093" fill="rgb(0, 0, 0)" stroke="rgb(60, 60, 60)" stroke-width="1px" opacity="0.25"></line><line x1="0" y1="0" x2="276.8125" y2="0" fill="rgb(0, 0, 0)" stroke="rgb(60, 60, 60)" stroke-width="1px" opacity="0.25"></line></g></g></g><g><g><line x1="0" y1="836.7272727272724" x2="276.8125" y2="836.7272727272724" fill="rgb(0, 0, 0)" stroke="rgb(153, 153, 153)" stroke-width="1.5px"></line></g></g><g><g><line x1="18.454166666666666" y1="0" x2="18.454166666666666" y2="177" fill="rgb(0, 0, 0)" stroke="rgb(153, 153, 153)" stroke-width="1.5px"></line></g></g><g><g><g><g><g><path stroke="rgb(255, 112, 67)" stroke-width="2px" d="M23.99041666666667,194.39026905308438L24.913125,153.94795893816132L25.835833333333333,141.13945921493323L26.758541666666666,127.9418919149355L27.681250000000002,138.78610681367996L28.603958333333335,150.04840779964263L29.526666666666667,200.7095902994605L30.449375,160.8936944738576L31.372083333333332,194.0860305637124L32.29479166666667,154.9913546572206L33.2175,142.55601141501904L34.140208333333334,120.31567525867138L35.062916666666666,115.32152477344148L35.985625,91.05671466863646L36.90833333333333,93.54840669691957L37.831041666666664,136.12359566132437L38.753750000000004,134.41188547090923L39.676458333333336,106.8075852411002L40.59916666666667,116.49594915306218L41.521875,92.36416891375585L42.44458333333333,138.1782211546643L43.36729166666667,118.49410600069184L44.29,122.60182068777908L45.21270833333333,97.15543334008301L46.135416666666664,78.37093850679575L47.058125000000004,107.85573323287278L47.98083333333334,126.94404442555302L48.90354166666667,96.13035941905711L49.82625,93.17997302394173L50.74895833333333,86.98005542045136L51.67166666666667,70.72784860587892L52.594375,68.67501008986278L53.51708333333333,73.98786937414218L54.439791666666665,80.98725038885178L55.362500000000004,73.79333462366348L56.28520833333334,75.68680492603801L57.20791666666667,63.6536589365208L58.130624999999995,63.09244658557475L59.053333333333335,72.39970540190953L59.97604166666667,85.86122512038173L60.89875,73.13848060147734L61.82145833333333,69.12882403637472L62.744166666666665,89.57786911943164L63.666875000000005,76.54416146716245L64.58958333333334,77.36352263107115L65.51229166666667,69.98716301066786L66.435,84.55225024757198L67.35770833333333,87.74801405533971L68.28041666666667,97.03840325687753L69.203125,76.05443308057258L70.12583333333333,76.06806649853992L71.04854166666667,74.9076685531529L71.97125,65.3927046551448L72.89395833333333,55.661117971135354L73.81666666666666,50.39587616390101L74.73937500000001,51.257402057066486L75.66208333333333,70.06730786566148L76.58479166666667,66.60597005954989L77.50750000000001,64.62898976704618L78.43020833333333,60.90001607705929L79.35291666666667,56.84795133009153L80.27562499999999,51.38185475364638L81.19833333333334,45.41940290876329L82.12104166666667,47.520145528223935L83.04375,75.01375820635518L83.96645833333334,81.20217055970228L84.88916666666665,75.65674873689724L85.811875,67.0250212460751L86.73458333333333,67.41325060893162L87.65729166666667,56.75329038233093L88.58,51.807539469564986L89.50270833333333,53.82589510528689L90.42541666666666,52.80471562360249L91.34812500000001,47.85094237607154L92.27083333333333,50.67925322873796L93.19354166666666,50.656931407374415L94.11625000000001,50.40683418178263L95.03895833333333,46.54665915657216L95.96166666666667,43.63764289800713L96.88437499999999,43.01030530584305L97.80708333333334,43.005800621388715L98.72979166666667,40.67217592236463L99.6525,43.61465875571838L100.57520833333334,39.64225996782818L101.49791666666665,40.505407776483L102.420625,42.46755612690495L103.34333333333333,45.097353001503336L104.26604166666667,48.062117852988536L105.18875,62.59472587436163L106.11145833333335,73.18592215777896L107.03416666666666,58.81830565128334L107.956875,52.772804329573916L108.87958333333333,53.38479015434754L109.80229166666666,50.96821444752797L110.72500000000001,48.41797844320698L111.64770833333333,48.89349195591524L112.57041666666667,44.979334983799134L113.49312499999999,43.43037902275577L114.41583333333334,43.51651221218893L115.33854166666667,42.529935675715905L116.26124999999999,42.3716340268964L117.18395833333334,43.17104554966613L118.10666666666667,40.78340745012909L119.029375,38.53375414959433L119.95208333333333,37.658195254732476L120.87479166666667,41.47371447589299L121.7975,45.91350415488219L122.72020833333335,41.221135262219235L123.64291666666666,41.44456148143519L124.565625,40.48598019424085L125.48833333333333,41.86258551509445L126.41104166666666,47.82084674366172L127.33375000000001,46.447996558929844L128.25645833333334,42.92796933889602L129.17916666666667,39.92524341162894L130.101875,39.0383906828194L131.02458333333334,43.590622435564995L131.94729166666667,44.13858645374705L132.87,44.39529862261159L133.79270833333334,40.65483321104256L134.71541666666667,38.898348623455576L135.638125,38.103547232440945L136.56083333333333,37.754379211122966L137.48354166666667,37.42823351734373L138.40625,36.57923118550585L139.32895833333333,36.471497901498736L140.25166666666667,35.823230707126015L141.174375,38.06042026163496L142.09708333333333,39.151010466431956L143.0197916666667,51.651524069145L143.9425,47.69030737576597L144.86520833333333,46.31991519747797L145.78791666666666,41.59762443867862L146.710625,40.00153739638921L147.63333333333333,39.09859183119954L148.55604166666666,38.106281001762596L149.47875000000002,37.35364162885912L150.40145833333332,40.845330183940234L151.32416666666666,40.046146156441466L152.24687500000002,37.75878394856042L153.16958333333335,36.93744223407927L154.09229166666665,38.60284564062263L155.01500000000001,37.48726861303899L155.93770833333335,41.24722450369299L156.86041666666665,40.44760472088004L157.78312499999998,40.74905239863742L158.70583333333335,43.288810043204336L159.62854166666668,44.360740045815874L160.55124999999998,40.64288335611667L161.47395833333334,37.90432964090479L162.39666666666668,36.390041954714405L163.31937499999998,35.62283963947843L164.24208333333334,36.44835494696173L165.16479166666667,36.54314692786056L166.0875,35.44145705032241L167.01020833333334,36.84051717140824L167.93291666666667,50.98748260682497L168.855625,114.83005504684138L169.7783333333333,93.63073071872184L170.70104166666667,71.65042260960283L171.62375,84.46017772091025L172.54645833333333,67.77973805094766L173.46916666666667,55.87899209828545L174.391875,48.096316725278484L175.31458333333333,42.85442075582577L176.2372916666667,42.46661777494961L177.16,41.126145299556384L178.08270833333333,39.41885664783325L179.00541666666666,52.018110664295364L179.928125,46.54464528710628L180.85083333333333,41.69016649466255L181.77354166666666,42.12452169307613L182.69625000000002,40.426168340192106L183.61895833333332,40.47639147992601L184.54166666666666,40.38583311065349L185.46437500000002,37.89287006576902L186.38708333333332,37.92673035584832L187.30979166666665,40.27852469214113L188.23250000000002,37.439937290718035L189.15520833333335,36.20286564549912L190.07791666666665,39.84045475273359L191.00062499999999,38.06918601612574L191.92333333333335,36.3838775594796L192.84604166666665,36.26169489534024L193.76874999999998,37.150048586360214L194.69145833333334,41.46756473773979L195.61416666666668,38.14870012648373L196.53687499999998,36.314519143821L197.45958333333334,35.43222337549017L198.38229166666667,37.30686986524188L199.305,38.564242764419646L200.22770833333334,37.397200565184846L201.15041666666667,35.99089103758885L202.073125,38.58769771837436L202.9958333333333,36.769832192342676L203.91854166666667,35.21982245896581L204.84125,36.655802944463716L205.76395833333333,38.17575098009456L206.68666666666667,36.94664076580088L207.609375,35.857475263285835L208.53208333333333,35.638406691035925L209.45479166666667,35.106122252501905L210.3775,34.17318148443573L211.30020833333333,33.69541946829679L212.2229166666667,33.61960924625103L213.145625,35.62614078010037L214.06833333333333,37.68948368459084L214.99104166666666,38.17335466391418L215.91375,38.04250118640999L216.83645833333333,39.8124105218256L217.75916666666666,38.91126555158476L218.68187500000002,36.823906962162596L219.60458333333332,35.08538515269487L220.52729166666666,34.242991033411556L221.45000000000002,34.01408023267348L222.37270833333335,46.650873178201834L223.29541666666665,41.17666356420176L224.21812500000001,38.48777286313458L225.14083333333335,36.879464089397516L226.06354166666665,48.53717747898335L226.98624999999998,42.29521066236808L227.90895833333335,38.48885962593096L228.83166666666668,36.574242232877054L229.75437499999998,38.750857952779995L230.67708333333334,36.82059850687389L231.59979166666668,35.47816272558984L232.52249999999998,34.35458931695564L233.44520833333334,33.569976949194626L234.36791666666667,33.845383820668985L235.290625,33.603358725802394L236.21333333333334,34.18126136720505L237.13604166666667,35.127551118495035L238.05875,34.60190149435027L238.9814583333333,34.1057802499289L239.90416666666667,34.91607082686906L240.826875,34.1728606857078L241.74958333333333,34.37173277144743L242.67229166666667,34.62262438972232L243.595,34.47361545976389L244.51770833333333,33.92422913712815L245.4404166666667,37.30845449579198L246.363125,36.43161461371554L247.28583333333333,42.81613963181434L248.20854166666666,40.13058552237055L249.13125,38.90248740586844L250.05395833333333,37.02150740927209L250.97666666666666,37.98412561512171L251.89937500000002,36.410451118002186L252.82208333333332,39.126068276836065L253.74479166666666,43.54967906851178L254.66750000000002,39.7570722962318L255.59020833333332,37.38208866072725L256.5129166666667,39.6315560944966L257.435625,38.94492882971872L258.35833333333335,36.67825858123413L259.2810416666667,37.59585275411632" style="fill: none;" fill="none"></path></g><g><path stroke="rgb(0, 119, 187)" stroke-width="2px" d="M20.299583333333334,221.71371495317322L21.222291666666663,158.24567671565262L22.145,168.20403887622342L23.067708333333332,193.11409434027706L23.99041666666667,171.58962034873562L24.913125,184.7918809602163L26.758541666666666,203.43581612133067L27.681250000000002,172.9030422246897L28.603958333333335,212.662489657327L29.526666666666667,230.81614309852577L30.449375,172.59340588087085L31.372083333333332,124.31993551002046L32.29479166666667,114.62392380867934L33.2175,138.14640052765185L34.140208333333334,131.12608418172562L35.062916666666666,117.30354861806146L35.985625,120.33002452664641L36.90833333333333,117.04125533957544L37.831041666666664,94.65935337045956L38.753750000000004,91.91273706677232L39.676458333333336,112.49725780500128L40.59916666666667,132.1884721119755L41.521875,99.43847400466173L42.44458333333333,95.42954466738733L43.36729166666667,90.81261681281501L44.29,75.2185197188055L45.21270833333333,76.92564968809049L46.135416666666664,95.7098000752633L47.058125000000004,133.67666181429945L47.98083333333334,113.51858498660124L48.90354166666667,152.93767813765282L49.82625,117.4449973661575L50.74895833333333,93.93050886255556L51.67166666666667,76.8967935819205L52.594375,63.08121287274136L53.51708333333333,107.94857317826246L54.439791666666665,85.40242904106668L55.362500000000004,77.67752331355578L56.28520833333334,77.31363166240916L57.20791666666667,75.1044691321995L58.130624999999995,75.90351588909078L59.053333333333335,76.39665897184308L59.97604166666667,64.60536528943281L60.89875,108.0243377054273L61.82145833333333,124.27774296848429L62.744166666666665,105.42472468091779L63.666875000000005,86.97380964569209L64.58958333333334,103.74465392230937L65.51229166666667,88.61735220608583L66.435,78.12254947444303L67.35770833333333,91.10178589726969L68.28041666666667,94.78500468891724L69.203125,77.89613500126985L70.12583333333333,62.62182577077148L71.04854166666667,59.01608525398535L71.97125,50.35873787051584L72.89395833333333,49.91272176228196L73.81666666666666,47.875815841362936L74.73937500000001,74.51486126405979L75.66208333333333,75.05447558384199L76.58479166666667,74.240855881318L77.50750000000001,64.2517369528352L78.43020833333333,67.05276403934916L79.35291666666667,56.516588943233586L80.27562499999999,54.43238659053149L81.19833333333334,56.82998610238609L82.12104166666667,57.349447063805954L83.04375,94.48258067988398L83.96645833333334,73.31154254352685L84.88916666666665,62.27204433139454L85.811875,57.60861624241913L86.73458333333333,62.87422902723419L87.65729166666667,59.96090805354062L88.58,58.59689791096656L89.50270833333333,65.52107633570509L90.42541666666666,58.837334660842444L91.34812500000001,51.23712812714682L92.27083333333333,47.29569586807054L93.19354166666666,47.66074105589459L94.11625000000001,44.68234419030361L95.03895833333333,49.01888418589202L95.96166666666667,51.59145993987853L96.88437499999999,62.72524405013506L97.80708333333334,52.61544203183905L98.72979166666667,50.57692626695227L99.6525,65.24360794987696L100.57520833333334,55.26764667404272L101.49791666666665,88.26209983831015L102.420625,73.3401834713649L103.34333333333333,90.23917232220577L104.26604166666667,69.08484064065183L105.18875,74.35290620746956L106.11145833333335,71.15977413126024L107.03416666666666,58.29784411156727L107.956875,72.099144227727L108.87958333333333,63.167985200972026L109.80229166666666,52.62278381699859L110.72500000000001,50.83773523940816L111.64770833333333,67.47591568671352L112.57041666666667,70.03034237626987L113.49312499999999,72.65716995740034L114.41583333333334,61.98463327309496L115.33854166666667,66.77923083783878L116.26124999999999,98.26189482282429L117.18395833333334,76.50273751171022L118.10666666666667,68.24928710485993L119.029375,69.78223873370372L119.95208333333333,62.334556981177954L120.87479166666667,58.02412153410745L121.7975,60.569295118291905L122.72020833333335,74.28290246239777L123.64291666666666,61.92237259985434L124.565625,54.81983152219149L125.48833333333333,47.55851358450187L126.41104166666666,56.363834516050645L127.33375000000001,60.45763676243824L128.25645833333334,52.635568645680905L129.17916666666667,54.546603262312544L130.101875,66.65793875449143L131.02458333333334,60.073289909972814L131.94729166666667,75.74373866152514L132.87,63.12550300432841L133.79270833333334,52.92710737250593L134.71541666666667,49.488216795967844L135.638125,44.67642904969324L136.56083333333333,51.423579061126105L137.48354166666667,46.14022104334012L138.40625,45.35253550155761L139.32895833333333,51.1383507560501L140.25166666666667,47.24619301134308L141.174375,52.35819734644541L142.09708333333333,47.04168100174351L143.0197916666667,52.4170656123903L143.9425,47.99414415744556L144.86520833333333,55.438124370284385L145.78791666666666,50.89222323400227L146.710625,48.55202181909681L147.63333333333333,61.78087756715922L148.55604166666666,52.38066829253853L149.47875000000002,51.423429003144264L150.40145833333332,121.79971058903138L151.32416666666666,118.88032359053767L152.24687500000002,93.06508838039676L153.16958333333335,74.26162903087923L154.09229166666665,59.12096914722348L155.01500000000001,71.47818882021681L155.93770833333335,58.73816117497303L156.86041666666665,56.006369162349415L157.78312499999998,65.9715702000658L158.70583333333335,69.3204360338634L159.62854166666668,63.45211155879737L160.55124999999998,58.70178993200744L161.47395833333334,50.762899284043186L162.39666666666668,46.5470151342729L163.31937499999998,53.78751486114791L164.24208333333334,48.62133420667513L165.16479166666667,47.79584612888431L166.0875,43.720086773344406L167.01020833333334,45.50914149507577L167.93291666666667,44.2153219999355L168.855625,63.29495839875561L169.7783333333333,59.46696038388008L170.70104166666667,61.29061657990687L171.62375,60.90036463892589L172.54645833333333,51.37868372403349L173.46916666666667,74.99653977796734L174.391875,59.919580527380575L175.31458333333333,50.112230471621345L176.2372916666667,56.38288456582774L177.16,69.89111891563444L178.08270833333333,76.83828091563578L179.00541666666666,67.846384607315L179.928125,64.56023460887552L180.85083333333333,69.06247936860508L181.77354166666666,91.65094402212095L182.69625000000002,73.38250898803376L183.61895833333332,59.88284409822985L184.54166666666666,54.82561399969272L185.46437500000002,50.76899797849269L186.38708333333332,50.87718087892992L187.30979166666665,58.32455491969469L188.23250000000002,71.43502037711819L189.15520833333335,59.50943896275585L190.07791666666665,55.42639083001838L191.00062499999999,53.55986308275149L191.92333333333335,47.589947808549255L192.84604166666665,45.901670069934056L193.76874999999998,44.93324370199181L194.69145833333334,41.83464569240863L195.61416666666668,41.09288768458944L196.53687499999998,41.67692040171107L197.45958333333334,44.89663914031587L198.38229166666667,41.31965164870283L199.305,48.535740606260816L200.22770833333334,70.02437196617764L201.15041666666667,58.54235766307869L202.073125,92.6140703470815L202.9958333333333,69.65881467095501L203.91854166666667,58.604517058104975L204.84125,59.391730687362426L205.76395833333333,60.59490685217847L206.68666666666667,58.93181700386033L207.609375,53.071266078760246L208.53208333333333,58.5452999235234L209.45479166666667,54.07708442629166L210.3775,55.28241882358289L211.30020833333333,58.55483089900949L212.2229166666667,71.06179761950881L213.145625,59.84841612507641L214.06833333333333,68.80683148927426L214.99104166666666,56.10190497273541L215.91375,51.28665522379097L216.83645833333333,48.82382217757626L217.75916666666666,56.01085552131046L218.68187500000002,53.851078136457176L219.60458333333332,49.2258165414021L220.52729166666666,57.53439773800011L221.45000000000002,56.55642458661161L222.37270833333335,48.98136358559208L223.29541666666665,46.70623138173113L224.21812500000001,56.03421330281853L225.14083333333335,71.29668336246037L226.06354166666665,63.70460499875648L226.98624999999998,56.64472518242596L227.90895833333335,55.79518175810529L228.83166666666668,53.01624185366494L229.75437499999998,46.18099752759596L230.67708333333334,42.97679463118445L231.59979166666668,41.78914907086519L232.52249999999998,42.81718111232999L233.44520833333334,60.19608649023921L234.36791666666667,57.236449096687295L235.290625,59.83236564695639L236.21333333333334,51.73865942765249L237.13604166666667,58.23836442053248L238.05875,70.88634248994656L238.9814583333333,65.72983942067167L239.90416666666667,54.80016760067015L240.826875,81.81861556031197L241.74958333333333,66.67041493385315L242.67229166666667,74.94159432878394L243.595,66.57935547554128L244.51770833333333,62.071175413218356L245.4404166666667,85.26367523267915L246.363125,72.35137040720507L247.28583333333333,81.83182836899292L248.20854166666666,67.09946113858472L249.13125,70.9530217833803L250.05395833333333,58.140377905489885L250.97666666666666,54.129896290288315L251.89937500000002,50.0248619404188L252.82208333333332,44.10515535394856L253.74479166666666,81.2661353294013L254.66750000000002,65.38184796996296L255.59020833333332,60.03445523625129L256.5129166666667,56.461027194207716L257.435625,53.94395995034978L258.35833333333335,46.211776919167875L259.2810416666667,53.93273874938588" style="fill: none;" fill="none"></path></g></g></g></g><g opacity="0.2"><g><g><g><path stroke="rgb(255, 112, 67)" stroke-width="2px" d="M20.299583333333334,290.3591303066773L21.222291666666663,170.07967078685758L22.145,309.667541027069L23.067708333333332,139.23490678180346L23.99041666666667,170.57312409444285L24.913125,96.11480839685959L25.835833333333333,122.46454365686935L26.758541666666666,108.47804364291103L27.681250000000002,154.88850211013445L28.603958333333335,166.83971103754908L29.526666666666667,276.42566813122136L30.449375,101.29985654354094L31.372083333333332,243.8095074566927L32.29479166666667,96.39529512145302L33.2175,123.91176691922273L34.140208333333334,86.96458238905126L35.062916666666666,107.83156705986369L35.985625,54.6631960110231L36.90833333333333,97.28571698882362L37.831041666666664,199.98404418338424L38.753750000000004,131.84437650983983L39.676458333333336,65.4016798951409L40.59916666666667,131.0283802530982L41.521875,56.16667007316242L42.44458333333333,206.89910414002154L43.36729166666667,88.9679836359891L44.29,128.76338641210035L45.21270833333333,58.98587575825779L46.135416666666664,50.194206638769685L47.058125000000004,152.08291554450986L47.98083333333334,155.57650741663844L48.90354166666667,49.909835587848335L49.82625,88.75439364259893L50.74895833333333,77.68017928166822L51.67166666666667,46.349538803100614L52.594375,65.59575234759937L53.51708333333333,81.95715825124219L54.439791666666665,91.4863218719309L55.362500000000004,63.002460999922334L56.28520833333334,78.52701037580316L57.20791666666667,45.60393996672198L58.130624999999995,62.25062805956061L59.053333333333335,86.36059362238103L59.97604166666667,106.05350469459187L60.89875,54.05436382510446L61.82145833333333,63.11433918909594L62.744166666666665,120.25143674286927L63.666875000000005,56.99359998919748L64.58958333333334,78.59256437691775L65.51229166666667,58.92262358015235L66.435,106.39988110282202L67.35770833333333,92.54165976697747L68.28041666666667,110.9739870591597L69.203125,44.57847781614825L70.12583333333333,76.08851662549105L71.04854166666667,73.16707163507287L71.97125,51.120258808135986L72.89395833333333,41.063737945123165L73.81666666666666,42.498013453050106L74.73937500000001,52.549690896814525L75.66208333333333,98.28216657855293L76.58479166666667,61.41396335038273L77.50750000000001,61.663519328290775L78.43020833333333,55.3065555420789L79.35291666666667,50.76985420963983L80.27562499999999,43.18270988897845L81.19833333333334,36.47572514143857L82.12104166666667,50.671259457414806L83.04375,116.25417722355235L83.96645833333334,90.48478908972307L84.88916666666665,67.3386160026897L85.811875,54.07743000984192L86.73458333333333,67.99559465321627L87.65729166666667,40.76335004242986L88.58,44.388913100416005L89.50270833333333,56.85342855886981L90.42541666666666,51.2729464010759L91.34812500000001,40.420282504775315L92.27083333333333,54.921719507737606L93.19354166666666,50.623448675329044L94.11625000000001,50.031688343394904L95.03895833333333,40.75639661875638L95.96166666666667,39.27411851015958L96.88437499999999,42.069298917596996L97.80708333333334,42.99904359470716L98.72979166666667,37.17173887382856L99.6525,48.028383005749106L100.57520833333334,33.68366178599274L101.49791666666665,41.800129489465206L102.420625,45.41077865253797L103.34333333333333,49.04204831340097L104.26604166666667,52.509265130216434L105.18875,84.39363790642132L106.11145833333335,89.07271658290516L107.03416666666666,37.26688089153984L107.956875,43.70455234700984L108.87958333333333,54.30276889150794L109.80229166666666,47.34335088729861L110.72500000000001,44.59262443672529L111.64770833333333,49.60676222497767L112.57041666666667,39.10809952562505L113.49312499999999,41.106945081190645L114.41583333333334,43.64571199633858L115.33854166666667,41.05007087100637L116.26124999999999,42.13418155366725L117.18395833333334,44.3701628338207L118.10666666666667,37.20195030082357L119.029375,35.15927419879222L119.95208333333333,36.344856912439525L120.87479166666667,47.196993307633846L121.7975,52.57318867336622L122.72020833333335,34.18258192322472L123.64291666666666,41.779700810259044L124.565625,39.04810826344925L125.48833333333333,43.927493496374666L126.41104166666666,56.75823858651249L127.33375000000001,44.38872128183192L128.25645833333334,37.64792850884527L129.17916666666667,35.42115452072838L130.101875,37.70811158960515L131.02458333333334,50.41897006468341L131.94729166666667,44.96053248102015L132.87,44.780366875908584L133.79270833333334,35.04413509368899L134.71541666666667,36.263621742075145L135.638125,36.911345145919114L136.56083333333333,37.23062717914584L137.48354166666667,36.939014976674855L138.40625,35.305727687749L139.32895833333333,36.309897975488155L140.25166666666667,34.85082991556689L141.174375,41.41620459339836L142.09708333333333,40.78689577362755L143.0197916666667,70.4022944732146L143.9425,41.74848233569753L144.86520833333333,44.26432693004611L145.78791666666666,34.51418830047956L146.710625,37.60740683295512L147.63333333333333,37.744173483415096L148.55604166666666,36.61781475760722L149.47875000000002,36.22468256950381L150.40145833333332,46.082863016562044L151.32416666666666,38.847370115193456L152.24687500000002,34.327740636738895L153.16958333333335,35.70542966235769L154.09229166666665,41.100950750437676L155.01500000000001,35.81390307166362L155.93770833333335,46.88715833967382L156.86041666666665,39.24817504666069L157.78312499999998,41.20122391527349L158.70583333333335,47.098446510054856L159.62854166666668,45.96863504973325L160.55124999999998,35.06609832156789L161.47395833333334,33.7964990680868L162.39666666666668,34.118610425428926L163.31937499999998,34.472036166624605L164.24208333333334,37.686627908186495L165.16479166666667,36.68533489920878L166.0875,33.78892223401505L167.01020833333334,38.93910735303706L167.93291666666667,72.20793075995013L168.855625,210.59391370686612L169.7783333333333,61.8317442265424L170.70104166666667,38.67996044592425L171.62375,103.67481038787146L172.54645833333333,42.75907854600388L173.46916666666667,38.02787316929212L174.391875,36.42230366576803L175.31458333333333,34.99157680164686L176.2372916666667,41.88491330363533L177.16,39.11543658646673L178.08270833333333,36.85792367024857L179.00541666666666,70.91699168898843L179.928125,38.334447221322506L180.85083333333333,34.40844830599701L181.77354166666666,42.77605449069631L182.69625000000002,37.87863831086594L183.61895833333332,40.55172618952665L184.54166666666666,40.249995556744665L185.46437500000002,34.15342549844223L186.38708333333332,37.97752079096708L187.30979166666665,43.80621619658038L188.23250000000002,33.1820561885834L189.15520833333335,34.3472581776706L190.07791666666665,45.296838413585334L191.00062499999999,35.412282911213964L191.92333333333335,33.85591487451035L192.84604166666665,36.07842089913109L193.76874999999998,38.482579122890144L194.69145833333334,47.94383896480909L195.61416666666668,33.17040320959961L196.53687499999998,33.563247669826865L197.45958333333334,34.10877972299403L198.38229166666667,40.11883959986946L199.305,40.45030211318624L200.22770833333334,35.64663726633245L201.15041666666667,33.88142674619502L202.073125,42.48290773955259L202.9958333333333,34.04303390329534L203.91854166666667,32.894807858900606L204.84125,38.809773672710776L205.76395833333333,40.455673033540904L206.68666666666667,35.102975444360226L207.609375,34.22372700951317L208.53208333333333,35.30980383266103L209.45479166666667,34.30769559470093L210.3775,32.773770332336454L211.30020833333333,32.97877644408834L212.2229166666667,33.505893913182376L213.145625,38.63593808087438L214.06833333333333,40.784498041326344L214.99104166666666,38.89916113289922L215.91375,37.84622097015384L216.83645833333333,42.467274524948806L217.75916666666666,37.559548096223324L218.68187500000002,33.692869078029304L219.60458333333332,32.47760243849322L220.52729166666666,32.979399854486644L221.45000000000002,33.67071403156629L222.37270833333335,65.60606259649451L223.29541666666665,32.96534914320165L224.21812500000001,34.45443681153387L225.14083333333335,34.46700092879212L226.06354166666665,66.02374756336212L226.98624999999998,32.93226043744522L227.90895833333335,32.779333071275204L228.83166666666668,33.702316143296L229.75437499999998,42.015781532634406L230.67708333333334,33.92520933801478L231.59979166666668,33.46450905366379L232.52249999999998,32.669229204004466L233.44520833333334,32.393058397553204L234.36791666666667,34.258494127880454L235.290625,33.24032108350235L236.21333333333334,35.048115329308956L237.13604166666667,36.54698574543002L238.05875,33.81342705813324L238.9814583333333,33.36159838329664L239.90416666666667,36.13150669227949L240.826875,33.05804547396576L241.74958333333333,34.67004090005702L242.67229166666667,34.99896181713453L243.595,34.25010206482628L244.51770833333333,33.10014965317467L245.4404166666667,42.38479253378782L246.363125,35.116354790600866L247.28583333333333,52.39292715896259L248.20854166666666,36.10225435820493L249.13125,37.06034023111516L250.05395833333333,34.20003741437739L250.97666666666666,39.428052923896104L251.89937500000002,34.0499393723228L252.82208333333332,43.1994940150868L253.74479166666666,50.18509525602515L254.66750000000002,34.06816213781184L255.59020833333332,33.8196132074703L256.5129166666667,43.005757245150505L257.435625,37.91498793255201L258.35833333333335,33.27825320850721L259.2810416666667,38.972244013439536" style="fill: none;" fill="none"></path></g><g><path stroke="rgb(0, 119, 187)" stroke-width="2px" d="M19.376875000000002,307.10196746479374L20.299583333333334,170.48076344620094L21.222291666666663,97.31636000763285L22.145,179.9150727770545L23.067708333333332,225.63666275414548L23.99041666666667,141.8135240077972L24.913125,203.6713248708031L26.758541666666666,222.7284532460299L27.681250000000002,127.56543139977887L28.603958333333335,271.94104554436416L29.526666666666667,257.9478318799625L30.449375,85.4494073932821L31.372083333333332,52.004302707585424L32.29479166666667,100.0913035544482L33.2175,173.41352573308075L34.140208333333334,120.59858042543583L35.062916666666666,96.57325481284748L35.985625,124.86927733638069L36.90833333333333,112.10840216549958L37.831041666666664,61.08772789348255L38.753750000000004,87.79290298982099L39.676458333333336,143.37363250689071L40.59916666666667,161.72506031123072L41.521875,50.31370961666107L42.44458333333333,89.41616775772788L43.36729166666667,83.8872368444096L44.29,51.8273980184035L45.21270833333333,79.48634306951001L46.135416666666664,123.88601527430794L47.058125000000004,190.6269418326291L47.98083333333334,83.28147375583649L48.90354166666667,212.066313158382L49.82625,64.20597875118256L50.74895833333333,58.65877711772919L51.67166666666667,51.346221100200324L52.594375,42.35784202272242L53.51708333333333,175.2496132200414L54.439791666666665,51.583212960850105L55.362500000000004,66.09016474810514L56.28520833333334,76.7677941864187L57.20791666666667,71.79072533954273L58.130624999999995,77.10208602385089L59.053333333333335,77.13637359575793L59.97604166666667,46.91842476888138L60.89875,173.15279632264912L61.82145833333333,148.65785086154935L62.744166666666665,77.14519725062631L63.666875000000005,59.29743709347464L64.58958333333334,128.90092033689672L65.51229166666667,65.92639963193375L66.435,62.38034537705509L67.35770833333333,110.57064053145321L68.28041666666667,100.30983287637883L69.203125,52.56283046982507L70.12583333333333,39.71036192503843L71.04854166666667,53.60747447880833L71.97125,37.37271679531446L72.89395833333333,49.24369759993121L73.81666666666666,44.82045695998451L74.73937500000001,114.47342939810318L75.66208333333333,75.86389706351541L76.58479166666667,73.02042632753198L77.50750000000001,49.26805856011133L78.43020833333333,71.25430466912009L79.35291666666667,40.71232629906049L80.27562499999999,51.30608306147836L81.19833333333334,60.42638537016782L82.12104166666667,58.12863850593567L83.04375,150.1822811040011L83.96645833333334,41.554985338991344L84.88916666666665,45.71279701319608L85.811875,50.61347410895608L86.73458333333333,70.77264820445667L87.65729166666667,55.59092659300025L88.58,56.55088269710541L89.50270833333333,75.907343972813L90.42541666666666,48.81172214854848L91.34812500000001,39.83681832660329L92.27083333333333,41.383547479456126L93.19354166666666,48.20830883763054L94.11625000000001,40.21474889191717L95.03895833333333,55.52369417927484L95.96166666666667,55.450323570858345L96.88437499999999,79.42592021552L97.80708333333334,37.450739004395246L98.72979166666667,47.51915261962196L99.6525,87.24363047426397L100.57520833333334,40.30370476029137L101.49791666666665,137.75377958471122L102.420625,50.957308920947L103.34333333333333,115.58765559846702L104.26604166666667,37.35334311832082L105.18875,82.25500455769625L106.11145833333335,66.37007601694629L107.03416666666666,39.00494908202779L107.956875,92.80109440196644L108.87958333333333,49.771246660839424L109.80229166666666,36.80498174103826L110.72500000000001,48.160162373022615L111.64770833333333,92.43318635767156L112.57041666666667,73.86198241060431L113.49312499999999,76.597411329096L114.41583333333334,45.97582824663684L115.33854166666667,73.97112718495455L116.26124999999999,145.48589080030266L117.18395833333334,43.864001545039116L118.10666666666667,55.86911149458453L119.029375,72.08166617696936L119.95208333333333,51.16303435238926L120.87479166666667,51.55846836350183L121.7975,64.38705549456857L122.72020833333335,94.85331347855654L123.64291666666666,43.3815778060393L124.565625,44.166019905697226L125.48833333333333,36.66653667796743L126.41104166666666,69.57181591337378L127.33375000000001,66.59834013201974L128.25645833333334,40.902466470544994L129.17916666666667,57.41315518726002L130.101875,84.8249419927597L131.02458333333334,50.196316643194734L131.94729166666667,99.24941178885372L132.87,44.1981495185332L133.79270833333334,37.629513924772084L134.71541666666667,44.32988093116066L135.638125,37.45874743028122L136.56083333333333,61.544304078275516L137.48354166666667,38.215184016661226L138.40625,44.17100718888372L139.32895833333333,59.81707363778895L140.25166666666667,41.40795639428228L141.174375,60.026203849098906L142.09708333333333,39.066906484690605L143.0197916666667,60.480142528360545L143.9425,41.359761975028306L144.86520833333333,66.6040946895426L145.78791666666666,44.07337152957919L146.710625,45.04171969673851L147.63333333333333,81.62416118925267L148.55604166666666,38.28035438060763L149.47875000000002,49.98757006905298L150.40145833333332,227.36413296786216L151.32416666666666,114.50124309279701L152.24687500000002,54.34223556518555L153.16958333333335,46.05644000660291L154.09229166666665,36.40997932173991L155.01500000000001,90.01401832970706L155.93770833333335,39.62811970710757L156.86041666666665,51.90868114341389L157.78312499999998,80.91937175664034L158.70583333333335,74.34373478455976L159.62854166666668,54.649624846198364L160.55124999999998,51.57630749182269L161.47395833333334,38.85456331209704L162.39666666666668,40.22318890961736L163.31937499999998,64.64826445146042L164.24208333333334,40.87206322496587L165.16479166666667,46.55761401219803L166.0875,37.60644774003464L167.01020833333334,48.19272357767278L167.93291666666667,42.274592757225065L168.855625,91.91441299698569L169.7783333333333,53.72496336156672L170.70104166666667,64.02610087394714L171.62375,60.31498672745444L172.54645833333333,37.096162351695L173.46916666666667,110.42332385886797L174.391875,37.30414165150037L175.31458333333333,35.40120538798246L176.2372916666667,65.78886570713736L177.16,90.15347044034436L178.08270833333333,87.25902391563763L179.00541666666666,54.358540144833654L179.928125,59.63100961121647L180.85083333333333,75.81584650819953L181.77354166666666,125.53364100239492L182.69625000000002,45.97985643690282L183.61895833333332,39.633346763524145L184.54166666666666,47.239768851887106L185.46437500000002,44.684073946692735L186.38708333333332,51.039455229585826L187.30979166666665,69.49561598084189L188.23250000000002,91.10071856325322L189.15520833333335,41.62106684121221L190.07791666666665,49.30181863091211L191.00062499999999,50.760071461850956L191.92333333333335,38.63507489724594L192.84604166666665,43.36925346201116L193.76874999999998,43.480604150078506L194.69145833333334,37.18674867803401L195.61416666666668,39.98025067286059L196.53687499999998,42.55296947739342L197.45958333333334,49.72621724822305L198.38229166666667,35.954170411283314L199.305,59.359874042597696L200.22770833333334,102.25731900605287L201.15041666666667,41.31933620843023L202.073125,143.72163937308568L202.9958333333333,35.22593115676534L203.91854166666667,42.023070638830006L204.84125,60.572551131248474L205.76395833333333,62.39967109940268L206.68666666666667,56.437182231382906L207.609375,44.280439691110104L208.53208333333333,66.75635069066828L209.45479166666667,47.37476118044421L210.3775,57.0904204195196L211.30020833333333,63.46344901214947L212.2229166666667,89.82224770025773L213.145625,43.02834388342771L214.06833333333333,82.24445453557101L214.99104166666666,37.044515197927296L215.91375,44.0637806003744L216.83645833333333,45.129572608254165L217.75916666666666,66.79140553691171L218.68187500000002,50.61141205917707L219.60458333333332,42.287924148819656L220.52729166666666,69.99726953289725L221.45000000000002,55.08946485952899L222.37270833333335,37.618772084062755L223.29541666666665,43.293533075939536L224.21812500000001,70.02618618444964L225.14083333333335,94.19038845192301L226.06354166666665,52.31648745320062L226.98624999999998,46.05490545793015L227.90895833333335,54.520866621624336L228.83166666666668,48.84783199700445L229.75437499999998,35.92813103849238L230.67708333333334,38.170490286567L231.59979166666668,40.00768073038623L232.52249999999998,44.35922917452726L233.44520833333334,86.26444455710323L234.36791666666667,52.79699300635944L235.290625,63.726240472360104L236.21333333333334,39.59810009869665L237.13604166666667,67.98792190985247L238.05875,89.85830959406766L238.9814583333333,57.99508481675929L239.90416666666667,38.405659870667904L240.826875,122.34628749977456L241.74958333333333,43.94811399416491L242.67229166666667,87.34836342118003L243.595,54.03599719567734L244.51770833333333,55.308905319734066L245.4404166666667,120.05242496187034L246.363125,52.982913168993875L247.28583333333333,96.05251531167463L248.20854166666666,45.000910292972236L249.13125,76.7333627505736L250.05395833333333,38.92141208865428L250.97666666666666,48.11417386748573L251.89937500000002,43.86731041561475L252.82208333333332,35.22559547424319L253.74479166666666,137.0076052925803L254.66750000000002,41.55541693080556L255.59020833333332,52.01336613568394L256.5129166666667,51.10088513114236L257.435625,50.16835908456284L258.35833333333335,34.61350237239492L259.2810416666667,65.51418149471283" style="fill: none;" fill="none"></path></g></g></g></g></g></g><g transform="translate(53, 177)" clip-path="url(#clip_1)"><clipPath id="clip_1"><rect width="276" height="23"></rect></clipPath><g><g><line x1="0" y1="0" x2="0" y2="5" style="visibility: inherit;" fill="rgb(0, 0, 0)" stroke="rgb(204, 204, 204)" stroke-width="1px"></line><line x1="18.454166666666666" y1="0" x2="18.454166666666666" y2="5" style="visibility: inherit;" fill="rgb(0, 0, 0)" stroke="rgb(204, 204, 204)" stroke-width="1px"></line><line x1="36.90833333333333" y1="0" x2="36.90833333333333" y2="5" style="visibility: inherit;" fill="rgb(0, 0, 0)" stroke="rgb(204, 204, 204)" stroke-width="1px"></line><line x1="55.362500000000004" y1="0" x2="55.362500000000004" y2="5" style="visibility: inherit;" fill="rgb(0, 0, 0)" stroke="rgb(204, 204, 204)" stroke-width="1px"></line><line x1="73.81666666666666" y1="0" x2="73.81666666666666" y2="5" style="visibility: inherit;" fill="rgb(0, 0, 0)" stroke="rgb(204, 204, 204)" stroke-width="1px"></line><line x1="92.27083333333333" y1="0" x2="92.27083333333333" y2="5" style="visibility: inherit;" fill="rgb(0, 0, 0)" stroke="rgb(204, 204, 204)" stroke-width="1px"></line><line x1="110.72500000000001" y1="0" x2="110.72500000000001" y2="5" style="visibility: inherit;" fill="rgb(0, 0, 0)" stroke="rgb(204, 204, 204)" stroke-width="1px"></line><line x1="129.17916666666667" y1="0" x2="129.17916666666667" y2="5" style="visibility: inherit;" fill="rgb(0, 0, 0)" stroke="rgb(204, 204, 204)" stroke-width="1px"></line><line x1="147.63333333333333" y1="0" x2="147.63333333333333" y2="5" style="visibility: inherit;" fill="rgb(0, 0, 0)" stroke="rgb(204, 204, 204)" stroke-width="1px"></line><line x1="166.0875" y1="0" x2="166.0875" y2="5" style="visibility: inherit;" fill="rgb(0, 0, 0)" stroke="rgb(204, 204, 204)" stroke-width="1px"></line><line x1="184.54166666666666" y1="0" x2="184.54166666666666" y2="5" style="visibility: inherit;" fill="rgb(0, 0, 0)" stroke="rgb(204, 204, 204)" stroke-width="1px"></line><line x1="202.9958333333333" y1="0" x2="202.9958333333333" y2="5" style="visibility: inherit;" fill="rgb(0, 0, 0)" stroke="rgb(204, 204, 204)" stroke-width="1px"></line><line x1="221.45000000000002" y1="0" x2="221.45000000000002" y2="5" style="visibility: inherit;" fill="rgb(0, 0, 0)" stroke="rgb(204, 204, 204)" stroke-width="1px"></line><line x1="239.90416666666667" y1="0" x2="239.90416666666667" y2="5" style="visibility: inherit;" fill="rgb(0, 0, 0)" stroke="rgb(204, 204, 204)" stroke-width="1px"></line><line x1="258.35833333333335" y1="0" x2="258.35833333333335" y2="5" style="visibility: inherit;" fill="rgb(0, 0, 0)" stroke="rgb(204, 204, 204)" stroke-width="1px"></line><line x1="276.8125" y1="0" x2="276.8125" y2="5" style="visibility: inherit;" fill="rgb(0, 0, 0)" stroke="rgb(204, 204, 204)" stroke-width="1px"></line></g><g transform="translate(0, 8)"><text x="0" y="0" dx="0em" dy="0.95em" style="text-anchor: middle; visibility: hidden; font-family: &quot;Helvetica Neue&quot;, sans-serif; font-size: 12px; font-weight: 200;" fill="rgb(50, 49, 63)" stroke="none" stroke-width="1px">-2k</text><text x="18.454166666666666" y="0" dx="0em" dy="0.95em" style="text-anchor: middle; visibility: inherit; font-family: &quot;Helvetica Neue&quot;, sans-serif; font-size: 12px; font-weight: 200;" fill="rgb(50, 49, 63)" stroke="none" stroke-width="1px">0</text><text x="36.90833333333333" y="0" dx="0em" dy="0.95em" style="text-anchor: middle; visibility: hidden; font-family: &quot;Helvetica Neue&quot;, sans-serif; font-size: 12px; font-weight: 200;" fill="rgb(50, 49, 63)" stroke="none" stroke-width="1px">2k</text><text x="55.362500000000004" y="0" dx="0em" dy="0.95em" style="text-anchor: middle; visibility: inherit; font-family: &quot;Helvetica Neue&quot;, sans-serif; font-size: 12px; font-weight: 200;" fill="rgb(50, 49, 63)" stroke="none" stroke-width="1px">4k</text><text x="73.81666666666666" y="0" dx="0em" dy="0.95em" style="text-anchor: middle; visibility: hidden; font-family: &quot;Helvetica Neue&quot;, sans-serif; font-size: 12px; font-weight: 200;" fill="rgb(50, 49, 63)" stroke="none" stroke-width="1px">6k</text><text x="92.27083333333333" y="0" dx="0em" dy="0.95em" style="text-anchor: middle; visibility: inherit; font-family: &quot;Helvetica Neue&quot;, sans-serif; font-size: 12px; font-weight: 200;" fill="rgb(50, 49, 63)" stroke="none" stroke-width="1px">8k</text><text x="110.72500000000001" y="0" dx="0em" dy="0.95em" style="text-anchor: middle; visibility: hidden; font-family: &quot;Helvetica Neue&quot;, sans-serif; font-size: 12px; font-weight: 200;" fill="rgb(50, 49, 63)" stroke="none" stroke-width="1px">10k</text><text x="129.17916666666667" y="0" dx="0em" dy="0.95em" style="text-anchor: middle; visibility: inherit; font-family: &quot;Helvetica Neue&quot;, sans-serif; font-size: 12px; font-weight: 200;" fill="rgb(50, 49, 63)" stroke="none" stroke-width="1px">12k</text><text x="147.63333333333333" y="0" dx="0em" dy="0.95em" style="text-anchor: middle; visibility: hidden; font-family: &quot;Helvetica Neue&quot;, sans-serif; font-size: 12px; font-weight: 200;" fill="rgb(50, 49, 63)" stroke="none" stroke-width="1px">14k</text><text x="166.0875" y="0" dx="0em" dy="0.95em" style="text-anchor: middle; visibility: inherit; font-family: &quot;Helvetica Neue&quot;, sans-serif; font-size: 12px; font-weight: 200;" fill="rgb(50, 49, 63)" stroke="none" stroke-width="1px">16k</text><text x="184.54166666666666" y="0" dx="0em" dy="0.95em" style="text-anchor: middle; visibility: hidden; font-family: &quot;Helvetica Neue&quot;, sans-serif; font-size: 12px; font-weight: 200;" fill="rgb(50, 49, 63)" stroke="none" stroke-width="1px">18k</text><text x="202.9958333333333" y="0" dx="0em" dy="0.95em" style="text-anchor: middle; visibility: inherit; font-family: &quot;Helvetica Neue&quot;, sans-serif; font-size: 12px; font-weight: 200;" fill="rgb(50, 49, 63)" stroke="none" stroke-width="1px">20k</text><text x="221.45000000000002" y="0" dx="0em" dy="0.95em" style="text-anchor: middle; visibility: hidden; font-family: &quot;Helvetica Neue&quot;, sans-serif; font-size: 12px; font-weight: 200;" fill="rgb(50, 49, 63)" stroke="none" stroke-width="1px">22k</text><text x="239.90416666666667" y="0" dx="0em" dy="0.95em" style="text-anchor: middle; visibility: inherit; font-family: &quot;Helvetica Neue&quot;, sans-serif; font-size: 12px; font-weight: 200;" fill="rgb(50, 49, 63)" stroke="none" stroke-width="1px">24k</text><text x="258.35833333333335" y="0" dx="0em" dy="0.95em" style="text-anchor: middle; visibility: hidden; font-family: &quot;Helvetica Neue&quot;, sans-serif; font-size: 12px; font-weight: 200;" fill="rgb(50, 49, 63)" stroke="none" stroke-width="1px">26k</text><text x="276.8125" y="0" dx="0em" dy="0.95em" style="text-anchor: middle; visibility: hidden; font-family: &quot;Helvetica Neue&quot;, sans-serif; font-size: 12px; font-weight: 200;" fill="rgb(50, 49, 63)" stroke="none" stroke-width="1px">28k</text></g><line x1="0" y1="0" x2="276.8125" y2="0" fill="rgb(0, 0, 0)" stroke="rgb(204, 204, 204)" stroke-width="1px"></line></g></g></g></g></svg>