<svg viewBox="0 0 330 200" xmlns="http://www.w3.org/2000/svg"><g><g><g><g><g><line x1="53.1875" y1="177" x2="48.1875" y2="177" style="visibility: inherit;" fill="rgb(0, 0, 0)" stroke="rgb(204, 204, 204)" stroke-width="1px"></line><line x1="53.1875" y1="154.87500000000003" x2="48.1875" y2="154.87500000000003" style="visibility: inherit;" fill="rgb(0, 0, 0)" stroke="rgb(204, 204, 204)" stroke-width="1px"></line><line x1="53.1875" y1="132.75" x2="48.1875" y2="132.75" style="visibility: inherit;" fill="rgb(0, 0, 0)" stroke="rgb(204, 204, 204)" stroke-width="1px"></line><line x1="53.1875" y1="110.62499999999999" x2="48.1875" y2="110.62499999999999" style="visibility: inherit;" fill="rgb(0, 0, 0)" stroke="rgb(204, 204, 204)" stroke-width="1px"></line><line x1="53.1875" y1="88.50000000000001" x2="48.1875" y2="88.50000000000001" style="visibility: inherit;" fill="rgb(0, 0, 0)" stroke="rgb(204, 204, 204)" stroke-width="1px"></line><line x1="53.1875" y1="66.375" x2="48.1875" y2="66.375" style="visibility: inherit;" fill="rgb(0, 0, 0)" stroke="rgb(204, 204, 204)" stroke-width="1px"></line><line x1="53.1875" y1="44.25000000000003" x2="48.1875" y2="44.25000000000003" style="visibility: inherit;" fill="rgb(0, 0, 0)" stroke="rgb(204, 204, 204)" stroke-width="1px"></line><line x1="53.1875" y1="22.12500000000003" x2="48.1875" y2="22.12500000000003" style="visibility: inherit;" fill="rgb(0, 0, 0)" stroke="rgb(204, 204, 204)" stroke-width="1px"></line><line x1="53.1875" y1="0" x2="48.1875" y2="0" style="visibility: inherit;" fill="rgb(0, 0, 0)" stroke="rgb(204, 204, 204)" stroke-width="1px"></line></g><g transform="translate(43.1875, 0)"><text x="0" y="177" dx="0em" dy="0.3em" style="text-anchor: end; visibility: hidden; font-family: &quot;Helvetica Neue&quot;, sans-serif; font-size: 12px; font-weight: 200;" fill="rgb(50, 49, 63)" stroke="none" stroke-width="1px">0.65</text><text x="0" y="154.87500000000003" dx="0em" dy="0.3em" style="text-anchor: end; visibility: inherit; font-family: &quot;Helvetica Neue&quot;, sans-serif; font-size: 12px; font-weight: 200;" fill="rgb(50, 49, 63)" stroke="none" stroke-width="1px">0.7</text><text x="0" y="132.75" dx="0em" dy="0.3em" style="text-anchor: end; visibility: hidden; font-family: &quot;Helvetica Neue&quot;, sans-serif; font-size: 12px; font-weight: 200;" fill="rgb(50, 49, 63)" stroke="none" stroke-width="1px">0.75</text><text x="0" y="110.62499999999999" dx="0em" dy="0.3em" style="text-anchor: end; visibility: inherit; font-family: &quot;Helvetica Neue&quot;, sans-serif; font-size: 12px; font-weight: 200;" fill="rgb(50, 49, 63)" stroke="none" stroke-width="1px">0.8</text><text x="0" y="88.50000000000001" dx="0em" dy="0.3em" style="text-anchor: end; visibility: hidden; font-family: &quot;Helvetica Neue&quot;, sans-serif; font-size: 12px; font-weight: 200;" fill="rgb(50, 49, 63)" stroke="none" stroke-width="1px">0.85</text><text x="0" y="66.375" dx="0em" dy="0.3em" style="text-anchor: end; visibility: inherit; font-family: &quot;Helvetica Neue&quot;, sans-serif; font-size: 12px; font-weight: 200;" fill="rgb(50, 49, 63)" stroke="none" stroke-width="1px">0.9</text><text x="0" y="44.25000000000003" dx="0em" dy="0.3em" style="text-anchor: end; visibility: hidden; font-family: &quot;Helvetica Neue&quot;, sans-serif; font-size: 12px; font-weight: 200;" fill="rgb(50, 49, 63)" stroke="none" stroke-width="1px">0.95</text><text x="0" y="22.12500000000003" dx="0em" dy="0.3em" style="text-anchor: end; visibility: inherit; font-family: &quot;Helvetica Neue&quot;, sans-serif; font-size: 12px; font-weight: 200;" fill="rgb(50, 49, 63)" stroke="none" stroke-width="1px">1</text><text x="0" y="0" dx="0em" dy="0.3em" style="text-anchor: end; visibility: hidden; font-family: &quot;Helvetica Neue&quot;, sans-serif; font-size: 12px; font-weight: 200;" fill="rgb(50, 49, 63)" stroke="none" stroke-width="1px">1.05</text></g><line x1="53.1875" y1="0" x2="53.1875" y2="177" fill="rgb(0, 0, 0)" stroke="rgb(204, 204, 204)" stroke-width="1px"></line></g></g><g transform="translate(53, 0)" clip-path="url(#clip_0)"><clipPath id="clip_0"><rect width="276" height="177"></rect></clipPath><g><g><g><line x1="0" y1="0" x2="0" y2="177" fill="rgb(0, 0, 0)" stroke="rgb(60, 60, 60)" stroke-width="1px" opacity="0.25"></line><line x1="18.454166666666666" y1="0" x2="18.454166666666666" y2="177" fill="rgb(0, 0, 0)" stroke="rgb(60, 60, 60)" stroke-width="1px" opacity="0.25"></line><line x1="36.90833333333333" y1="0" x2="36.90833333333333" y2="177" fill="rgb(0, 0, 0)" stroke="rgb(60, 60, 60)" stroke-width="1px" opacity="0.25"></line><line x1="55.362500000000004" y1="0" x2="55.362500000000004" y2="177" fill="rgb(0, 0, 0)" stroke="rgb(60, 60, 60)" stroke-width="1px" opacity="0.25"></line><line x1="73.81666666666666" y1="0" x2="73.81666666666666" y2="177" fill="rgb(0, 0, 0)" stroke="rgb(60, 60, 60)" stroke-width="1px" opacity="0.25"></line><line x1="92.27083333333333" y1="0" x2="92.27083333333333" y2="177" fill="rgb(0, 0, 0)" stroke="rgb(60, 60, 60)" stroke-width="1px" opacity="0.25"></line><line x1="110.72500000000001" y1="0" x2="110.72500000000001" y2="177" fill="rgb(0, 0, 0)" stroke="rgb(60, 60, 60)" stroke-width="1px" opacity="0.25"></line><line x1="129.17916666666667" y1="0" x2="129.17916666666667" y2="177" fill="rgb(0, 0, 0)" stroke="rgb(60, 60, 60)" stroke-width="1px" opacity="0.25"></line><line x1="147.63333333333333" y1="0" x2="147.63333333333333" y2="177" fill="rgb(0, 0, 0)" stroke="rgb(60, 60, 60)" stroke-width="1px" opacity="0.25"></line><line x1="166.0875" y1="0" x2="166.0875" y2="177" fill="rgb(0, 0, 0)" stroke="rgb(60, 60, 60)" stroke-width="1px" opacity="0.25"></line><line x1="184.54166666666666" y1="0" x2="184.54166666666666" y2="177" fill="rgb(0, 0, 0)" stroke="rgb(60, 60, 60)" stroke-width="1px" opacity="0.25"></line><line x1="202.9958333333333" y1="0" x2="202.9958333333333" y2="177" fill="rgb(0, 0, 0)" stroke="rgb(60, 60, 60)" stroke-width="1px" opacity="0.25"></line><line x1="221.45000000000002" y1="0" x2="221.45000000000002" y2="177" fill="rgb(0, 0, 0)" stroke="rgb(60, 60, 60)" stroke-width="1px" opacity="0.25"></line><line x1="239.90416666666667" y1="0" x2="239.90416666666667" y2="177" fill="rgb(0, 0, 0)" stroke="rgb(60, 60, 60)" stroke-width="1px" opacity="0.25"></line><line x1="258.35833333333335" y1="0" x2="258.35833333333335" y2="177" fill="rgb(0, 0, 0)" stroke="rgb(60, 60, 60)" stroke-width="1px" opacity="0.25"></line><line x1="276.8125" y1="0" x2="276.8125" y2="177" fill="rgb(0, 0, 0)" stroke="rgb(60, 60, 60)" stroke-width="1px" opacity="0.25"></line></g><g><line x1="0" y1="177" x2="276.8125" y2="177" fill="rgb(0, 0, 0)" stroke="rgb(60, 60, 60)" stroke-width="1px" opacity="0.25"></line><line x1="0" y1="154.87500000000003" x2="276.8125" y2="154.87500000000003" fill="rgb(0, 0, 0)" stroke="rgb(60, 60, 60)" stroke-width="1px" opacity="0.25"></line><line x1="0" y1="132.75" x2="276.8125" y2="132.75" fill="rgb(0, 0, 0)" stroke="rgb(60, 60, 60)" stroke-width="1px" opacity="0.25"></line><line x1="0" y1="110.62499999999999" x2="276.8125" y2="110.62499999999999" fill="rgb(0, 0, 0)" stroke="rgb(60, 60, 60)" stroke-width="1px" opacity="0.25"></line><line x1="0" y1="88.50000000000001" x2="276.8125" y2="88.50000000000001" fill="rgb(0, 0, 0)" stroke="rgb(60, 60, 60)" stroke-width="1px" opacity="0.25"></line><line x1="0" y1="66.375" x2="276.8125" y2="66.375" fill="rgb(0, 0, 0)" stroke="rgb(60, 60, 60)" stroke-width="1px" opacity="0.25"></line><line x1="0" y1="44.25000000000003" x2="276.8125" y2="44.25000000000003" fill="rgb(0, 0, 0)" stroke="rgb(60, 60, 60)" stroke-width="1px" opacity="0.25"></line><line x1="0" y1="22.12500000000003" x2="276.8125" y2="22.12500000000003" fill="rgb(0, 0, 0)" stroke="rgb(60, 60, 60)" stroke-width="1px" opacity="0.25"></line><line x1="0" y1="0" x2="276.8125" y2="0" fill="rgb(0, 0, 0)" stroke="rgb(60, 60, 60)" stroke-width="1px" opacity="0.25"></line></g></g></g><g><g><line x1="0" y1="464.625" x2="276.8125" y2="464.625" fill="rgb(0, 0, 0)" stroke="rgb(153, 153, 153)" stroke-width="1.5px"></line></g></g><g><g><line x1="18.454166666666666" y1="0" x2="18.454166666666666" y2="177" fill="rgb(0, 0, 0)" stroke="rgb(153, 153, 153)" stroke-width="1.5px"></line></g></g><g><g><g><g><g><path stroke="rgb(255, 112, 67)" stroke-width="2px" d="M22.145,211.0699438397937L23.067708333333332,157.55484317277228L23.99041666666667,172.74610730331835L24.913125,135.07662317459693L25.835833333333333,124.22634533105057L26.758541666666666,108.87794966893092L27.681250000000002,109.80451152243413L28.603958333333335,113.55365779155778L29.526666666666667,156.88059950949605L30.449375,137.59901672880798L31.372083333333332,153.80835998852342L32.29479166666667,125.52369659431736L33.2175,112.61691939082047L34.140208333333334,95.22477436809532L35.062916666666666,91.41318529448986L35.985625,70.8238716938341L36.90833333333333,77.36355418383705L37.831041666666664,102.01147463835788L38.753750000000004,111.83677917483176L39.676458333333336,84.96220716456763L40.59916666666667,104.44552799013839L41.521875,82.28528157430434L42.44458333333333,95.74101628325042L43.36729166666667,91.75121827340546L44.29,111.44497691645203L45.21270833333333,80.48612279461796L46.135416666666664,64.42186059321581L47.058125000000004,75.06389006730116L47.98083333333334,129.07622547120724L48.90354166666667,90.43880097644956L49.82625,87.84143517072341L50.74895833333333,87.08151527323508L51.67166666666667,66.26684783732271L52.594375,55.10591550616715L53.51708333333333,63.3265599910588L54.439791666666665,56.8670116461948L55.362500000000004,59.742336765654045L56.28520833333334,51.42969217571114L57.20791666666667,46.58515317607734L58.130624999999995,42.06633364647573L59.053333333333335,55.44792963194185L59.97604166666667,63.06570010936365L60.89875,62.56433375806135L61.82145833333333,66.97350802515862L62.744166666666665,74.26891373707292L63.666875000000005,65.36844791825602L64.58958333333334,93.87349395689156L65.51229166666667,94.6515861435975L66.435,97.55930512454435L67.35770833333333,82.3876723367088L68.28041666666667,96.4839908670402L69.203125,73.73161988203385L70.12583333333333,94.96715815511939L71.04854166666667,110.74285738258482L71.97125,86.74911384933225L72.89395833333333,68.17838222475517L73.81666666666666,52.04753408844199L74.73937500000001,57.21710524567932L75.66208333333333,68.52680735355025L76.58479166666667,62.15713082888955L77.50750000000001,54.964107544059885L78.43020833333333,75.55626280953618L79.35291666666667,73.39746853023844L80.27562499999999,57.20568732208059L81.19833333333334,45.08355719915656L82.12104166666667,40.82358699483649L83.04375,131.1346493807017L83.96645833333334,117.38918794671167L84.88916666666665,99.11100279974622L85.811875,84.33341316990659L86.73458333333333,87.24285738833314L87.65729166666667,66.50756617288327L88.58,55.44284228027185L89.50270833333333,66.38836282217696L90.42541666666666,60.61938657596231L91.34812500000001,52.644057811704386L92.27083333333333,53.12068408811518L93.19354166666666,55.479464900996845L94.11625000000001,61.780511935059195L95.03895833333333,54.95730236739158L95.96166666666667,44.70088715297129L96.88437499999999,38.473419969929125L97.80708333333334,41.11390053370769L98.72979166666667,38.83608952247607L99.6525,40.49156225373454L100.57520833333334,33.85614599376987L101.49791666666665,38.063876161516134L102.420625,51.2094008860233L103.34333333333333,58.95408997161647L104.26604166666667,55.71206107868829L105.18875,81.4817307659035L106.11145833333335,119.99584787297519L107.03416666666666,83.65461641078156L107.956875,63.086445626765254L108.87958333333333,69.4300332410036L109.80229166666666,73.2875011171638L110.72500000000001,76.62401523624293L111.64770833333333,83.4026888754036L112.57041666666667,61.36976077235137L113.49312499999999,50.095438540437215L114.41583333333334,48.23704859045645L115.33854166666667,40.69067893283068L116.26124999999999,40.75676932249368L117.18395833333334,50.06898570247827L118.10666666666667,42.276313270260914L119.029375,37.47070188828113L119.95208333333333,33.79749710266475L120.87479166666667,37.35476196351459L121.7975,61.51584742392784L122.72020833333335,47.574555360827986L123.64291666666666,44.59435316536073L124.565625,40.18842320807721L125.48833333333333,38.54069237213102L126.41104166666666,98.87133556783658L127.33375000000001,77.55300536263263L128.25645833333334,57.831507805039124L129.17916666666667,46.03359314385037L130.101875,43.074923387664484L131.02458333333334,80.75507407873748L131.94729166666667,81.51758182936837L132.87,148.17447608646114L133.79270833333334,101.04220969639042L134.71541666666667,71.27362983919274L135.638125,60.46753492055589L136.56083333333333,47.465557349313826L137.48354166666667,40.062729091995664L138.40625,34.984813053341895L139.32895833333333,31.738646911938275L140.25166666666667,30.38284566841085L141.174375,46.85822423006033L142.09708333333333,50.75243140283189L143.0197916666667,47.94553506984096L143.9425,53.53951993354427L144.86520833333333,90.37320940952456L145.78791666666666,66.21701988733385L146.710625,52.077417666653204L147.63333333333333,43.578063401543744L148.55604166666666,39.634395666696804L149.47875000000002,35.80700641142025L150.40145833333332,41.82617414752656L151.32416666666666,39.061979918241605L152.24687500000002,36.29271485123641L153.16958333333335,35.33353408404358L154.09229166666665,42.48698238270384L155.01500000000001,37.18606394372523L155.93770833333335,39.13896374608365L156.86041666666665,56.346906058223766L157.78312499999998,49.11494707598196L158.70583333333335,66.32949853857698L159.62854166666668,58.331015830757295L160.55124999999998,45.334738365126896L161.47395833333334,37.10904188830449L162.39666666666668,32.23191287445306L163.31937499999998,29.155814601941557L164.24208333333334,32.45598168013311L165.16479166666667,31.450541715847322L166.0875,28.204149044172084L167.01020833333334,34.14528238571651L167.93291666666667,91.20110657094102L168.855625,108.09789742397183L169.7783333333333,102.91240239958115L170.70104166666667,76.27340609324068L171.62375,102.06364381606636L172.54645833333333,77.77619841274776L173.46916666666667,63.0960892950127L174.391875,49.703258509315845L175.31458333333333,40.72602331333027L176.2372916666667,45.07375505979462L177.16,39.498267194125646L178.08270833333333,35.054580021198745L179.00541666666666,37.52860224741468L179.928125,34.562277749167464L180.85083333333333,31.24519712626136L181.77354166666666,82.59417261421203L182.69625000000002,61.111687491771704L183.61895833333332,61.04128565218279L184.54166666666666,51.94990022078892L185.46437500000002,44.35341447052801L186.38708333333332,45.31517854605585L187.30979166666665,48.62944023176712L188.23250000000002,39.562439157752294L189.15520833333335,35.55829697500954L190.07791666666665,37.262829778500134L191.00062499999999,33.77788370722996L191.92333333333335,33.15280998870415L192.84604166666665,32.169092781094804L193.76874999999998,31.996495632379123L194.69145833333334,40.15744487526942L195.61416666666668,33.63906983186561L196.53687499999998,29.617332873641004L197.45958333333334,30.77216048115409L198.38229166666667,32.06001499339291L199.305,40.744621843363944L200.22770833333334,36.262605875889165L201.15041666666667,33.63199111828786L202.073125,39.89463080769528L202.9958333333333,33.825818513666064L203.91854166666667,29.613458439609076L204.84125,36.46255390936176L205.76395833333333,39.753973025644086L206.68666666666667,36.054853796103146L207.609375,32.74601862379228L208.53208333333333,37.31744022100162L209.45479166666667,31.95201037483804L210.3775,28.356654728397075L211.30020833333333,26.466610100832213L212.2229166666667,26.264308528284232L213.145625,25.813355443584925L214.06833333333333,29.107963119571224L214.99104166666666,36.25705542244003L215.91375,36.972701359257L216.83645833333333,36.314086239614994L217.75916666666666,32.979649353670396L218.68187500000002,29.58065563955745L219.60458333333332,26.819690647833596L220.52729166666666,33.44955268091741L221.45000000000002,34.064386597793L222.37270833333335,35.94274191350979L223.29541666666665,31.001371826477282L224.21812500000001,28.154150870887946L225.14083333333335,29.223512522845567L226.06354166666665,35.46309785394021L226.98624999999998,31.035550965953774L227.90895833333335,28.11249762421184L228.83166666666668,28.362072620662076L229.75437499999998,35.75923971764564L230.67708333333334,34.02780263681606L231.59979166666668,30.911662131901977L232.52249999999998,28.02190673968576L233.44520833333334,25.861663810142176L234.36791666666667,27.85268339617747L235.290625,26.622330362222755L236.21333333333334,26.857242032660366L237.13604166666667,29.735814276202518L238.05875,28.112914146699893L238.9814583333333,27.144143129419348L239.90416666666667,27.655715110916532L240.826875,25.915574206720947L241.74958333333333,26.327234467155478L242.67229166666667,33.074911606482715L243.595,30.16047163735155L244.51770833333333,30.430132388653305L245.4404166666667,30.20206332181806L246.363125,28.733334338515505L247.28583333333333,40.72237488976094L248.20854166666666,35.304714222854216L249.13125,38.415074312749994L250.05395833333333,34.89239181522342L250.97666666666666,32.31267178919208L251.89937500000002,34.17896408358985L252.82208333333332,40.36957594466082L253.74479166666666,47.94659101195262L254.66750000000002,39.964912529153395L255.59020833333332,37.495296153642386L256.5129166666667,39.4493625838862L257.435625,34.2459598707739L258.35833333333335,31.336669989084214L259.2810416666667,29.366654889377998" style="fill: none;" fill="none"></path></g><g><path stroke="rgb(0, 119, 187)" stroke-width="2px" d="M19.376875000000002,207.9036101102829L20.299583333333334,136.0470962114632L21.222291666666663,98.55515525170732L22.145,102.91179423012275L23.067708333333332,86.03304014484719L23.99041666666667,109.70954169069687L24.913125,108.95982262248154L25.835833333333333,84.20506663114483L26.758541666666666,129.1509139004351L27.681250000000002,133.03635887022165L28.603958333333335,220.86389188798086L29.526666666666667,218.05853668071805L30.449375,165.62692042687314L31.372083333333332,111.84834831238463L32.29479166666667,100.98477809396823L33.2175,126.96297050853701L34.140208333333334,106.87191597884917L35.062916666666666,88.8856092738257L35.985625,105.74621954297852L36.90833333333333,113.37590387667127L37.831041666666664,84.77254536825342L38.753750000000004,77.19061517901876L39.676458333333336,101.68060176451813L40.59916666666667,89.90897047998955L41.521875,67.35475287763653L42.44458333333333,75.08278860810098L43.36729166666667,68.33554638369206L44.29,56.96179310756479L45.21270833333333,68.21348543060178L46.135416666666664,75.85138597716364L47.058125000000004,136.52350464361058L47.98083333333334,119.48912142185537L48.90354166666667,228.50834544223724L49.82625,159.34246640950897L50.74895833333333,119.82328494532297L51.67166666666667,85.6044607575454L52.594375,63.016302494432L53.51708333333333,136.73181946721752L54.439791666666665,108.12749016854343L55.362500000000004,87.96672403843242L56.28520833333334,88.22425589600614L57.20791666666667,91.80619234996199L58.130624999999995,91.43672633850134L59.053333333333335,79.87470134703824L59.97604166666667,64.33661246500931L60.89875,203.06770564111554L62.744166666666665,189.78123892632394L63.666875000000005,131.58263984415373L64.58958333333334,182.76179423429272L65.51229166666667,148.9640303639782L66.435,119.81168513219295L67.35770833333333,162.98745227297175L68.28041666666667,154.88361858390934L69.203125,107.37311767970417L70.12583333333333,77.49481840987802L71.04854166666667,66.550455391761L71.97125,50.582923865528514L72.89395833333333,44.59897079241918L73.81666666666666,38.21695759399293L74.73937500000001,66.15226269068539L75.66208333333333,87.56324140013626L76.58479166666667,98.06497015822765L77.50750000000001,82.22803088586822L78.43020833333333,86.86169426775753L79.35291666666667,65.24525098286131L80.27562499999999,72.20217185188571L81.19833333333334,59.57909609657075L82.12104166666667,71.93635244239297L83.04375,105.96282056015089L83.96645833333334,76.48009298468443L84.88916666666665,61.36311098471175L85.811875,56.73591590246488L86.73458333333333,76.33946628761848L87.65729166666667,85.5614887916598L88.58,108.1653343941899L89.50270833333333,121.74803494847609L90.42541666666666,105.3439241375732L91.34812500000001,79.6097905234222L92.27083333333333,65.57873001073148L93.19354166666666,61.870741882171274L94.11625000000001,60.98880857124689L95.03895833333333,68.12235120472171L95.96166666666667,57.41794275961432L96.88437499999999,120.76381780935591L97.80708333333334,83.5591273560123L98.72979166666667,64.99539146745181L99.6525,105.11576173260197L100.57520833333334,75.94175847503178L101.49791666666665,97.19765250761887L102.420625,81.27574348973978L103.34333333333333,90.13871670083851L104.26604166666667,70.42760703752433L105.18875,136.73707425469155L106.11145833333335,106.064779972279L107.03416666666666,87.07297591879599L107.956875,92.28809097119945L108.87958333333333,85.19638296788206L109.80229166666666,64.23303492561145L110.72500000000001,55.31895383414724L111.64770833333333,52.81477004419027L112.57041666666667,86.91102007705129L113.49312499999999,81.38033089445928L114.41583333333334,77.2064266407901L115.33854166666667,122.90213897254552L116.26124999999999,113.86104256168893L117.18395833333334,80.22413799915252L118.10666666666667,75.41826215835533L119.029375,94.00850488812995L119.95208333333333,110.54647451681656L120.87479166666667,82.99608410622339L121.7975,73.36120717063945L122.72020833333335,77.98069327077509L123.64291666666666,77.03161367774749L124.565625,60.39959898591488L125.48833333333333,48.20104531646038L126.41104166666666,77.09176235318341L127.33375000000001,101.30935406041239L128.25645833333334,79.81242752881109L129.17916666666667,71.03585930354154L130.101875,66.17661117128583L131.02458333333334,57.89027812845738L131.94729166666667,90.89416914443514L132.87,69.63012063062394L133.79270833333334,91.28237163756016L134.71541666666667,71.7079666956289L135.638125,55.3195415916457L136.56083333333333,56.049263631249346L137.48354166666667,44.99270004924827L138.40625,46.25360720692095L139.32895833333333,50.43349653087863L140.25166666666667,46.587383899705486L141.174375,112.19629610396434L142.09708333333333,84.83145583162909L143.0197916666667,99.23849251562476L143.9425,83.85581983741598L144.86520833333333,88.49491661558432L145.78791666666666,72.27641333204438L146.710625,70.84742972291664L147.63333333333333,63.06861314199661L148.55604166666666,51.177796894444754L149.47875000000002,145.15081041105609L150.40145833333332,137.54715710310947L151.32416666666666,125.7755863990117L152.24687500000002,92.03738778386887L153.16958333333335,68.17194971772653L154.09229166666665,69.69434690077678L155.01500000000001,115.7847101545309L155.93770833333335,80.20665309762806L156.86041666666665,61.91272096595678L157.78312499999998,84.12806059575982L158.70583333333335,97.41083372626845L159.62854166666668,85.06170359250392L160.55124999999998,75.51766063568878L161.47395833333334,56.43035979150473L162.39666666666668,49.94278804706775L163.31937499999998,45.788899852319076L164.24208333333334,44.25425574391096L165.16479166666667,51.78700155740387L166.0875,46.68074555829409L167.01020833333334,57.88648768445995L167.93291666666667,50.277696252948886L168.855625,80.96730372970514L169.7783333333333,83.3698271373821L170.70104166666667,71.60655368923622L171.62375,85.37464979624437L172.54645833333333,65.22910868725593L173.46916666666667,83.54663128615269L174.391875,68.75164586878331L175.31458333333333,54.08157416925734L176.2372916666667,64.13487884250821L177.16,116.16297470836366L178.08270833333333,113.15666820590809L179.00541666666666,87.2652531384535L179.928125,82.6953902434771L180.85083333333333,80.16438854881913L181.77354166666666,81.0271596261787L182.69625000000002,64.116175171669L183.61895833333332,82.63780317123872L184.54166666666666,61.27791736970032L185.46437500000002,64.86847299605421L186.38708333333332,113.35513808888084L187.30979166666665,89.98820712901286L188.23250000000002,120.30513898573601L189.15520833333335,87.45035589958601L190.07791666666665,67.11696539655547L191.00062499999999,62.865075113387235L191.92333333333335,52.688954652554614L192.84604166666665,43.95544066501071L193.76874999999998,44.16051519198663L194.69145833333334,45.95255230834155L195.61416666666668,45.044233268320994L196.53687499999998,38.912013426912125L197.45958333333334,63.022463152105985L198.38229166666667,50.025326841649644L199.305,51.87972449873524L200.22770833333334,64.13074940213346L201.15041666666667,60.35485735993855L202.073125,66.51359920180603L202.9958333333333,55.34608918712597L203.91854166666667,54.11979975870885L204.84125,73.7357467327812L205.76395833333333,62.69674733366361L206.68666666666667,61.109780556474874L207.609375,129.68086424262216L208.53208333333333,160.8032827901297L209.45479166666667,117.84135245844445L210.3775,102.05168920495942L211.30020833333333,87.05304511629842L212.2229166666667,79.58730437900604L213.145625,62.78193148699985L214.06833333333333,79.27027832703347L214.99104166666666,64.78446410439344L215.91375,54.54189021791177L216.83645833333333,52.335924598009356L217.75916666666666,53.25230482365549L218.68187500000002,47.76232969251788L219.60458333333332,53.400710746571534L220.52729166666666,64.44749700124568L221.45000000000002,99.73107464966478L222.37270833333335,79.91215922747439L223.29541666666665,62.895419325318244L224.21812500000001,60.22322904222388L225.14083333333335,76.08989695997941L226.06354166666665,126.67055217201653L226.98624999999998,94.8092944847056L227.90895833333335,83.61789584317854L228.83166666666668,88.06957987641722L229.75437499999998,65.23793741283077L230.67708333333334,52.420786084039605L231.59979166666668,48.56355042535279L232.52249999999998,42.28829817341699L233.44520833333334,76.2663995764669L234.36791666666667,79.4901679242859L235.290625,115.89806103022156L236.21333333333334,86.55703299827137L237.13604166666667,129.44995665303924L238.05875,120.63860839457547L238.9814583333333,118.80113972336792L239.90416666666667,86.89878677791805L240.826875,85.2205206839231L241.74958333333333,73.17801633405611L242.67229166666667,108.72187086896855L243.595,83.39747330520608L244.51770833333333,71.53648350819385L245.4404166666667,79.88908112159038L246.363125,120.84264496630831L247.28583333333333,142.99801585475444L248.20854166666666,103.14871968865299L249.13125,82.2338818194861L250.05395833333333,69.80460579886405L250.97666666666666,89.02007032450658L251.89937500000002,67.54604187617679L252.82208333333332,52.56869031792867L253.74479166666666,93.59269696358439L254.66750000000002,74.74219139744999L255.59020833333332,60.81701232391693L256.5129166666667,63.41571855186284L257.435625,57.192285917036884L258.35833333333335,48.8750540744264L259.2810416666667,81.33218730276822" style="fill: none;" fill="none"></path></g></g></g></g><g opacity="0.2"><g><g><g><path stroke="rgb(255, 112, 67)" stroke-width="2px" d="M20.299583333333334,198.26373839378357L21.222291666666663,134.91581404209137L22.145,249.0854104757309L23.067708333333332,87.68552774190904L23.99041666666667,193.76109445095062L24.913125,81.20865815877916L25.835833333333333,108.40653607249261L26.758541666666666,86.24204733967782L27.681250000000002,111.1803478896618L28.603958333333335,119.1433727145195L29.526666666666667,221.63522878289223L30.449375,108.73960027098657L31.372083333333332,178.09061908721924L32.29479166666667,83.12994906306268L33.2175,93.26585644483568L34.140208333333334,69.14391660690309L35.062916666666666,85.69676944613458L35.985625,39.94303786754611L36.90833333333333,87.17248016595842L37.831041666666664,138.98200356960297L38.753750000000004,126.57441267371178L39.676458333333336,44.650879740715055L40.59916666666667,133.67027842998505L41.521875,49.04506945610048L42.44458333333333,115.92456096410751L43.36729166666667,85.76653146743776L44.29,140.9855846464634L45.21270833333333,34.047870129346876L46.135416666666664,40.32547616958621L47.058125000000004,91.02693074941637L47.98083333333334,210.09471783041954L48.90354166666667,32.482668846845655L49.82625,83.94538664817811L50.74895833333333,85.9416354596615L51.67166666666667,35.04484722018245L52.594375,38.36451718211177L53.51708333333333,75.65752664208414L54.439791666666665,47.177689164876966L55.362500000000004,64.05532443523408L56.28520833333334,38.96072530746463L57.20791666666667,39.31834468245509L58.130624999999995,35.288104355335264L59.053333333333335,75.52032360434534L59.97604166666667,74.49235582351686L60.89875,61.81228423118593L61.82145833333333,73.58726942539217L62.744166666666665,85.21202230453493L63.666875000000005,52.01774919033052L64.58958333333334,136.63106301426888L65.51229166666667,95.81872442364694L66.435,101.92088359594347L67.35770833333333,59.63022315502168L68.28041666666667,117.62846866250038L69.203125,39.60306340456012L70.12583333333333,126.82046556472778L71.04854166666667,134.40640622377396L71.97125,50.75849854946138L72.89395833333333,40.322284787893324L73.81666666666666,27.851261883974104L74.73937500000001,64.97146198153497L75.66208333333333,85.49136051535608L76.58479166666667,52.60261604189874L77.50750000000001,44.174572616815595L78.43020833333333,106.44449570775033L79.35291666666667,70.1592771112919L80.27562499999999,32.918015509843855L81.19833333333334,26.900362014770536L82.12104166666667,34.43363168835643L83.04375,266.60124295949936L83.96645833333334,96.77099579572679L84.88916666666665,71.69372507929803L85.811875,62.16702872514726L86.73458333333333,91.60702371597291L87.65729166666667,35.404629349708586L88.58,38.84575644135478L89.50270833333333,82.80664363503458L90.42541666666666,51.96592220664026L91.34812500000001,40.681064665317564L92.27083333333333,53.83562350273134L93.19354166666666,59.01763612031938L94.11625000000001,71.23208248615266L95.03895833333333,44.72248801589015L95.96166666666667,29.316264331340818L96.88437499999999,29.132219195365934L97.80708333333334,45.074621379375486L98.72979166666667,35.419373005628614L99.6525,42.974771350622206L100.57520833333334,23.903021603822737L101.49791666666665,44.37547141313556L102.420625,70.92768797278406L103.34333333333333,70.57112360000612L104.26604166666667,50.849017739295974L105.18875,120.13623529672623L106.11145833333335,177.7670235335827L107.03416666666666,29.14276921749118L107.956875,32.23418945074084L108.87958333333333,78.94541466236116L109.80229166666666,79.07370293140413L110.72500000000001,81.6287864148617L111.64770833333333,93.5706993341446L112.57041666666667,28.320368617773084L113.49312499999999,33.183955192565946L114.41583333333334,45.44946366548541L115.33854166666667,29.371124446392088L116.26124999999999,40.85590490698817L117.18395833333334,64.03731027245523L118.10666666666667,30.58730462193492L119.029375,30.26228481531146L119.95208333333333,28.28768992424014L120.87479166666667,42.69065925478938L121.7975,97.75747561454774L122.72020833333335,26.66261726617816L123.64291666666666,40.124049872159986L124.565625,33.579528272151975L125.48833333333333,36.069096118211775L126.41104166666666,189.36730036139488L127.33375000000001,45.575510054826765L128.25645833333334,28.24926146864894L129.17916666666667,28.336721152067213L130.101875,38.63691875338557L131.02458333333334,137.2753001153469L131.94729166666667,82.66134345531465L132.87,248.15981747210026L133.79270833333334,30.343810111284284L134.71541666666667,26.620760053396253L135.638125,44.25839254260066L136.56083333333333,27.962590992450743L137.48354166666667,28.958486706018476L138.40625,27.367938995361357L139.32895833333333,26.869397699832945L140.25166666666667,28.349143803119688L141.174375,71.57129207253458L142.09708333333333,56.593742161989226L143.0197916666667,43.73519057035449L143.9425,61.93049722909929L144.86520833333333,145.6237436234951L145.78791666666666,29.982735604047804L146.710625,30.868014335632353L147.63333333333333,30.829032003879576L148.55604166666666,33.71889406442645L149.47875000000002,30.065922528505354L150.40145833333332,50.85492575168611L151.32416666666666,34.915688574314146L152.24687500000002,32.138817250728636L153.16958333333335,33.89476293325427L154.09229166666665,53.21715483069421L155.01500000000001,29.234686285257368L155.93770833333335,42.06831344962123L156.86041666666665,82.15881952643396L157.78312499999998,38.2670086026192L158.70583333333335,92.15132573246957L159.62854166666668,46.33329176902774L160.55124999999998,25.840322166681318L161.47395833333334,24.770497173070936L162.39666666666668,24.91621935367587L163.31937499999998,24.54166719317439L164.24208333333334,37.40623229742053L165.16479166666667,29.942381769418745L166.0875,23.33456003665927L167.01020833333334,43.05698239803317L167.93291666666667,176.78484284877777L168.855625,133.4430837035179L169.7783333333333,95.13415986299516L170.70104166666667,36.31491163372996L171.62375,140.7490004003048L172.54645833333333,41.345030307769804L173.46916666666667,41.07592561841014L174.391875,29.61401233077052L175.31458333333333,27.260170519351988L176.2372916666667,51.59535267949106L177.16,31.135035395622282L178.08270833333333,28.389049261808424L179.00541666666666,41.239635586738615L179.928125,30.11279100179675L180.85083333333333,26.26957619190219L181.77354166666666,159.617635846138L182.69625000000002,28.88795980811122L183.61895833333332,60.93568289279939L184.54166666666666,38.31282207369807L185.46437500000002,32.95868584513667L186.38708333333332,46.75782465934756L187.30979166666665,53.60083276033403L188.23250000000002,25.96193754673007L189.15520833333335,29.552083700895338L190.07791666666665,39.81962898373607L191.00062499999999,28.55046460032466L191.92333333333335,32.2151994109154L192.84604166666665,30.693516969680815L193.76874999999998,31.7375999093056L194.69145833333334,52.398868739604964L195.61416666666668,23.8615072667599L196.53687499999998,23.58472743630412L197.45958333333334,32.50440189242366L198.38229166666667,33.9917967617512L199.305,53.77153211832048L200.22770833333334,29.539581924676924L201.15041666666667,29.68606898188594L202.073125,49.288590341806426L202.9958333333333,24.722600072622328L203.91854166666667,23.294918328523664L204.84125,46.73619711399081L205.76395833333333,44.69110170006755L206.68666666666667,30.50617495179179L207.609375,27.782765865325956L208.53208333333333,44.174572616815595L209.45479166666667,23.903865605592756L210.3775,22.963621258735685L211.30020833333333,23.63154315948489L212.2229166666667,25.960856169462232L213.145625,25.136925816535978L214.06833333333333,34.04987463355067L214.99104166666666,46.980693876743345L215.91375,38.04617026448253L216.83645833333333,35.32616356015208L217.75916666666666,27.9779940247536L218.68187500000002,24.482165068388014L219.60458333333332,22.67824316024783L220.52729166666666,43.394345730543165L221.45000000000002,34.98663747310641L222.37270833333335,38.76027488708499L223.29541666666665,23.589316695928602L224.21812500000001,23.883319437503843L225.14083333333335,30.82755500078204L226.06354166666665,44.82247585058215L226.98624999999998,24.394230633974104L227.90895833333335,23.727917611598997L228.83166666666668,28.7364351153374L229.75437499999998,46.85499036312106L230.67708333333334,31.430647015571623L231.59979166666668,26.23745137453082L232.52249999999998,23.687273651361494L233.44520833333334,22.621299415826826L234.36791666666667,30.839212775230436L235.290625,24.77680081129077L236.21333333333334,27.209609538316755L237.13604166666667,34.05367264151576L238.05875,25.678563952446012L238.9814583333333,25.690986603498487L239.90416666666667,28.423073083162336L240.826875,23.305362850427656L241.74958333333333,26.944724857807188L242.67229166666667,43.196427315473585L243.595,25.788811683654814L244.51770833333333,30.834623515605955L245.4404166666667,29.859959721565275L246.363125,26.53024086356166L247.28583333333333,58.70593571662904L248.20854166666666,27.178223222494154L249.13125,43.08061444759372L250.05395833333333,29.608368068933515L250.97666666666666,28.443091750144987L251.89937500000002,36.97840252518657L252.82208333333332,49.655493736267104L253.74479166666666,59.31211361289026L254.66750000000002,27.992394804954557L255.59020833333332,33.79087159037593L256.5129166666667,42.38046222925189L257.435625,26.440855801105528L258.35833333333335,26.97273516654971L259.2810416666667,26.4116322398186" style="fill: none;" fill="none"></path></g><g><path stroke="rgb(0, 119, 187)" stroke-width="2px" d="M19.376875000000002,207.9036101102829L20.299583333333334,92.93318787217142L21.222291666666663,62.562891930341735L22.145,108.03520166873933L23.067708333333332,63.996138811111464L23.99041666666667,142.4626668691635L24.913125,107.88771235942842L25.835833333333333,48.112394750118284L26.758541666666666,195.43730834126472L27.681250000000002,138.80579182505608L28.603958333333335,351.8086021542549L29.526666666666667,213.86577048897743L30.449375,87.15069437026979L31.372083333333332,31.285847961902647L32.29479166666667,84.7021924853325L33.2175,165.91193729639053L34.140208333333334,76.74383604526521L35.062916666666666,61.910715937614455L35.985625,131.0345664024353L36.90833333333333,124.81973299384117L37.831041666666664,41.86907628178599L38.753750000000004,65.81796938180925L39.676458333333336,138.41509813070297L40.59916666666667,72.25166299939157L41.521875,33.52358677983287L42.44458333333333,86.67480924725534L43.36729166666667,58.21470031142236L44.29,39.901180654764204L45.21270833333333,85.09101355075838L46.135416666666664,87.308232575655L47.058125000000004,227.5316625237465L47.98083333333334,93.93754997849466L48.90354166666667,392.03716845810413L49.82625,55.59365281462671L50.74895833333333,60.54451444745065L51.67166666666667,34.276225358247785L52.594375,29.134065449237852L53.51708333333333,247.30509424209595L54.439791666666665,65.22099637985231L55.362500000000004,57.72557491064073L56.28520833333334,88.61055368185045L57.20791666666667,97.17909702658655L58.130624999999995,90.88252732157709L59.053333333333335,62.53166386485101L59.97604166666667,41.02947914600375L60.89875,411.1643453836441L61.82145833333333,229.3523589670658L62.744166666666665,154.08074685931206L63.666875000000005,44.28474122285846L64.58958333333334,259.53052581846714L65.51229166666667,98.2673845589161L66.435,76.08316728472711L67.35770833333333,227.75110298395157L68.28041666666667,142.72786805033684L69.203125,36.1073663234711L70.12583333333333,32.677369505167036L71.04854166666667,50.13391086459161L71.97125,26.631626576185255L72.89395833333333,35.62304118275645L73.81666666666666,28.643937796354322L74.73937500000001,108.05522033572198L75.66208333333333,119.6797094643116L76.58479166666667,113.81756329536438L77.50750000000001,58.47262197732927L78.43020833333333,93.81218934059144L79.35291666666667,32.820586055517225L80.27562499999999,82.63755315542222L81.19833333333334,40.64448246359828L82.12104166666667,90.47223696112634L83.04375,157.0025227367878L83.96645833333334,32.256001621484785L84.88916666666665,38.68763798475268L85.811875,49.79512327909471L86.73458333333333,105.74479186534883L87.65729166666667,99.39452254772188L88.58,142.07110279798508L89.50270833333333,142.12208577990532L90.42541666666666,80.73775792121889L91.34812500000001,41.00859010219577L92.27083333333333,44.53213924169543L93.19354166666666,56.30875968933107L94.11625000000001,59.66590860486032L95.03895833333333,78.82266515493394L95.96166666666667,41.361330091953306L96.88437499999999,215.78263038396835L97.80708333333334,27.75209167599681L98.72979166666667,37.14978763461116L99.6525,165.29631713032722L100.57520833333334,32.18075358867648L101.49791666666665,129.08149355649948L102.420625,57.39287996292116L103.34333333333333,103.43317651748659L104.26604166666667,40.860942542552976L105.18875,236.20127508044243L106.11145833333335,60.05633854866029L107.03416666666666,58.58526983857156L107.956875,100.1107635498047L108.87958333333333,74.5588209629059L109.80229166666666,32.788012862205534L110.72500000000001,41.94783219695094L111.64770833333333,49.05849435925485L112.57041666666667,138.05539512634277L113.49312499999999,73.08429712057115L114.41583333333334,70.94557026028635L115.33854166666667,191.4457074701786L116.26124999999999,100.29939794540407L117.18395833333334,29.768781155347853L118.10666666666667,68.20944839715959L119.029375,121.8938689827919L119.95208333333333,135.3534289598465L120.87479166666667,41.670498490333586L121.7975,58.90889176726343L122.72020833333335,84.90992242097856L123.64291666666666,75.60799428820611L124.565625,35.45157694816592L125.48833333333333,29.903214812278776L126.41104166666666,120.42783790826797L127.33375000000001,137.63574162125587L128.25645833333334,47.5670377314091L129.17916666666667,57.87100696563722L130.101875,58.88773897290231L131.02458333333334,45.460778564214735L131.94729166666667,140.40000566840172L132.87,37.73404785990718L133.79270833333334,123.76074814796448L134.71541666666667,42.34635928273204L135.638125,30.73690393567088L136.56083333333333,57.14384669065477L137.48354166666667,28.40785467624667L138.40625,48.144967943429975L139.32895833333333,56.7033305168152L140.25166666666667,40.81821495294574L141.174375,210.6096644103527L142.09708333333333,43.78419542312625L143.0197916666667,120.84904754161835L143.9425,60.781810820102706L144.86520833333333,95.45356178283693L145.78791666666666,47.948658406734495L146.710625,68.7039543092251L147.63333333333333,51.400388270616546L148.55604166666666,33.341572523117094L149.47875000000002,286.11033068597317L150.40145833333332,126.14167714118958L151.32416666666666,108.118230342865L152.24687500000002,41.430089861154585L153.16958333333335,32.373792618513136L154.09229166666665,71.97794267535211L155.01500000000001,184.92025503516197L155.93770833333335,26.839567512273817L156.86041666666665,34.47182276844981L157.78312499999998,117.4510700404644L158.70583333333335,117.3349934220314L159.62854166666668,66.53800839185716L160.55124999999998,61.20159620046617L161.47395833333334,27.79940852522853L162.39666666666668,40.21143043041232L163.31937499999998,39.55806756019595L164.24208333333334,41.95228958129886L165.16479166666667,63.08612027764322L166.0875,39.02136155962947L167.01020833333334,74.69510087370874L167.93291666666667,38.8645091056824L168.855625,127.00171494483948L169.7783333333333,86.97361224889757L170.70104166666667,53.96164351701738L171.62375,106.0267939567566L172.54645833333333,35.01079702377322L173.46916666666667,111.02291518449785L174.391875,46.559167742729215L175.31458333333333,32.07646661996844L176.2372916666667,79.21483585238458L177.16,194.20511850714684L178.08270833333333,108.64720845222475L179.00541666666666,48.42813053727153L179.928125,75.84059590101243L180.85083333333333,76.36788600683214L181.77354166666666,82.32131624221803L182.69625000000002,38.74969848990443L183.61895833333332,110.42024517059328L184.54166666666666,29.23808866739276L185.46437500000002,70.25430643558504L186.38708333333332,186.0851357281208L187.30979166666665,54.937810689210906L188.23250000000002,165.78053677082062L189.15520833333335,38.168181270360975L190.07791666666665,36.61687964200976L191.00062499999999,56.48723968863489L191.92333333333335,37.42477396130565L192.84604166666665,30.855169683694868L193.76874999999998,44.468126982450514L194.69145833333334,48.640607982873945L195.61416666666668,43.68175470829013L196.53687499999998,29.713683664798765L197.45958333333334,99.18813773989679L198.38229166666667,30.529622375965147L199.305,54.66132098436357L200.22770833333334,82.50728675723077L201.15041666666667,54.69101929664613L202.073125,75.75171196460725L202.9958333333333,38.59482416510585L203.91854166666667,52.28036561608316L204.84125,103.15966719388963L205.76395833333333,46.13824823498729L206.68666666666667,58.72933039069177L207.609375,232.53748977184296L208.53208333333333,207.48691061139107L209.45479166666667,53.39845696091653L210.3775,78.36719432473184L211.30020833333333,64.5550789833069L212.2229166666667,68.38869327306749L213.145625,37.57387214899066L214.06833333333333,104.00279858708383L214.99104166666666,43.055742770433454L215.91375,39.178029388189344L216.83645833333333,49.026976168155684L217.75916666666666,54.62687516212465L218.68187500000002,39.52736699581149L219.60458333333332,61.85828232765199L220.52729166666666,81.01767638325693L221.45000000000002,152.65644112229347L222.37270833333335,50.183786094188704L223.29541666666665,37.370309472084074L224.21812500000001,56.214943617582335L225.14083333333335,99.88989883661272L226.06354166666665,202.54153499007225L226.98624999999998,47.017407953739195L227.90895833333335,66.830797880888L228.83166666666668,94.74710592627527L229.75437499999998,30.990473717451124L230.67708333333334,33.195059090852766L231.59979166666668,42.777696937322645L232.52249999999998,32.87541979551318L233.44520833333334,127.23355168104172L234.36791666666667,84.32582044601442L235.290625,170.50990068912506L236.21333333333334,42.54549095034602L237.13604166666667,193.78934213519096L238.05875,107.42158600687982L238.9814583333333,116.04493671655655L239.90416666666667,39.04525735974315L240.826875,82.70312154293062L241.74958333333333,55.114259809255614L242.67229166666667,162.03765267133713L243.595,45.41087695956233L244.51770833333333,53.74499881267549L245.4404166666667,92.41797754168512L246.363125,182.2729907333851L247.28583333333333,176.2310721874237L248.20854166666666,43.37477543950084L249.13125,50.86162501573564L250.05395833333333,51.160691767931L250.97666666666666,117.84326711297035L251.89937500000002,35.334999203681974L252.82208333333332,30.102662980556516L253.74479166666666,155.12870693206787L254.66750000000002,46.46643304824832L255.59020833333332,39.92924371361735L256.5129166666667,67.31377789378168L257.435625,47.857136964798L258.35833333333335,36.399206310510664L259.2810416666667,130.01788714528084" style="fill: none;" fill="none"></path></g></g></g></g></g></g><g transform="translate(53, 177)" clip-path="url(#clip_1)"><clipPath id="clip_1"><rect width="276" height="23"></rect></clipPath><g><g><line x1="0" y1="0" x2="0" y2="5" style="visibility: inherit;" fill="rgb(0, 0, 0)" stroke="rgb(204, 204, 204)" stroke-width="1px"></line><line x1="18.454166666666666" y1="0" x2="18.454166666666666" y2="5" style="visibility: inherit;" fill="rgb(0, 0, 0)" stroke="rgb(204, 204, 204)" stroke-width="1px"></line><line x1="36.90833333333333" y1="0" x2="36.90833333333333" y2="5" style="visibility: inherit;" fill="rgb(0, 0, 0)" stroke="rgb(204, 204, 204)" stroke-width="1px"></line><line x1="55.362500000000004" y1="0" x2="55.362500000000004" y2="5" style="visibility: inherit;" fill="rgb(0, 0, 0)" stroke="rgb(204, 204, 204)" stroke-width="1px"></line><line x1="73.81666666666666" y1="0" x2="73.81666666666666" y2="5" style="visibility: inherit;" fill="rgb(0, 0, 0)" stroke="rgb(204, 204, 204)" stroke-width="1px"></line><line x1="92.27083333333333" y1="0" x2="92.27083333333333" y2="5" style="visibility: inherit;" fill="rgb(0, 0, 0)" stroke="rgb(204, 204, 204)" stroke-width="1px"></line><line x1="110.72500000000001" y1="0" x2="110.72500000000001" y2="5" style="visibility: inherit;" fill="rgb(0, 0, 0)" stroke="rgb(204, 204, 204)" stroke-width="1px"></line><line x1="129.17916666666667" y1="0" x2="129.17916666666667" y2="5" style="visibility: inherit;" fill="rgb(0, 0, 0)" stroke="rgb(204, 204, 204)" stroke-width="1px"></line><line x1="147.63333333333333" y1="0" x2="147.63333333333333" y2="5" style="visibility: inherit;" fill="rgb(0, 0, 0)" stroke="rgb(204, 204, 204)" stroke-width="1px"></line><line x1="166.0875" y1="0" x2="166.0875" y2="5" style="visibility: inherit;" fill="rgb(0, 0, 0)" stroke="rgb(204, 204, 204)" stroke-width="1px"></line><line x1="184.54166666666666" y1="0" x2="184.54166666666666" y2="5" style="visibility: inherit;" fill="rgb(0, 0, 0)" stroke="rgb(204, 204, 204)" stroke-width="1px"></line><line x1="202.9958333333333" y1="0" x2="202.9958333333333" y2="5" style="visibility: inherit;" fill="rgb(0, 0, 0)" stroke="rgb(204, 204, 204)" stroke-width="1px"></line><line x1="221.45000000000002" y1="0" x2="221.45000000000002" y2="5" style="visibility: inherit;" fill="rgb(0, 0, 0)" stroke="rgb(204, 204, 204)" stroke-width="1px"></line><line x1="239.90416666666667" y1="0" x2="239.90416666666667" y2="5" style="visibility: inherit;" fill="rgb(0, 0, 0)" stroke="rgb(204, 204, 204)" stroke-width="1px"></line><line x1="258.35833333333335" y1="0" x2="258.35833333333335" y2="5" style="visibility: inherit;" fill="rgb(0, 0, 0)" stroke="rgb(204, 204, 204)" stroke-width="1px"></line><line x1="276.8125" y1="0" x2="276.8125" y2="5" style="visibility: inherit;" fill="rgb(0, 0, 0)" stroke="rgb(204, 204, 204)" stroke-width="1px"></line></g><g transform="translate(0, 8)"><text x="0" y="0" dx="0em" dy="0.95em" style="text-anchor: middle; visibility: hidden; font-family: &quot;Helvetica Neue&quot;, sans-serif; font-size: 12px; font-weight: 200;" fill="rgb(50, 49, 63)" stroke="none" stroke-width="1px">-2k</text><text x="18.454166666666666" y="0" dx="0em" dy="0.95em" style="text-anchor: middle; visibility: inherit; font-family: &quot;Helvetica Neue&quot;, sans-serif; font-size: 12px; font-weight: 200;" fill="rgb(50, 49, 63)" stroke="none" stroke-width="1px">0</text><text x="36.90833333333333" y="0" dx="0em" dy="0.95em" style="text-anchor: middle; visibility: hidden; font-family: &quot;Helvetica Neue&quot;, sans-serif; font-size: 12px; font-weight: 200;" fill="rgb(50, 49, 63)" stroke="none" stroke-width="1px">2k</text><text x="55.362500000000004" y="0" dx="0em" dy="0.95em" style="text-anchor: middle; visibility: inherit; font-family: &quot;Helvetica Neue&quot;, sans-serif; font-size: 12px; font-weight: 200;" fill="rgb(50, 49, 63)" stroke="none" stroke-width="1px">4k</text><text x="73.81666666666666" y="0" dx="0em" dy="0.95em" style="text-anchor: middle; visibility: hidden; font-family: &quot;Helvetica Neue&quot;, sans-serif; font-size: 12px; font-weight: 200;" fill="rgb(50, 49, 63)" stroke="none" stroke-width="1px">6k</text><text x="92.27083333333333" y="0" dx="0em" dy="0.95em" style="text-anchor: middle; visibility: inherit; font-family: &quot;Helvetica Neue&quot;, sans-serif; font-size: 12px; font-weight: 200;" fill="rgb(50, 49, 63)" stroke="none" stroke-width="1px">8k</text><text x="110.72500000000001" y="0" dx="0em" dy="0.95em" style="text-anchor: middle; visibility: hidden; font-family: &quot;Helvetica Neue&quot;, sans-serif; font-size: 12px; font-weight: 200;" fill="rgb(50, 49, 63)" stroke="none" stroke-width="1px">10k</text><text x="129.17916666666667" y="0" dx="0em" dy="0.95em" style="text-anchor: middle; visibility: inherit; font-family: &quot;Helvetica Neue&quot;, sans-serif; font-size: 12px; font-weight: 200;" fill="rgb(50, 49, 63)" stroke="none" stroke-width="1px">12k</text><text x="147.63333333333333" y="0" dx="0em" dy="0.95em" style="text-anchor: middle; visibility: hidden; font-family: &quot;Helvetica Neue&quot;, sans-serif; font-size: 12px; font-weight: 200;" fill="rgb(50, 49, 63)" stroke="none" stroke-width="1px">14k</text><text x="166.0875" y="0" dx="0em" dy="0.95em" style="text-anchor: middle; visibility: inherit; font-family: &quot;Helvetica Neue&quot;, sans-serif; font-size: 12px; font-weight: 200;" fill="rgb(50, 49, 63)" stroke="none" stroke-width="1px">16k</text><text x="184.54166666666666" y="0" dx="0em" dy="0.95em" style="text-anchor: middle; visibility: hidden; font-family: &quot;Helvetica Neue&quot;, sans-serif; font-size: 12px; font-weight: 200;" fill="rgb(50, 49, 63)" stroke="none" stroke-width="1px">18k</text><text x="202.9958333333333" y="0" dx="0em" dy="0.95em" style="text-anchor: middle; visibility: inherit; font-family: &quot;Helvetica Neue&quot;, sans-serif; font-size: 12px; font-weight: 200;" fill="rgb(50, 49, 63)" stroke="none" stroke-width="1px">20k</text><text x="221.45000000000002" y="0" dx="0em" dy="0.95em" style="text-anchor: middle; visibility: hidden; font-family: &quot;Helvetica Neue&quot;, sans-serif; font-size: 12px; font-weight: 200;" fill="rgb(50, 49, 63)" stroke="none" stroke-width="1px">22k</text><text x="239.90416666666667" y="0" dx="0em" dy="0.95em" style="text-anchor: middle; visibility: inherit; font-family: &quot;Helvetica Neue&quot;, sans-serif; font-size: 12px; font-weight: 200;" fill="rgb(50, 49, 63)" stroke="none" stroke-width="1px">24k</text><text x="258.35833333333335" y="0" dx="0em" dy="0.95em" style="text-anchor: middle; visibility: hidden; font-family: &quot;Helvetica Neue&quot;, sans-serif; font-size: 12px; font-weight: 200;" fill="rgb(50, 49, 63)" stroke="none" stroke-width="1px">26k</text><text x="276.8125" y="0" dx="0em" dy="0.95em" style="text-anchor: middle; visibility: hidden; font-family: &quot;Helvetica Neue&quot;, sans-serif; font-size: 12px; font-weight: 200;" fill="rgb(50, 49, 63)" stroke="none" stroke-width="1px">28k</text></g><line x1="0" y1="0" x2="276.8125" y2="0" fill="rgb(0, 0, 0)" stroke="rgb(204, 204, 204)" stroke-width="1px"></line></g></g></g></g></svg>