<svg viewBox="0 0 330 200" xmlns="http://www.w3.org/2000/svg"><g><g><g><g><g><line x1="53.1875" y1="177" x2="48.1875" y2="177" style="visibility: inherit;" fill="rgb(0, 0, 0)" stroke="rgb(204, 204, 204)" stroke-width="1px"></line><line x1="53.1875" y1="162.25" x2="48.1875" y2="162.25" style="visibility: inherit;" fill="rgb(0, 0, 0)" stroke="rgb(204, 204, 204)" stroke-width="1px"></line><line x1="53.1875" y1="147.5" x2="48.1875" y2="147.5" style="visibility: inherit;" fill="rgb(0, 0, 0)" stroke="rgb(204, 204, 204)" stroke-width="1px"></line><line x1="53.1875" y1="132.75" x2="48.1875" y2="132.75" style="visibility: inherit;" fill="rgb(0, 0, 0)" stroke="rgb(204, 204, 204)" stroke-width="1px"></line><line x1="53.1875" y1="118.00000000000003" x2="48.1875" y2="118.00000000000003" style="visibility: inherit;" fill="rgb(0, 0, 0)" stroke="rgb(204, 204, 204)" stroke-width="1px"></line><line x1="53.1875" y1="103.25" x2="48.1875" y2="103.25" style="visibility: inherit;" fill="rgb(0, 0, 0)" stroke="rgb(204, 204, 204)" stroke-width="1px"></line><line x1="53.1875" y1="88.5" x2="48.1875" y2="88.5" style="visibility: inherit;" fill="rgb(0, 0, 0)" stroke="rgb(204, 204, 204)" stroke-width="1px"></line><line x1="53.1875" y1="73.75000000000001" x2="48.1875" y2="73.75000000000001" style="visibility: inherit;" fill="rgb(0, 0, 0)" stroke="rgb(204, 204, 204)" stroke-width="1px"></line><line x1="53.1875" y1="59" x2="48.1875" y2="59" style="visibility: inherit;" fill="rgb(0, 0, 0)" stroke="rgb(204, 204, 204)" stroke-width="1px"></line><line x1="53.1875" y1="44.25000000000003" x2="48.1875" y2="44.25000000000003" style="visibility: inherit;" fill="rgb(0, 0, 0)" stroke="rgb(204, 204, 204)" stroke-width="1px"></line><line x1="53.1875" y1="29.5" x2="48.1875" y2="29.5" style="visibility: inherit;" fill="rgb(0, 0, 0)" stroke="rgb(204, 204, 204)" stroke-width="1px"></line><line x1="53.1875" y1="14.75" x2="48.1875" y2="14.75" style="visibility: inherit;" fill="rgb(0, 0, 0)" stroke="rgb(204, 204, 204)" stroke-width="1px"></line><line x1="53.1875" y1="0" x2="48.1875" y2="0" style="visibility: inherit;" fill="rgb(0, 0, 0)" stroke="rgb(204, 204, 204)" stroke-width="1px"></line></g><g transform="translate(43.1875, 0)"><text x="0" y="177" dx="0em" dy="0.3em" style="text-anchor: end; visibility: hidden; font-family: &quot;Helvetica Neue&quot;, sans-serif; font-size: 12px; font-weight: 200;" fill="rgb(50, 49, 63)" stroke="none" stroke-width="1px">0.5</text><text x="0" y="162.25" dx="0em" dy="0.3em" style="text-anchor: end; visibility: inherit; font-family: &quot;Helvetica Neue&quot;, sans-serif; font-size: 12px; font-weight: 200;" fill="rgb(50, 49, 63)" stroke="none" stroke-width="1px">0.55</text><text x="0" y="147.5" dx="0em" dy="0.3em" style="text-anchor: end; visibility: hidden; font-family: &quot;Helvetica Neue&quot;, sans-serif; font-size: 12px; font-weight: 200;" fill="rgb(50, 49, 63)" stroke="none" stroke-width="1px">0.6</text><text x="0" y="132.75" dx="0em" dy="0.3em" style="text-anchor: end; visibility: inherit; font-family: &quot;Helvetica Neue&quot;, sans-serif; font-size: 12px; font-weight: 200;" fill="rgb(50, 49, 63)" stroke="none" stroke-width="1px">0.65</text><text x="0" y="118.00000000000003" dx="0em" dy="0.3em" style="text-anchor: end; visibility: hidden; font-family: &quot;Helvetica Neue&quot;, sans-serif; font-size: 12px; font-weight: 200;" fill="rgb(50, 49, 63)" stroke="none" stroke-width="1px">0.7</text><text x="0" y="103.25" dx="0em" dy="0.3em" style="text-anchor: end; visibility: inherit; font-family: &quot;Helvetica Neue&quot;, sans-serif; font-size: 12px; font-weight: 200;" fill="rgb(50, 49, 63)" stroke="none" stroke-width="1px">0.75</text><text x="0" y="88.5" dx="0em" dy="0.3em" style="text-anchor: end; visibility: hidden; font-family: &quot;Helvetica Neue&quot;, sans-serif; font-size: 12px; font-weight: 200;" fill="rgb(50, 49, 63)" stroke="none" stroke-width="1px">0.8</text><text x="0" y="73.75000000000001" dx="0em" dy="0.3em" style="text-anchor: end; visibility: inherit; font-family: &quot;Helvetica Neue&quot;, sans-serif; font-size: 12px; font-weight: 200;" fill="rgb(50, 49, 63)" stroke="none" stroke-width="1px">0.85</text><text x="0" y="59" dx="0em" dy="0.3em" style="text-anchor: end; visibility: hidden; font-family: &quot;Helvetica Neue&quot;, sans-serif; font-size: 12px; font-weight: 200;" fill="rgb(50, 49, 63)" stroke="none" stroke-width="1px">0.9</text><text x="0" y="44.25000000000003" dx="0em" dy="0.3em" style="text-anchor: end; visibility: inherit; font-family: &quot;Helvetica Neue&quot;, sans-serif; font-size: 12px; font-weight: 200;" fill="rgb(50, 49, 63)" stroke="none" stroke-width="1px">0.95</text><text x="0" y="29.5" dx="0em" dy="0.3em" style="text-anchor: end; visibility: hidden; font-family: &quot;Helvetica Neue&quot;, sans-serif; font-size: 12px; font-weight: 200;" fill="rgb(50, 49, 63)" stroke="none" stroke-width="1px">1</text><text x="0" y="14.75" dx="0em" dy="0.3em" style="text-anchor: end; visibility: inherit; font-family: &quot;Helvetica Neue&quot;, sans-serif; font-size: 12px; font-weight: 200;" fill="rgb(50, 49, 63)" stroke="none" stroke-width="1px">1.05</text><text x="0" y="0" dx="0em" dy="0.3em" style="text-anchor: end; visibility: hidden; font-family: &quot;Helvetica Neue&quot;, sans-serif; font-size: 12px; font-weight: 200;" fill="rgb(50, 49, 63)" stroke="none" stroke-width="1px">1.1</text></g><line x1="53.1875" y1="0" x2="53.1875" y2="177" fill="rgb(0, 0, 0)" stroke="rgb(204, 204, 204)" stroke-width="1px"></line></g></g><g transform="translate(53, 0)" clip-path="url(#clip_0)"><clipPath id="clip_0"><rect width="276" height="177"></rect></clipPath><g><g><g><line x1="0" y1="0" x2="0" y2="177" fill="rgb(0, 0, 0)" stroke="rgb(60, 60, 60)" stroke-width="1px" opacity="0.25"></line><line x1="18.454166666666666" y1="0" x2="18.454166666666666" y2="177" fill="rgb(0, 0, 0)" stroke="rgb(60, 60, 60)" stroke-width="1px" opacity="0.25"></line><line x1="36.90833333333333" y1="0" x2="36.90833333333333" y2="177" fill="rgb(0, 0, 0)" stroke="rgb(60, 60, 60)" stroke-width="1px" opacity="0.25"></line><line x1="55.362500000000004" y1="0" x2="55.362500000000004" y2="177" fill="rgb(0, 0, 0)" stroke="rgb(60, 60, 60)" stroke-width="1px" opacity="0.25"></line><line x1="73.81666666666666" y1="0" x2="73.81666666666666" y2="177" fill="rgb(0, 0, 0)" stroke="rgb(60, 60, 60)" stroke-width="1px" opacity="0.25"></line><line x1="92.27083333333333" y1="0" x2="92.27083333333333" y2="177" fill="rgb(0, 0, 0)" stroke="rgb(60, 60, 60)" stroke-width="1px" opacity="0.25"></line><line x1="110.72500000000001" y1="0" x2="110.72500000000001" y2="177" fill="rgb(0, 0, 0)" stroke="rgb(60, 60, 60)" stroke-width="1px" opacity="0.25"></line><line x1="129.17916666666667" y1="0" x2="129.17916666666667" y2="177" fill="rgb(0, 0, 0)" stroke="rgb(60, 60, 60)" stroke-width="1px" opacity="0.25"></line><line x1="147.63333333333333" y1="0" x2="147.63333333333333" y2="177" fill="rgb(0, 0, 0)" stroke="rgb(60, 60, 60)" stroke-width="1px" opacity="0.25"></line><line x1="166.0875" y1="0" x2="166.0875" y2="177" fill="rgb(0, 0, 0)" stroke="rgb(60, 60, 60)" stroke-width="1px" opacity="0.25"></line><line x1="184.54166666666666" y1="0" x2="184.54166666666666" y2="177" fill="rgb(0, 0, 0)" stroke="rgb(60, 60, 60)" stroke-width="1px" opacity="0.25"></line><line x1="202.9958333333333" y1="0" x2="202.9958333333333" y2="177" fill="rgb(0, 0, 0)" stroke="rgb(60, 60, 60)" stroke-width="1px" opacity="0.25"></line><line x1="221.45000000000002" y1="0" x2="221.45000000000002" y2="177" fill="rgb(0, 0, 0)" stroke="rgb(60, 60, 60)" stroke-width="1px" opacity="0.25"></line><line x1="239.90416666666667" y1="0" x2="239.90416666666667" y2="177" fill="rgb(0, 0, 0)" stroke="rgb(60, 60, 60)" stroke-width="1px" opacity="0.25"></line><line x1="258.35833333333335" y1="0" x2="258.35833333333335" y2="177" fill="rgb(0, 0, 0)" stroke="rgb(60, 60, 60)" stroke-width="1px" opacity="0.25"></line><line x1="276.8125" y1="0" x2="276.8125" y2="177" fill="rgb(0, 0, 0)" stroke="rgb(60, 60, 60)" stroke-width="1px" opacity="0.25"></line></g><g><line x1="0" y1="177" x2="276.8125" y2="177" fill="rgb(0, 0, 0)" stroke="rgb(60, 60, 60)" stroke-width="1px" opacity="0.25"></line><line x1="0" y1="162.25" x2="276.8125" y2="162.25" fill="rgb(0, 0, 0)" stroke="rgb(60, 60, 60)" stroke-width="1px" opacity="0.25"></line><line x1="0" y1="147.5" x2="276.8125" y2="147.5" fill="rgb(0, 0, 0)" stroke="rgb(60, 60, 60)" stroke-width="1px" opacity="0.25"></line><line x1="0" y1="132.75" x2="276.8125" y2="132.75" fill="rgb(0, 0, 0)" stroke="rgb(60, 60, 60)" stroke-width="1px" opacity="0.25"></line><line x1="0" y1="118.00000000000003" x2="276.8125" y2="118.00000000000003" fill="rgb(0, 0, 0)" stroke="rgb(60, 60, 60)" stroke-width="1px" opacity="0.25"></line><line x1="0" y1="103.25" x2="276.8125" y2="103.25" fill="rgb(0, 0, 0)" stroke="rgb(60, 60, 60)" stroke-width="1px" opacity="0.25"></line><line x1="0" y1="88.5" x2="276.8125" y2="88.5" fill="rgb(0, 0, 0)" stroke="rgb(60, 60, 60)" stroke-width="1px" opacity="0.25"></line><line x1="0" y1="73.75000000000001" x2="276.8125" y2="73.75000000000001" fill="rgb(0, 0, 0)" stroke="rgb(60, 60, 60)" stroke-width="1px" opacity="0.25"></line><line x1="0" y1="59" x2="276.8125" y2="59" fill="rgb(0, 0, 0)" stroke="rgb(60, 60, 60)" stroke-width="1px" opacity="0.25"></line><line x1="0" y1="44.25000000000003" x2="276.8125" y2="44.25000000000003" fill="rgb(0, 0, 0)" stroke="rgb(60, 60, 60)" stroke-width="1px" opacity="0.25"></line><line x1="0" y1="29.5" x2="276.8125" y2="29.5" fill="rgb(0, 0, 0)" stroke="rgb(60, 60, 60)" stroke-width="1px" opacity="0.25"></line><line x1="0" y1="14.75" x2="276.8125" y2="14.75" fill="rgb(0, 0, 0)" stroke="rgb(60, 60, 60)" stroke-width="1px" opacity="0.25"></line><line x1="0" y1="0" x2="276.8125" y2="0" fill="rgb(0, 0, 0)" stroke="rgb(60, 60, 60)" stroke-width="1px" opacity="0.25"></line></g></g></g><g><g><line x1="0" y1="324.5" x2="276.8125" y2="324.5" fill="rgb(0, 0, 0)" stroke="rgb(153, 153, 153)" stroke-width="1.5px"></line></g></g><g><g><line x1="18.454166666666666" y1="0" x2="18.454166666666666" y2="177" fill="rgb(0, 0, 0)" stroke="rgb(153, 153, 153)" stroke-width="1.5px"></line></g></g><g><g><g><g><g><path stroke="rgb(255, 112, 67)" stroke-width="2px" d="M20.299583333333334,272.2008682023734L21.222291666666663,173.19402380774216L22.145,208.90022798967274L23.067708333333332,149.10134744592466L23.99041666666667,176.87455202482647L24.913125,130.8346922400243L25.835833333333333,128.562337565819L26.758541666666666,101.15615112813018L27.681250000000002,129.37140495197383L28.603958333333335,144.81486982302786L29.526666666666667,160.96759220678717L30.449375,119.59216737376339L31.372083333333332,171.53741486177432L32.29479166666667,141.3749671117751L33.2175,147.53926925698465L34.140208333333334,124.56895556907779L35.062916666666666,100.20187357530672L35.985625,76.59652460506979L36.90833333333333,65.00411825707877L37.831041666666664,134.5816667032723L38.753750000000004,105.51791441212418L39.676458333333336,84.77496776852603L40.59916666666667,121.2199635177623L41.521875,97.03449440411596L42.44458333333333,160.2238206534376L43.36729166666667,130.30311497991136L44.29,135.9258191599866L45.21270833333333,99.26381391178518L46.135416666666664,78.53391647945666L47.058125000000004,132.7455295028547L47.98083333333334,162.38770498524488L48.90354166666667,121.160145469891L49.82625,118.64034761623356L50.74895833333333,98.97604430271124L51.67166666666667,75.17285246468872L52.594375,89.8393122079685L53.51708333333333,69.47994656886974L54.439791666666665,55.87882095839062L55.362500000000004,52.085939177363215L56.28520833333334,45.575093626813896L57.20791666666667,48.678822804893656L58.130624999999995,43.874219993995496L59.053333333333335,69.35925807217018L59.97604166666667,122.38430943837145L60.89875,90.52127405653586L61.82145833333333,71.23290117102323L62.744166666666665,133.11078431457605L63.666875000000005,109.79123276589881L64.58958333333334,96.73185652554548L65.51229166666667,84.6822635772867L66.435,137.9044440535093L67.35770833333333,99.00683092750582L68.28041666666667,94.54459473894053L69.203125,73.92103942277336L70.12583333333333,73.29781627680221L71.04854166666667,95.62309196010952L71.97125,75.40839778432407L72.89395833333333,60.08350834279628L73.81666666666666,50.89595266001999L74.73937500000001,54.72846708189013L75.66208333333333,122.7161974280522L76.58479166666667,136.61758180674596L77.50750000000001,95.51358153949167L78.43020833333333,93.96997939664114L79.35291666666667,78.88918399285069L80.27562499999999,60.67711226624719L81.19833333333334,49.98996663381142L82.12104166666667,43.22475288086818L83.04375,119.67029739483408L83.96645833333334,91.225047690059L84.88916666666665,70.50484720610694L85.811875,59.327673147577755L86.73458333333333,66.545583313977L87.65729166666667,54.42190300600248L88.58,48.43821572766615L89.50270833333333,79.02939281169124L90.42541666666666,69.74974387469022L91.34812500000001,59.55207730282626L92.27083333333333,49.5133142051058L93.19354166666666,46.40643412929515L94.11625000000001,43.6456034365996L95.03895833333333,43.99751273296505L95.96166666666667,39.20262357891937L96.88437499999999,36.71142702878322L97.80708333333334,37.64946683395391L98.72979166666667,37.724739027908356L99.6525,63.62027692371065L100.57520833333334,50.68809768899354L101.49791666666665,52.30990498867081L102.420625,45.301482663192985L103.34333333333333,53.264529386543444L104.26604166666667,50.46720240079358L105.18875,48.575210461395955L106.11145833333335,58.87069700323222L107.03416666666666,49.341756022946115L107.956875,42.88351261435514L108.87958333333333,94.2812507856999L109.80229166666666,82.58880879337278L110.72500000000001,74.42040201338939L111.64770833333333,59.67592003531941L112.57041666666667,48.90236074082668L113.49312499999999,42.130551352218504L114.41583333333334,39.2023737991546L115.33854166666667,36.9140626528677L116.26124999999999,37.14249899022681L117.18395833333334,38.65763281603398L118.10666666666667,37.015851395247836L119.029375,39.35221084172636L119.95208333333333,37.92138073572582L120.87479166666667,36.53481186466851L121.7975,73.85130041263965L122.72020833333335,57.22375834836046L123.64291666666666,49.13290186437061L124.565625,43.070544074249824L125.48833333333333,38.89825031177551L126.41104166666666,92.6451303542635L127.33375000000001,73.02313213235028L128.25645833333334,57.2773997347706L129.17916666666667,47.92088038689815L130.101875,44.00836381296469L131.02458333333334,63.64365363705252L131.94729166666667,59.92248435370979L132.87,103.46331851215875L133.79270833333334,75.21318784076999L134.71541666666667,58.02304016780276L135.638125,50.85643813151967L136.56083333333333,43.03227015220435L137.48354166666667,38.67752227713652L138.40625,35.69747651535266L139.32895833333333,33.96465380738971L140.25166666666667,33.58684043735744L141.174375,36.158151916566396L142.09708333333333,37.850833518447246L143.0197916666667,38.048281230415L143.9425,37.84181620948618L144.86520833333333,59.820634450156135L145.78791666666666,48.25396538116854L146.710625,41.988764454950825L147.63333333333333,38.661948639172266L148.55604166666666,37.944022463570775L149.47875000000002,35.28724022317576L150.40145833333332,39.222725842050636L151.32416666666666,37.160083468944975L152.24687500000002,37.474420366401176L153.16958333333335,34.851891742774654L154.09229166666665,36.33223320640849L155.01500000000001,34.51326020716269L155.93770833333335,33.846127964011686L156.86041666666665,41.6386511665296L157.78312499999998,38.52855822692581L158.70583333333335,36.732969577612096L159.62854166666668,34.86810646981101L160.55124999999998,33.67853159028351L161.47395833333334,32.99904610108169L162.39666666666668,32.1909463011672L163.31937499999998,31.55648710748258L164.24208333333334,33.28412097943249L165.16479166666667,32.46445304305806L166.0875,31.87177296967181L167.01020833333334,33.59312668139265L167.93291666666667,50.182734267082964L168.855625,61.501938948730924L169.7783333333333,55.259844857275695L170.70104166666667,48.160448001516016L171.62375,48.29074442785512L172.54645833333333,45.06158881426768L173.46916666666667,44.33940876150683L174.391875,39.91516802683205L175.31458333333333,37.43154097780425L176.2372916666667,35.69715283623239L177.16,34.54619485325159L178.08270833333333,34.63786903730954L179.00541666666666,35.72352630920366L179.928125,34.23631865398383L180.85083333333333,33.5748215116042L181.77354166666666,51.781916642008895L182.69625000000002,43.77183801163355L183.61895833333332,41.554949129993446L184.54166666666666,37.8239261659233L185.46437500000002,38.763295552268545L186.38708333333332,36.63035262890753L187.30979166666665,35.454377992559074L188.23250000000002,33.74746247745071L189.15520833333335,33.16215188870737L190.07791666666665,32.9981158946151L191.00062499999999,32.10672650183409L191.92333333333335,33.435019740135516L192.84604166666665,33.99772189180317L193.76874999999998,33.273947656871485L194.69145833333334,33.67548400206661L195.61416666666668,32.434613001604674L196.53687499999998,31.705416066801433L197.45958333333334,31.504246534917286L198.38229166666667,32.007304323919755L199.305,32.80747280908116L200.22770833333334,32.28473099704078L201.15041666666667,32.06533277413541L202.073125,32.56426162946997L202.9958333333333,32.07496258872018L203.91854166666667,31.500014074190062L204.84125,31.538615636553516L205.76395833333333,31.832335408047555L206.68666666666667,31.509649691293077L207.609375,31.102154146021263L208.53208333333333,31.955822688571033L209.45479166666667,31.881140149969724L210.3775,31.139234398209396L211.30020833333333,31.27802763843735L212.2229166666667,32.05167593040585L213.145625,32.32782131122664L214.06833333333333,32.95462890676927L214.99104166666666,33.31928427345912L215.91375,33.22320153312302L216.83645833333333,32.54691265819321L217.75916666666666,32.20494586704879L218.68187500000002,31.71616009759134L219.60458333333332,30.981665610594888L220.52729166666666,32.705756091668235L221.45000000000002,32.78789504980685L222.37270833333335,32.335426405761496L223.29541666666665,31.41510479193559L224.21812500000001,30.950744274506746L225.14083333333335,32.124190809279554L226.06354166666665,34.40697107431288L226.98624999999998,32.597235332232714L227.90895833333335,31.630060535849367L228.83166666666668,32.62046405206996L229.75437499999998,32.68925175983233L230.67708333333334,31.75608917426186L231.59979166666668,31.26321943015526L232.52249999999998,31.11568319446249L233.44520833333334,30.577385876455367L234.36791666666667,31.51495226256759L235.290625,30.99230978508419L236.21333333333334,31.834859023211152L237.13604166666667,32.0788816509949L238.05875,31.85722605575961L238.9814583333333,31.31709327810907L239.90416666666667,31.572498193466117L240.826875,31.020985598017887L241.74958333333333,30.948265215545916L242.67229166666667,34.17793208407761L243.595,32.5290833833659L244.51770833333333,32.553054554631956L245.4404166666667,34.62801131210961L246.363125,33.62952316166306L247.28583333333333,34.973273112543495L248.20854166666666,33.32482833514695L249.13125,32.767187040150674L250.05395833333333,32.42639181679516L250.97666666666666,32.52912429372091L251.89937500000002,33.70268687844049L252.82208333333332,35.53568383002147L253.74479166666666,36.03057889904895L254.66750000000002,34.728660087384725L255.59020833333332,33.4810923222291L256.5129166666667,33.54031762382911L257.435625,32.63483303130582L258.35833333333335,31.943145664578168L259.2810416666667,31.987031073597393" style="fill: none;" fill="none"></path></g><g><path stroke="rgb(0, 119, 187)" stroke-width="2px" d="M20.299583333333334,181.7356307413429L21.222291666666663,140.48650287760762L22.145,144.58016064954813L23.067708333333332,180.17372613751294L23.99041666666667,157.19961393302233L24.913125,171.8141742467699L25.835833333333333,194.60075856537586L26.758541666666666,197.80121218017135L27.681250000000002,174.34567339101937L28.603958333333335,229.60111261217386L29.526666666666667,247.45059565921372L30.449375,171.07222817610057L31.372083333333332,118.50289982426852L32.29479166666667,99.04022059944191L33.2175,124.2765801927502L34.140208333333334,135.89220791451453L35.062916666666666,106.31389793480311L35.985625,115.98060888642522L36.90833333333333,112.29190387737128L37.831041666666664,84.20572625263823L38.753750000000004,69.92514359729442L39.676458333333336,91.81275472469083L40.59916666666667,142.4591642363413L41.521875,103.92790941450463L42.44458333333333,108.94975658207613L43.36729166666667,101.43567784835722L44.29,83.54451721263447L45.21270833333333,87.00796143681636L46.135416666666664,121.46482588337436L47.058125000000004,159.28992653636618L47.98083333333334,123.86970043064849L48.90354166666667,197.338507251283L49.82625,152.7086072033877L50.74895833333333,116.44104952849318L51.67166666666667,93.46325375720807L52.594375,72.4790348070703L53.51708333333333,144.05239198903143L54.439791666666665,107.36176185956955L55.362500000000004,80.98554048082819L56.28520833333334,66.84366857551721L57.20791666666667,60.13417746425556L58.130624999999995,52.013280710026606L59.053333333333335,48.49924087490061L59.97604166666667,46.37582187609908L60.89875,136.658300034414L61.82145833333333,167.04785242922196L62.744166666666665,150.9915538024104L63.666875000000005,136.97593547034438L64.58958333333334,146.49297216618703L65.51229166666667,137.32589058326002L66.435,103.05549919742099L67.35770833333333,151.53151195139853L68.28041666666667,113.75867538979372L69.203125,82.87277150945343L70.12583333333333,67.57738516804876L71.04854166666667,63.885313833219826L71.97125,52.243014362132726L72.89395833333333,45.122840563461324L73.81666666666666,41.77771046161945L74.73937500000001,49.447401061060035L75.66208333333333,53.636371954919184L76.58479166666667,89.62916657009238L77.50750000000001,69.33425028728544L78.43020833333333,63.218210861725225L79.35291666666667,51.922152045752156L80.27562499999999,51.29430752002334L81.19833333333334,46.656657868642384L82.12104166666667,53.688577827226425L83.04375,50.88091569925024L83.96645833333334,45.74593368640345L84.88916666666665,41.875598856632735L85.811875,40.0867789440303L86.73458333333333,47.23004116135536L87.65729166666667,45.05897701691211L88.58,62.67404740399492L89.50270833333333,86.1880300840519L90.42541666666666,80.10264344220056L91.34812500000001,62.83866164210258L92.27083333333333,57.42117145730745L93.19354166666666,47.9539361421686L94.11625000000001,47.82667646553645L95.03895833333333,52.61792503444272L95.96166666666667,47.57752710967014L96.88437499999999,128.15194149249047L97.80708333333334,91.57969061990529L98.72979166666667,68.61483772075147L99.6525,73.80915610477903L100.57520833333334,57.32470629504671L101.49791666666665,57.832743083783114L102.420625,53.54009761533028L103.34333333333333,60.06322921586566L104.26604166666667,51.11628657145819L105.18875,72.94111951329424L106.11145833333335,62.97937495790789L107.03416666666666,55.67275816966814L107.956875,64.53446044188574L108.87958333333333,61.509691844355075L109.80229166666666,51.85625568030535L110.72500000000001,47.18698360322867L111.64770833333333,43.1792855608401L112.57041666666667,53.908944913621966L113.49312499999999,53.99820141129267L114.41583333333334,46.180426002338976L115.33854166666667,76.6700685029003L116.26124999999999,67.57408349542457L117.18395833333334,55.38929901616956L118.10666666666667,48.546532810313636L119.029375,48.42174106871079L119.95208333333333,78.46696819087856L120.87479166666667,62.223166425353256L121.7975,56.40697257478594L122.72020833333335,57.32761564707495L123.64291666666666,50.127261464928026L124.565625,44.18106547900106L125.48833333333333,40.728877663064395L126.41104166666666,55.83228359189532L127.33375000000001,57.343113646310016L128.25645833333334,52.09626204097357L129.17916666666667,45.16499051048808L130.101875,45.664280394282684L131.02458333333334,41.76277221415444L131.94729166666667,49.605937297189286L132.87,45.30959390106443L133.79270833333334,59.753756228105104L134.71541666666667,50.12878703058716L135.638125,44.42707893241024L136.56083333333333,44.65241602056372L137.48354166666667,40.325352781970196L138.40625,39.363228865837385L139.32895833333333,47.06552044652423L140.25166666666667,42.62009384693221L141.174375,74.19837850607345L142.09708333333333,60.646062411528305L143.0197916666667,59.85883855680315L143.9425,53.027907442210235L144.86520833333333,51.17454821536434L145.78791666666666,46.16388453644211L146.710625,44.866913447390175L147.63333333333333,42.977117162710556L148.55604166666666,41.20877512798677L149.47875000000002,75.42579195801002L150.40145833333332,79.51474207582226L151.32416666666666,69.4758801814446L152.24687500000002,56.754325864108154L153.16958333333335,49.264219473237844L154.09229166666665,51.22553834345045L155.01500000000001,57.67259321824375L155.93770833333335,47.757116736266994L156.86041666666665,42.9456155665481L157.78312499999998,52.3439553956845L158.70583333333335,55.90292396430131L159.62854166666668,48.6726776974437L160.55124999999998,42.44288987022864L161.47395833333334,38.764512265337856L162.39666666666668,38.459936025508284L163.31937499999998,38.02569885418893L164.24208333333334,42.422935052907974L165.16479166666667,40.35957501184734L166.0875,40.38381990105984L167.01020833333334,43.85977282709527L167.93291666666667,40.16626049629835L168.855625,42.8342295739173L169.7783333333333,49.959347239322625L170.70104166666667,48.04932670067976L171.62375,49.032407309241464L172.54645833333333,44.55296300985063L173.46916666666667,48.00853211365728L174.391875,48.901684800878684L175.31458333333333,45.90920591360066L176.2372916666667,46.53762836459717L177.16,67.55033521177435L178.08270833333333,64.80399868680277L179.00541666666666,54.67072957630896L179.928125,59.09096599743333L180.85083333333333,63.456733877215186L181.77354166666666,65.90292104169932L182.69625000000002,55.7749000554395L183.61895833333332,52.9339972832866L184.54166666666666,45.50226357573672L185.46437500000002,43.611963838305485L186.38708333333332,66.58905776141076L187.30979166666665,57.23663282274002L188.23250000000002,64.83723783420798L189.15520833333335,54.334159683747785L190.07791666666665,48.36451892349942L191.00062499999999,44.704882337414176L191.92333333333335,40.695221015073656L192.84604166666665,38.12423197523228L193.76874999999998,36.82701096591637L194.69145833333334,36.92314156089597L195.61416666666668,36.26455781575666L196.53687499999998,35.35834339688196L197.45958333333334,47.289305540501914L198.38229166666667,42.60646062647095L199.305,42.32569244834659L200.22770833333334,44.81087860663459L201.15041666666667,48.04851129770117L202.073125,51.321308035372724L202.9958333333333,47.17308396024649L203.91854166666667,45.10738123609511L204.84125,43.090261203967856L205.76395833333333,41.766112245871625L206.68666666666667,41.59130303725837L207.609375,55.70814977088712L208.53208333333333,57.084247100348136L209.45479166666667,47.60083884477311L210.3775,49.04400145101367L211.30020833333333,48.3794495051373L212.2229166666667,55.15134330900128L213.145625,49.0874852199055L214.06833333333333,49.6120191966711L214.99104166666666,44.86960054369084L215.91375,41.68547254163809L216.83645833333333,41.82928198193778L217.75916666666666,40.81229556569619L218.68187500000002,40.194690567071234L219.60458333333332,46.6757691036552L220.52729166666666,55.4043092090422L221.45000000000002,59.558571967991256L222.37270833333335,51.30363218397619L223.29541666666665,45.86294079071715L224.21812500000001,42.7852261796381L225.14083333333335,49.58962258903895L226.06354166666665,77.63390675311516L226.98624999999998,62.55761827901142L227.90895833333335,60.27097710296596L228.83166666666668,52.75856301978283L229.75437499999998,46.622444354266264L230.67708333333334,42.400534655314914L231.59979166666668,41.675156227148904L232.52249999999998,38.67891129934631L233.44520833333334,45.25025072743799L234.36791666666667,49.37898797422831L235.290625,67.3578490652453L236.21333333333334,57.614942231047806L237.13604166666667,51.16889483825484L238.05875,60.11063906607701L238.9814583333333,55.735870010004476L239.90416666666667,50.72071819683673L240.826875,55.082906467799916L241.74958333333333,53.81843022291932L242.67229166666667,62.23853802552863L243.595,53.70960845870401L244.51770833333333,47.09131313754693L245.4404166666667,67.88376987811074L246.363125,73.02083843252747L247.28583333333333,73.16349173368033L248.20854166666666,59.84394426811349L249.13125,52.47018685143357L250.05395833333333,50.42593299270369L250.97666666666666,52.47689275098267L251.89937500000002,45.54452965350404L252.82208333333332,43.170667872974036L253.74479166666666,58.10875991949365L254.66750000000002,50.67165498714999L255.59020833333332,47.07400150764798L256.5129166666667,47.35631177227984L257.435625,43.496081813581526L258.35833333333335,42.046353855376054L259.2810416666667,56.469604086068045" style="fill: none;" fill="none"></path></g></g></g></g><g opacity="0.2"><g><g><g><path stroke="rgb(255, 112, 67)" stroke-width="2px" d="M20.299583333333334,269.0585787296295L21.222291666666663,78.1474531888962L22.145,250.8907241076231L23.067708333333332,71.02792900800706L23.99041666666667,215.2948923110962L24.913125,64.99695611000062L25.835833333333333,125.24922263622284L26.758541666666666,60.737349510192885L27.681250000000002,171.26776856184006L28.603958333333335,167.8399960398674L29.526666666666667,185.10877338051796L30.449375,57.66412806510927L31.372083333333332,249.35351994633675L32.29479166666667,96.16675031185152L33.2175,156.78137493133545L34.140208333333334,90.12320530414583L35.062916666666666,63.657437384128585L35.985625,41.192097187042265L36.90833333333333,47.6165683269501L37.831041666666664,238.94417357444763L38.753750000000004,61.923242330551176L39.676458333333336,53.660957336425795L40.59916666666667,175.88702541589737L41.521875,60.7564626336098L42.44458333333333,255.0075405538082L43.36729166666667,85.42213302850725L44.29,144.35986679792404L45.21270833333333,44.27083981037143L46.135416666666664,47.43908178806308L47.058125000000004,214.06293106079102L47.98083333333334,206.85096231102943L48.90354166666667,59.31881111860278L49.82625,114.86065101623537L50.74895833333333,69.47959017753601L51.67166666666667,39.46806532144549L52.594375,111.83900159597398L53.51708333333333,38.940898299217224L54.439791666666665,35.477132618427305L55.362500000000004,46.396616518497495L56.28520833333334,35.80882531404498L57.20791666666667,53.334416568279295L58.130624999999995,36.667315781116486L59.053333333333335,107.58681517839433L59.97604166666667,201.92188647389412L60.89875,42.72672098875046L61.82145833333333,42.300341844558716L62.744166666666665,225.92760902643204L63.666875000000005,74.81190544366838L64.58958333333334,77.1427921652794L65.51229166666667,66.60787415504456L66.435,217.73771476745605L67.35770833333333,40.66041123867038L68.28041666666667,87.85124045610428L69.203125,42.98570644855502L70.12583333333333,72.36298155784608L71.04854166666667,129.11100548505783L71.97125,45.0863565206528L72.89395833333333,37.09617418050766L73.81666666666666,37.11461913585666L74.73937500000001,60.47723871469499L75.66208333333333,224.69779294729233L76.58479166666667,157.46965837478638L77.50750000000001,33.85758113861084L78.43020833333333,91.65457618236543L79.35291666666667,56.267990887165084L80.27562499999999,33.35900467634204L81.19833333333334,33.959248185157804L82.12104166666667,33.0769322514534L83.04375,234.33861416578293L83.96645833333334,48.55717313289645L84.88916666666665,39.42454648017886L85.811875,42.561912059783964L86.73458333333333,77.37244856357576L87.65729166666667,36.23638254404071L88.58,39.46268481016162L89.50270833333333,124.91615843772888L90.42541666666666,55.830270469188704L91.34812500000001,44.25557744503021L92.27083333333333,34.455169558525114L93.19354166666666,41.74611401557925L94.11625000000001,39.50435739755633L95.03895833333333,44.52537667751315L95.96166666666667,32.01028984785083L96.88437499999999,32.97463220357898L97.80708333333334,39.0565265417099L98.72979166666667,37.837647318840055L99.6525,102.46358376741411L100.57520833333334,31.289828836917906L101.49791666666665,54.74261593818666L102.420625,34.78884917497638L103.34333333333333,65.20909947156909L104.26604166666667,46.27121192216873L105.18875,45.7372225522995L106.11145833333335,74.31392681598663L107.03416666666666,35.048344552516966L107.956875,33.19614750146866L108.87958333333333,171.37785804271698L109.80229166666666,65.05014580488206L110.72500000000001,62.167791843414335L111.64770833333333,37.559197068214445L112.57041666666667,32.742021799087524L113.49312499999999,31.97283726930621L114.41583333333334,34.810107469558744L115.33854166666667,33.481595933437376L116.26124999999999,37.48515349626541L117.18395833333334,40.93033355474475L118.10666666666667,34.55317926406863L119.029375,42.85675001144409L119.95208333333333,35.775135576725035L120.87479166666667,34.45495855808261L121.7975,129.82603323459625L122.72020833333335,32.28244525194171L123.64291666666666,36.9966171383858L124.565625,33.9770073890686L125.48833333333333,32.639809668064146L126.41104166666666,173.26545041799545L127.33375000000001,43.59013479948044L128.25645833333334,33.65880113840106L129.17916666666667,33.886101365089445L130.101875,38.13958895206454L131.02458333333334,93.09658837318422L131.94729166666667,54.34073042869571L132.87,168.77456974983215L133.79270833333334,32.83799183368686L134.71541666666667,32.23781865835193L135.638125,40.10653507709506L136.56083333333333,31.296018183231382L137.48354166666667,32.14540046453479L138.40625,31.22740787267685L139.32895833333333,31.36541974544528L140.25166666666667,33.02012038230896L141.174375,40.01511913537982L142.09708333333333,40.38985592126849L143.0197916666667,38.34445279836655L143.9425,37.532118678092985L144.86520833333333,92.78886181116106L145.78791666666666,30.9039617776871L146.710625,32.590963065624265L147.63333333333333,33.671724915504484L148.55604166666666,36.86713320016861L149.47875000000002,31.30206686258319L150.40145833333332,45.125954270362854L151.32416666666666,34.06611990928653L152.24687500000002,37.94592571258545L153.16958333333335,30.91809880733493L154.09229166666665,38.55274540185931L155.01500000000001,31.784800708293943L155.93770833333335,32.845429599285154L156.86041666666665,53.32743597030641L157.78312499999998,33.86341881752017L158.70583333333335,34.03958660364154L159.62854166666668,32.07081180810931L160.55124999999998,31.89416927099228L161.47395833333334,31.97981786727908L162.39666666666668,30.97879660129547L163.31937499999998,30.604798316955566L164.24208333333334,35.87557178735736L165.16479166666667,31.2349511384964L166.0875,30.982752859592438L167.01020833333334,36.175157248973846L167.93291666666667,75.06714564561844L168.855625,78.48074597120286L169.7783333333333,45.8967037200928L170.70104166666667,37.51135271787646L171.62375,48.48618906736374L172.54645833333333,40.217855393886595L173.46916666666667,43.256138682365446L174.391875,33.278806924819946L175.31458333333333,33.70610040426257L176.2372916666667,33.09557062387469L177.16,32.81975787878039L178.08270833333333,34.775380313396454L179.00541666666666,37.35201221704483L179.928125,32.00550717115405L180.85083333333333,32.582575798034696L181.77354166666666,79.09255933761597L182.69625000000002,31.756720066070585L183.61895833333332,38.229615807533264L184.54166666666666,32.227391719818115L185.46437500000002,40.172349631786346L186.38708333333332,33.43093824386597L187.30979166666665,33.690416038036346L188.23250000000002,31.187089204788236L189.15520833333335,32.284186005592375L190.07791666666665,32.75206190347674L191.00062499999999,30.769642412662506L191.92333333333335,35.427459597587614L192.84604166666665,34.841775119304685L193.76874999999998,32.188286304473905L194.69145833333334,34.277788519859314L195.61416666666668,30.573306500911713L196.53687499999998,30.611620664596586L197.45958333333334,31.202492237091093L198.38229166666667,32.76189100742343L199.305,34.0077255368233L200.22770833333334,31.500618278980284L201.15041666666667,31.736235439777374L202.073125,33.3126549124718L202.9958333333333,31.34101402759555L203.91854166666667,30.637591302394895L204.84125,31.596517980098753L205.76395833333333,32.272915065288544L206.68666666666667,31.025621116161375L207.609375,30.490910828113556L208.53208333333333,33.23632550239566L209.45479166666667,31.769116342067747L210.3775,30.026375770568876L211.30020833333333,31.486217498779325L212.2229166666667,33.21214836835864L213.145625,32.74203938245776L214.06833333333333,33.89484030008319L214.99104166666666,33.866267323493986L215.91375,33.079077422618894L216.83645833333333,31.53247934579852L217.75916666666666,31.691995680332212L218.68187500000002,30.98298144340518L219.60458333333332,29.87992388010028L220.52729166666666,35.29189181327823L221.45000000000002,32.9111034870148L222.37270833333335,31.65672343969348L223.29541666666665,30.034622371196747L224.21812500000001,30.254203498363523L225.14083333333335,33.88436061143878L226.06354166666665,37.83114147186279L226.98624999999998,29.882631719112425L227.90895833333335,30.17929834127429L228.83166666666668,34.106069326400785L229.75437499999998,32.79243332147601L230.67708333333334,30.356345295906067L231.59979166666668,30.52391481399539L232.52249999999998,30.894378840923338L233.44520833333334,29.76993989944461L234.36791666666667,32.92130184173587L235.290625,30.20834606885913L236.21333333333334,33.09868288040164L237.13604166666667,32.44491559267047L238.05875,31.524742662906675L238.9814583333333,30.5068941116333L239.90416666666667,31.955605566501646L240.826875,30.19371670484543L241.74958333333333,30.839184641838102L242.67229166666667,39.02243238687518L243.595,30.055810332298307L244.51770833333333,32.589011311531095L245.4404166666667,37.74044644832614L246.363125,32.13179093599322L247.28583333333333,36.988898038864164L248.20854166666666,30.852161169052152L249.13125,31.93072509765625L250.05395833333333,31.91519898176196L250.97666666666666,32.683223009109525L251.89937500000002,35.46303075551987L252.82208333333332,38.28517925739291L253.74479166666666,36.77292150259018L254.66750000000002,32.775781869888306L255.59020833333332,31.609740674495697L256.5129166666667,33.629155576229124L257.435625,31.276606142520933L258.35833333333335,30.905614614486723L259.2810416666667,32.05285918712619" style="fill: none;" fill="none"></path></g><g><path stroke="rgb(0, 119, 187)" stroke-width="2px" d="M19.376875000000002,261.16714020073414L20.299583333333334,134.07672506570816L21.222291666666663,100.8873401284218L22.145,149.39430218935013L23.067708333333332,226.64468523859978L23.99041666666667,125.4181460738182L24.913125,192.71322932839394L26.758541666666666,202.52125960588455L27.681250000000002,139.51693189144135L28.603958333333335,311.98310867697L29.526666666666667,274.1276841312647L30.449375,56.7540655732155L31.372083333333332,39.75189608335498L32.29479166666667,69.86907941102983L33.2175,162.11332094669342L34.140208333333334,153.31073415279388L35.062916666666666,61.953942894935636L35.985625,130.47920268774033L36.90833333333333,106.75918352603914L37.831041666666664,42.078000128269196L38.753750000000004,48.50473952293399L39.676458333333336,124.64373928308487L40.59916666666667,218.42817854881287L41.521875,46.131301045417814L42.44458333333333,116.48250591754915L43.36729166666667,90.164578974247L44.29,56.7078037261963L45.21270833333333,92.2031245827675L46.135416666666664,173.15010350942612L47.058125000000004,216.02756497263908L47.98083333333334,70.73936831951141L48.90354166666667,307.54170871153474L49.82625,85.76376032829285L50.74895833333333,62.03971457481387L51.67166666666667,58.9965606927872L52.594375,41.002706706523924L53.51708333333333,251.41242709755898L54.439791666666665,52.32581686973573L55.362500000000004,41.42120850086212L56.28520833333334,45.63086074590686L57.20791666666667,50.069940805435195L58.130624999999995,39.831935584545164L59.053333333333335,43.22818112373355L59.97604166666667,43.190693378448515L60.89875,272.08201725780964L61.82145833333333,212.63218101859093L62.744166666666665,126.90710586309433L63.666875000000005,115.95250797271729L64.58958333333334,160.76852720975876L65.51229166666667,123.57526820898056L66.435,51.64991211891176L67.35770833333333,224.24553108215332L68.28041666666667,57.099420547485366L69.203125,36.543915688991575L70.12583333333333,44.6343056559563L71.04854166666667,58.34720683097842L71.97125,34.77956515550616L72.89395833333333,34.44257986545563L73.81666666666666,36.76001530885699L74.73937500000001,60.95193696022035L75.66208333333333,59.91982829570772L76.58479166666667,143.61835849285126L77.50750000000001,38.891875863075285L78.43020833333333,54.04415172338487L79.35291666666667,34.97806382179263L80.27562499999999,50.35254073143007L81.19833333333334,39.700183391571045L82.12104166666667,64.2364577651024L83.04375,46.66942250728607L83.96645833333334,38.04346066713333L84.88916666666665,36.07009661197665L85.811875,37.40354907512665L86.73458333333333,57.94493448734286L87.65729166666667,41.80238080024719L88.58,89.09665298461915L89.50270833333333,121.45900410413743L90.42541666666666,70.97456347942354L91.34812500000001,36.942688941955595L92.27083333333333,49.29493618011476L93.19354166666666,33.7530831694603L94.11625000000001,47.635786950588255L95.03895833333333,59.80479788780215L95.96166666666667,40.01693022251132L96.88437499999999,249.01356306672096L97.80708333333334,36.721314311027555L98.72979166666667,34.16755837202075L99.6525,81.60063368082048L100.57520833333334,32.59803158044818L101.49791666666665,58.59479826688768L102.420625,47.10112941265106L103.34333333333333,69.84792661666872L104.26604166666667,37.69587260484698L105.18875,105.6783689260483L106.11145833333335,48.03675812482834L107.03416666666666,44.71283298730853L107.956875,77.82701385021211L108.87958333333333,56.97253894805911L109.80229166666666,37.37610143423083L110.72500000000001,40.183075487613706L111.64770833333333,37.16773849725726L112.57041666666667,70.00343394279481L113.49312499999999,54.13208615779878L114.41583333333334,34.453762888908386L115.33854166666667,122.40453225374222L116.26124999999999,53.93010598421098L117.18395833333334,37.112122297287016L118.10666666666667,38.28238350152972L119.029375,48.234553456306486L119.95208333333333,123.53480887413025L120.87479166666667,37.85746377706528L121.7975,47.682681798934965L122.72020833333335,58.70858025550844L123.64291666666666,39.32673019170764L124.565625,35.261771500110655L125.48833333333333,35.55059593915939L126.41104166666666,78.48739248514177L127.33375000000001,59.609358727932005L128.25645833333334,44.2259846329689L129.17916666666667,34.768083214759855L130.101875,46.41321521997452L131.02458333333334,35.9105099439621L131.94729166666667,61.370684921741514L132.87,38.865078806877165L133.79270833333334,81.41999971866608L134.71541666666667,35.69133323431015L135.638125,35.874516785144834L136.56083333333333,44.99042165279391L137.48354166666667,33.83475792407992L138.40625,37.92004299163821L139.32895833333333,58.61895781755449L140.25166666666667,35.951953947544126L141.174375,121.56580549478531L142.09708333333333,40.31758826971057L143.0197916666667,58.67800277471545L143.9425,42.78151077032092L144.86520833333333,48.39450937509537L145.78791666666666,38.647889018058805L146.710625,42.921456813812284L147.63333333333333,40.1424227356911L148.55604166666666,38.55626207590106L149.47875000000002,126.75131720304489L150.40145833333332,85.6481672525406L151.32416666666666,54.41758733987811L152.24687500000002,37.671994388103485L153.16958333333335,38.02905988693237L154.09229166666665,54.16751664876939L155.01500000000001,67.34317553043367L155.93770833333335,32.88390201330188L156.86041666666665,35.72836381196976L157.78312499999998,66.44146513938905L158.70583333333335,61.241376817226424L159.62854166666668,37.827308297157316L160.55124999999998,33.098208129406004L161.47395833333334,33.24694585800171L162.39666666666668,38.00307166576388L163.31937499999998,37.37434309720996L164.24208333333334,49.018789350986495L165.16479166666667,37.264534950256376L166.0875,40.42018723487857L167.01020833333334,49.07370221614839L167.93291666666667,34.625992000103L168.855625,46.83618319034579L169.7783333333333,60.64702373743059L170.70104166666667,45.184295892715454L171.62375,50.50702822208406L172.54645833333333,37.83379656076434L173.46916666666667,53.191885769367246L174.391875,50.241413831710844L175.31458333333333,41.42048758268359L176.2372916666667,47.48026204109195L177.16,99.06939548254014L178.08270833333333,60.68449389934541L179.00541666666666,39.47082591056824L179.928125,65.72132062911989L180.85083333333333,70.00538569688798L181.77354166666666,69.57220178842546L182.69625000000002,40.58286857604983L183.61895833333332,48.67264312505725L184.54166666666666,34.354663014411955L185.46437500000002,40.77651423215869L186.38708333333332,101.05469864606857L187.30979166666665,43.207995414733915L188.23250000000002,76.23814535140991L189.15520833333335,38.57954245805743L190.07791666666665,39.41005778312683L191.00062499999999,39.215427458286314L191.92333333333335,34.680729031562834L192.84604166666665,34.26774841547015L193.76874999999998,34.88117945194247L194.69145833333334,37.067337453365354L195.61416666666668,35.276682198047666L196.53687499999998,33.999021768569975L197.45958333333334,65.18574875593187L198.38229166666667,35.5821932554245L199.305,41.90454018116L200.22770833333334,48.53865784406665L201.15041666666667,52.90496033430101L202.073125,56.230503141880064L202.9958333333333,40.950747847557096L203.91854166666667,42.00882714986804L204.84125,40.06458115577698L205.76395833333333,39.779888808727264L206.68666666666667,41.32908922433856L207.609375,76.88341987133028L208.53208333333333,59.14839309453966L209.45479166666667,33.37572646141055L210.3775,51.20874536037448L211.30020833333333,47.38262158632281L212.2229166666667,65.30918401479722L213.145625,39.99169808626178L214.06833333333333,50.398820161819486L214.99104166666666,37.75597256422043L215.91375,36.90928053855896L216.83645833333333,42.04499614238742L217.75916666666666,39.2868159413338L218.68187500000002,39.26828306913379L219.60458333333332,56.3973869085312L220.52729166666666,68.49711936712265L221.45000000000002,65.78996610641481L222.37270833333335,38.921222507953644L223.29541666666665,37.70190370082855L224.21812500000001,38.16865426301959L225.14083333333335,59.79621720314027L226.06354166666665,119.70033299922943L226.98624999999998,39.94318556785586L227.90895833333335,56.84101533889772L228.83166666666668,41.48994189500809L229.75437499999998,37.41826635599136L230.67708333333334,36.067670106887846L231.59979166666668,40.58708858489993L232.52249999999998,34.18454390764239L233.44520833333334,55.107259869575515L234.36791666666667,55.57209384441377L235.290625,94.3261407017708L236.21333333333334,43.000581979751615L237.13604166666667,41.49982374906543L238.05875,73.52325540781021L238.9814583333333,49.173716425895705L239.90416666666667,43.19799047708511L240.826875,61.626188874244704L241.74958333333333,51.92171585559848L242.67229166666667,74.8686997294426L243.595,40.91621410846713L244.51770833333333,37.16387015581134L245.4404166666667,99.07245498895647L246.363125,80.72644126415253L247.28583333333333,73.37747168540956L248.20854166666666,39.86462306976321L249.13125,41.40955072641373L250.05395833333333,47.35955220460892L250.97666666666666,55.553332388401046L251.89937500000002,35.1459850072861L252.82208333333332,39.609875202178955L253.74479166666666,80.51589798927309L254.66750000000002,39.51599758863452L255.59020833333332,41.67752128839493L256.5129166666667,47.77977716922763L257.435625,37.705736875534086L258.35833333333335,39.87176191806796L259.2810416666667,78.10447943210603" style="fill: none;" fill="none"></path></g></g></g></g></g></g><g transform="translate(53, 177)" clip-path="url(#clip_1)"><clipPath id="clip_1"><rect width="276" height="23"></rect></clipPath><g><g><line x1="0" y1="0" x2="0" y2="5" style="visibility: inherit;" fill="rgb(0, 0, 0)" stroke="rgb(204, 204, 204)" stroke-width="1px"></line><line x1="18.454166666666666" y1="0" x2="18.454166666666666" y2="5" style="visibility: inherit;" fill="rgb(0, 0, 0)" stroke="rgb(204, 204, 204)" stroke-width="1px"></line><line x1="36.90833333333333" y1="0" x2="36.90833333333333" y2="5" style="visibility: inherit;" fill="rgb(0, 0, 0)" stroke="rgb(204, 204, 204)" stroke-width="1px"></line><line x1="55.362500000000004" y1="0" x2="55.362500000000004" y2="5" style="visibility: inherit;" fill="rgb(0, 0, 0)" stroke="rgb(204, 204, 204)" stroke-width="1px"></line><line x1="73.81666666666666" y1="0" x2="73.81666666666666" y2="5" style="visibility: inherit;" fill="rgb(0, 0, 0)" stroke="rgb(204, 204, 204)" stroke-width="1px"></line><line x1="92.27083333333333" y1="0" x2="92.27083333333333" y2="5" style="visibility: inherit;" fill="rgb(0, 0, 0)" stroke="rgb(204, 204, 204)" stroke-width="1px"></line><line x1="110.72500000000001" y1="0" x2="110.72500000000001" y2="5" style="visibility: inherit;" fill="rgb(0, 0, 0)" stroke="rgb(204, 204, 204)" stroke-width="1px"></line><line x1="129.17916666666667" y1="0" x2="129.17916666666667" y2="5" style="visibility: inherit;" fill="rgb(0, 0, 0)" stroke="rgb(204, 204, 204)" stroke-width="1px"></line><line x1="147.63333333333333" y1="0" x2="147.63333333333333" y2="5" style="visibility: inherit;" fill="rgb(0, 0, 0)" stroke="rgb(204, 204, 204)" stroke-width="1px"></line><line x1="166.0875" y1="0" x2="166.0875" y2="5" style="visibility: inherit;" fill="rgb(0, 0, 0)" stroke="rgb(204, 204, 204)" stroke-width="1px"></line><line x1="184.54166666666666" y1="0" x2="184.54166666666666" y2="5" style="visibility: inherit;" fill="rgb(0, 0, 0)" stroke="rgb(204, 204, 204)" stroke-width="1px"></line><line x1="202.9958333333333" y1="0" x2="202.9958333333333" y2="5" style="visibility: inherit;" fill="rgb(0, 0, 0)" stroke="rgb(204, 204, 204)" stroke-width="1px"></line><line x1="221.45000000000002" y1="0" x2="221.45000000000002" y2="5" style="visibility: inherit;" fill="rgb(0, 0, 0)" stroke="rgb(204, 204, 204)" stroke-width="1px"></line><line x1="239.90416666666667" y1="0" x2="239.90416666666667" y2="5" style="visibility: inherit;" fill="rgb(0, 0, 0)" stroke="rgb(204, 204, 204)" stroke-width="1px"></line><line x1="258.35833333333335" y1="0" x2="258.35833333333335" y2="5" style="visibility: inherit;" fill="rgb(0, 0, 0)" stroke="rgb(204, 204, 204)" stroke-width="1px"></line><line x1="276.8125" y1="0" x2="276.8125" y2="5" style="visibility: inherit;" fill="rgb(0, 0, 0)" stroke="rgb(204, 204, 204)" stroke-width="1px"></line></g><g transform="translate(0, 8)"><text x="0" y="0" dx="0em" dy="0.95em" style="text-anchor: middle; visibility: hidden; font-family: &quot;Helvetica Neue&quot;, sans-serif; font-size: 12px; font-weight: 200;" fill="rgb(50, 49, 63)" stroke="none" stroke-width="1px">-2k</text><text x="18.454166666666666" y="0" dx="0em" dy="0.95em" style="text-anchor: middle; visibility: inherit; font-family: &quot;Helvetica Neue&quot;, sans-serif; font-size: 12px; font-weight: 200;" fill="rgb(50, 49, 63)" stroke="none" stroke-width="1px">0</text><text x="36.90833333333333" y="0" dx="0em" dy="0.95em" style="text-anchor: middle; visibility: hidden; font-family: &quot;Helvetica Neue&quot;, sans-serif; font-size: 12px; font-weight: 200;" fill="rgb(50, 49, 63)" stroke="none" stroke-width="1px">2k</text><text x="55.362500000000004" y="0" dx="0em" dy="0.95em" style="text-anchor: middle; visibility: inherit; font-family: &quot;Helvetica Neue&quot;, sans-serif; font-size: 12px; font-weight: 200;" fill="rgb(50, 49, 63)" stroke="none" stroke-width="1px">4k</text><text x="73.81666666666666" y="0" dx="0em" dy="0.95em" style="text-anchor: middle; visibility: hidden; font-family: &quot;Helvetica Neue&quot;, sans-serif; font-size: 12px; font-weight: 200;" fill="rgb(50, 49, 63)" stroke="none" stroke-width="1px">6k</text><text x="92.27083333333333" y="0" dx="0em" dy="0.95em" style="text-anchor: middle; visibility: inherit; font-family: &quot;Helvetica Neue&quot;, sans-serif; font-size: 12px; font-weight: 200;" fill="rgb(50, 49, 63)" stroke="none" stroke-width="1px">8k</text><text x="110.72500000000001" y="0" dx="0em" dy="0.95em" style="text-anchor: middle; visibility: hidden; font-family: &quot;Helvetica Neue&quot;, sans-serif; font-size: 12px; font-weight: 200;" fill="rgb(50, 49, 63)" stroke="none" stroke-width="1px">10k</text><text x="129.17916666666667" y="0" dx="0em" dy="0.95em" style="text-anchor: middle; visibility: inherit; font-family: &quot;Helvetica Neue&quot;, sans-serif; font-size: 12px; font-weight: 200;" fill="rgb(50, 49, 63)" stroke="none" stroke-width="1px">12k</text><text x="147.63333333333333" y="0" dx="0em" dy="0.95em" style="text-anchor: middle; visibility: hidden; font-family: &quot;Helvetica Neue&quot;, sans-serif; font-size: 12px; font-weight: 200;" fill="rgb(50, 49, 63)" stroke="none" stroke-width="1px">14k</text><text x="166.0875" y="0" dx="0em" dy="0.95em" style="text-anchor: middle; visibility: inherit; font-family: &quot;Helvetica Neue&quot;, sans-serif; font-size: 12px; font-weight: 200;" fill="rgb(50, 49, 63)" stroke="none" stroke-width="1px">16k</text><text x="184.54166666666666" y="0" dx="0em" dy="0.95em" style="text-anchor: middle; visibility: hidden; font-family: &quot;Helvetica Neue&quot;, sans-serif; font-size: 12px; font-weight: 200;" fill="rgb(50, 49, 63)" stroke="none" stroke-width="1px">18k</text><text x="202.9958333333333" y="0" dx="0em" dy="0.95em" style="text-anchor: middle; visibility: inherit; font-family: &quot;Helvetica Neue&quot;, sans-serif; font-size: 12px; font-weight: 200;" fill="rgb(50, 49, 63)" stroke="none" stroke-width="1px">20k</text><text x="221.45000000000002" y="0" dx="0em" dy="0.95em" style="text-anchor: middle; visibility: hidden; font-family: &quot;Helvetica Neue&quot;, sans-serif; font-size: 12px; font-weight: 200;" fill="rgb(50, 49, 63)" stroke="none" stroke-width="1px">22k</text><text x="239.90416666666667" y="0" dx="0em" dy="0.95em" style="text-anchor: middle; visibility: inherit; font-family: &quot;Helvetica Neue&quot;, sans-serif; font-size: 12px; font-weight: 200;" fill="rgb(50, 49, 63)" stroke="none" stroke-width="1px">24k</text><text x="258.35833333333335" y="0" dx="0em" dy="0.95em" style="text-anchor: middle; visibility: hidden; font-family: &quot;Helvetica Neue&quot;, sans-serif; font-size: 12px; font-weight: 200;" fill="rgb(50, 49, 63)" stroke="none" stroke-width="1px">26k</text><text x="276.8125" y="0" dx="0em" dy="0.95em" style="text-anchor: middle; visibility: hidden; font-family: &quot;Helvetica Neue&quot;, sans-serif; font-size: 12px; font-weight: 200;" fill="rgb(50, 49, 63)" stroke="none" stroke-width="1px">28k</text></g><line x1="0" y1="0" x2="276.8125" y2="0" fill="rgb(0, 0, 0)" stroke="rgb(204, 204, 204)" stroke-width="1px"></line></g></g></g></g></svg>