<svg viewBox="0 0 330 200" xmlns="http://www.w3.org/2000/svg"><g><g><g><g><g><line x1="53.1875" y1="177" x2="48.1875" y2="177" style="visibility: inherit;" fill="rgb(0, 0, 0)" stroke="rgb(204, 204, 204)" stroke-width="1px"></line><line x1="53.1875" y1="154.875" x2="48.1875" y2="154.875" style="visibility: inherit;" fill="rgb(0, 0, 0)" stroke="rgb(204, 204, 204)" stroke-width="1px"></line><line x1="53.1875" y1="132.75" x2="48.1875" y2="132.75" style="visibility: inherit;" fill="rgb(0, 0, 0)" stroke="rgb(204, 204, 204)" stroke-width="1px"></line><line x1="53.1875" y1="110.62499999999999" x2="48.1875" y2="110.62499999999999" style="visibility: inherit;" fill="rgb(0, 0, 0)" stroke="rgb(204, 204, 204)" stroke-width="1px"></line><line x1="53.1875" y1="88.49999999999999" x2="48.1875" y2="88.49999999999999" style="visibility: inherit;" fill="rgb(0, 0, 0)" stroke="rgb(204, 204, 204)" stroke-width="1px"></line><line x1="53.1875" y1="66.375" x2="48.1875" y2="66.375" style="visibility: inherit;" fill="rgb(0, 0, 0)" stroke="rgb(204, 204, 204)" stroke-width="1px"></line><line x1="53.1875" y1="44.25" x2="48.1875" y2="44.25" style="visibility: inherit;" fill="rgb(0, 0, 0)" stroke="rgb(204, 204, 204)" stroke-width="1px"></line><line x1="53.1875" y1="22.125" x2="48.1875" y2="22.125" style="visibility: inherit;" fill="rgb(0, 0, 0)" stroke="rgb(204, 204, 204)" stroke-width="1px"></line><line x1="53.1875" y1="0" x2="48.1875" y2="0" style="visibility: inherit;" fill="rgb(0, 0, 0)" stroke="rgb(204, 204, 204)" stroke-width="1px"></line></g><g transform="translate(43.1875, 0)"><text x="0" y="177" dx="0em" dy="0.3em" style="text-anchor: end; visibility: hidden; font-family: &quot;Helvetica Neue&quot;, sans-serif; font-size: 12px; font-weight: 200;" fill="rgb(50, 49, 63)" stroke="none" stroke-width="1px">-0.1</text><text x="0" y="154.875" dx="0em" dy="0.3em" style="text-anchor: end; visibility: inherit; font-family: &quot;Helvetica Neue&quot;, sans-serif; font-size: 12px; font-weight: 200;" fill="rgb(50, 49, 63)" stroke="none" stroke-width="1px">0</text><text x="0" y="132.75" dx="0em" dy="0.3em" style="text-anchor: end; visibility: hidden; font-family: &quot;Helvetica Neue&quot;, sans-serif; font-size: 12px; font-weight: 200;" fill="rgb(50, 49, 63)" stroke="none" stroke-width="1px">0.1</text><text x="0" y="110.62499999999999" dx="0em" dy="0.3em" style="text-anchor: end; visibility: inherit; font-family: &quot;Helvetica Neue&quot;, sans-serif; font-size: 12px; font-weight: 200;" fill="rgb(50, 49, 63)" stroke="none" stroke-width="1px">0.2</text><text x="0" y="88.49999999999999" dx="0em" dy="0.3em" style="text-anchor: end; visibility: hidden; font-family: &quot;Helvetica Neue&quot;, sans-serif; font-size: 12px; font-weight: 200;" fill="rgb(50, 49, 63)" stroke="none" stroke-width="1px">0.3</text><text x="0" y="66.375" dx="0em" dy="0.3em" style="text-anchor: end; visibility: inherit; font-family: &quot;Helvetica Neue&quot;, sans-serif; font-size: 12px; font-weight: 200;" fill="rgb(50, 49, 63)" stroke="none" stroke-width="1px">0.4</text><text x="0" y="44.25" dx="0em" dy="0.3em" style="text-anchor: end; visibility: hidden; font-family: &quot;Helvetica Neue&quot;, sans-serif; font-size: 12px; font-weight: 200;" fill="rgb(50, 49, 63)" stroke="none" stroke-width="1px">0.5</text><text x="0" y="22.125" dx="0em" dy="0.3em" style="text-anchor: end; visibility: inherit; font-family: &quot;Helvetica Neue&quot;, sans-serif; font-size: 12px; font-weight: 200;" fill="rgb(50, 49, 63)" stroke="none" stroke-width="1px">0.6</text><text x="0" y="0" dx="0em" dy="0.3em" style="text-anchor: end; visibility: hidden; font-family: &quot;Helvetica Neue&quot;, sans-serif; font-size: 12px; font-weight: 200;" fill="rgb(50, 49, 63)" stroke="none" stroke-width="1px">0.7</text></g><line x1="53.1875" y1="0" x2="53.1875" y2="177" fill="rgb(0, 0, 0)" stroke="rgb(204, 204, 204)" stroke-width="1px"></line></g></g><g transform="translate(53, 0)" clip-path="url(#clip_0)"><clipPath id="clip_0"><rect width="276" height="177"></rect></clipPath><g><g><g><line x1="0" y1="0" x2="0" y2="177" fill="rgb(0, 0, 0)" stroke="rgb(60, 60, 60)" stroke-width="1px" opacity="0.25"></line><line x1="18.454166666666666" y1="0" x2="18.454166666666666" y2="177" fill="rgb(0, 0, 0)" stroke="rgb(60, 60, 60)" stroke-width="1px" opacity="0.25"></line><line x1="36.90833333333333" y1="0" x2="36.90833333333333" y2="177" fill="rgb(0, 0, 0)" stroke="rgb(60, 60, 60)" stroke-width="1px" opacity="0.25"></line><line x1="55.362500000000004" y1="0" x2="55.362500000000004" y2="177" fill="rgb(0, 0, 0)" stroke="rgb(60, 60, 60)" stroke-width="1px" opacity="0.25"></line><line x1="73.81666666666666" y1="0" x2="73.81666666666666" y2="177" fill="rgb(0, 0, 0)" stroke="rgb(60, 60, 60)" stroke-width="1px" opacity="0.25"></line><line x1="92.27083333333333" y1="0" x2="92.27083333333333" y2="177" fill="rgb(0, 0, 0)" stroke="rgb(60, 60, 60)" stroke-width="1px" opacity="0.25"></line><line x1="110.72500000000001" y1="0" x2="110.72500000000001" y2="177" fill="rgb(0, 0, 0)" stroke="rgb(60, 60, 60)" stroke-width="1px" opacity="0.25"></line><line x1="129.17916666666667" y1="0" x2="129.17916666666667" y2="177" fill="rgb(0, 0, 0)" stroke="rgb(60, 60, 60)" stroke-width="1px" opacity="0.25"></line><line x1="147.63333333333333" y1="0" x2="147.63333333333333" y2="177" fill="rgb(0, 0, 0)" stroke="rgb(60, 60, 60)" stroke-width="1px" opacity="0.25"></line><line x1="166.0875" y1="0" x2="166.0875" y2="177" fill="rgb(0, 0, 0)" stroke="rgb(60, 60, 60)" stroke-width="1px" opacity="0.25"></line><line x1="184.54166666666666" y1="0" x2="184.54166666666666" y2="177" fill="rgb(0, 0, 0)" stroke="rgb(60, 60, 60)" stroke-width="1px" opacity="0.25"></line><line x1="202.9958333333333" y1="0" x2="202.9958333333333" y2="177" fill="rgb(0, 0, 0)" stroke="rgb(60, 60, 60)" stroke-width="1px" opacity="0.25"></line><line x1="221.45000000000002" y1="0" x2="221.45000000000002" y2="177" fill="rgb(0, 0, 0)" stroke="rgb(60, 60, 60)" stroke-width="1px" opacity="0.25"></line><line x1="239.90416666666667" y1="0" x2="239.90416666666667" y2="177" fill="rgb(0, 0, 0)" stroke="rgb(60, 60, 60)" stroke-width="1px" opacity="0.25"></line><line x1="258.35833333333335" y1="0" x2="258.35833333333335" y2="177" fill="rgb(0, 0, 0)" stroke="rgb(60, 60, 60)" stroke-width="1px" opacity="0.25"></line><line x1="276.8125" y1="0" x2="276.8125" y2="177" fill="rgb(0, 0, 0)" stroke="rgb(60, 60, 60)" stroke-width="1px" opacity="0.25"></line></g><g><line x1="0" y1="177" x2="276.8125" y2="177" fill="rgb(0, 0, 0)" stroke="rgb(60, 60, 60)" stroke-width="1px" opacity="0.25"></line><line x1="0" y1="154.875" x2="276.8125" y2="154.875" fill="rgb(0, 0, 0)" stroke="rgb(60, 60, 60)" stroke-width="1px" opacity="0.25"></line><line x1="0" y1="132.75" x2="276.8125" y2="132.75" fill="rgb(0, 0, 0)" stroke="rgb(60, 60, 60)" stroke-width="1px" opacity="0.25"></line><line x1="0" y1="110.62499999999999" x2="276.8125" y2="110.62499999999999" fill="rgb(0, 0, 0)" stroke="rgb(60, 60, 60)" stroke-width="1px" opacity="0.25"></line><line x1="0" y1="88.49999999999999" x2="276.8125" y2="88.49999999999999" fill="rgb(0, 0, 0)" stroke="rgb(60, 60, 60)" stroke-width="1px" opacity="0.25"></line><line x1="0" y1="66.375" x2="276.8125" y2="66.375" fill="rgb(0, 0, 0)" stroke="rgb(60, 60, 60)" stroke-width="1px" opacity="0.25"></line><line x1="0" y1="44.25" x2="276.8125" y2="44.25" fill="rgb(0, 0, 0)" stroke="rgb(60, 60, 60)" stroke-width="1px" opacity="0.25"></line><line x1="0" y1="22.125" x2="276.8125" y2="22.125" fill="rgb(0, 0, 0)" stroke="rgb(60, 60, 60)" stroke-width="1px" opacity="0.25"></line><line x1="0" y1="0" x2="276.8125" y2="0" fill="rgb(0, 0, 0)" stroke="rgb(60, 60, 60)" stroke-width="1px" opacity="0.25"></line></g></g></g><g><g><line x1="0" y1="154.875" x2="276.8125" y2="154.875" fill="rgb(0, 0, 0)" stroke="rgb(153, 153, 153)" stroke-width="1.5px"></line></g></g><g><g><line x1="18.454166666666666" y1="0" x2="18.454166666666666" y2="177" fill="rgb(0, 0, 0)" stroke="rgb(153, 153, 153)" stroke-width="1.5px"></line></g></g><g><g><g><g><g><path stroke="rgb(255, 112, 67)" stroke-width="2px" d="M20.299583333333334,-13.736403107643127L21.222291666666663,10.870231660044908L22.145,1.91183357548843L23.067708333333332,20.759435644048835L23.99041666666667,14.273963002750065L24.913125,26.47087859499115L25.835833333333333,28.815942318538674L26.758541666666666,38.73243663359048L27.681250000000002,31.881959204462902L28.603958333333335,28.553446797328434L29.526666666666667,20.544040416131878L30.449375,30.86606721565022L31.372083333333332,20.188421503857313L32.29479166666667,26.882355186632765L33.2175,24.683785767701096L34.140208333333334,31.220946752337568L35.062916666666666,40.180144229525496L35.985625,49.13824973009039L36.90833333333333,51.550884357937505L37.831041666666664,35.86633722559873L38.753750000000004,40.510152264005626L39.676458333333336,47.93888111729649L40.59916666666667,37.82546068411375L41.521875,41.01739918992274L42.44458333333333,30.3702280861487L43.36729166666667,36.47587683703853L44.29,32.6204835277392L45.21270833333333,47.55485094612817L46.135416666666664,50.28136083574509L47.058125000000004,39.490092998398694L47.98083333333334,29.7469941226924L48.90354166666667,39.374547532877386L49.82625,39.66946170679165L50.74895833333333,43.684508320875864L51.67166666666667,53.01268128967847L52.594375,46.57676511248505L53.51708333333333,54.74185826079345L54.439791666666665,62.16001676898644L55.362500000000004,62.92032685608838L56.28520833333334,68.0281680042654L57.20791666666667,61.45373947096047L58.130624999999995,67.96734302632636L59.053333333333335,60.141356460244424L59.97604166666667,48.265047573995474L60.89875,54.71343238629498L61.82145833333333,58.13012579976943L62.744166666666665,45.61103076846763L63.666875000000005,47.867804948189644L64.58958333333334,46.42256087284039L65.51229166666667,47.27672966254619L66.435,40.40683712917277L67.35770833333333,52.06538732863142L68.28041666666667,53.145299393039124L69.203125,58.9114448029442L70.12583333333333,55.10573534957284L71.04854166666667,47.40415591473234L71.97125,56.621664362997194L72.89395833333333,62.449582468182555L73.81666666666666,70.79205344361746L74.73937500000001,64.97161763753088L75.66208333333333,52.823065637621625L76.58479166666667,46.0801512831886L77.50750000000001,61.47206674721485L78.43020833333333,53.63659711305286L79.35291666666667,55.163431219005474L80.27562499999999,67.62848265274998L81.19833333333334,73.37918515088937L82.12104166666667,79.46532658983935L83.04375,57.02906444221536L83.96645833333334,63.57117245525002L84.88916666666665,69.99097153204607L85.811875,71.5614535311337L86.73458333333333,67.89812793430542L87.65729166666667,73.30124680457622L88.58,76.00536767398184L89.50270833333333,64.57992098185342L90.42541666666666,67.00246374877048L91.34812500000001,66.87845515055508L92.27083333333333,74.04129923190507L93.19354166666666,75.73957254174847L94.11625000000001,76.10758433749376L95.03895833333333,73.37990815645513L95.96166666666667,81.38301063898835L96.88437499999999,86.09069208099622L97.80708333333334,82.85088975306857L98.72979166666667,77.85818383739299L99.6525,70.56576837686244L100.57520833333334,76.71865565530983L101.49791666666665,73.0227825042756L102.420625,74.29265018982598L103.34333333333333,70.7085234742338L104.26604166666667,76.17712044840898L105.18875,76.95223692730573L106.11145833333335,71.19578469202224L107.03416666666666,78.22617718818962L107.956875,85.50723708416929L108.87958333333333,70.85953990367597L109.80229166666666,69.23169372527327L110.72500000000001,67.58780261903122L111.64770833333333,71.41070081608962L112.57041666666667,81.98354322205466L113.49312499999999,87.98751949066212L114.41583333333334,89.65552968260222L115.33854166666667,93.36327102468356L116.26124999999999,91.78073989561761L117.18395833333334,87.42073402828913L118.10666666666667,89.11913831846083L119.029375,83.21317801961996L119.95208333333333,86.14176083856641L120.87479166666667,90.7617276087631L121.7975,79.72530593724424L122.72020833333335,84.88825492412671L123.64291666666666,88.13626718134181L124.565625,91.88405375844535L125.48833333333333,95.3841139415878L126.41104166666666,78.70176894903051L127.33375000000001,83.8175277736179L128.25645833333334,90.38527281739663L129.17916666666667,92.30900881384822L130.101875,91.05121204075223L131.02458333333334,80.60276219735745L131.94729166666667,79.12373466187837L132.87,65.64153820213153L133.79270833333334,76.89295871219915L134.71541666666667,87.6216638917439L135.638125,86.25581237880664L136.56083333333333,93.85013665383026L137.48354166666667,98.01264041736701L138.40625,100.40639639541494L139.32895833333333,102.50956039962165L140.25166666666667,100.50478819511528L141.174375,94.49438792766448L142.09708333333333,93.33302044452022L143.0197916666667,91.48330144930358L143.9425,91.68676845639035L144.86520833333333,82.12099280601194L145.78791666666666,89.80007813808591L146.710625,96.40730449370902L147.63333333333333,100.16868030019022L148.55604166666666,99.40949710898052L149.47875000000002,102.38457877005607L150.40145833333332,100.92797126212996L151.32416666666666,102.33831205421258L152.24687500000002,96.99346155198556L153.16958333333335,99.98042704029166L154.09229166666665,99.08909215547612L155.01500000000001,102.79654479633551L155.93770833333335,103.08434354430904L156.86041666666665,94.81438868741078L157.78312499999998,99.99345046579766L158.70583333333335,99.71012097179847L159.62854166666668,103.00829007375214L160.55124999999998,106.03152767508014L161.47395833333334,106.61666827761402L162.39666666666668,108.26357756920618L163.31937499999998,109.15832511703944L164.24208333333334,107.23652263951764L165.16479166666667,108.86578793807307L166.0875,110.14760184278177L167.01020833333334,107.63820355379633L167.93291666666667,98.98731812682182L168.855625,86.28258372453708L169.7783333333333,92.94050359492219L170.70104166666667,100.06788545557687L171.62375,96.96500532751577L172.54645833333333,102.67666602090179L173.46916666666667,104.38858885887372L174.391875,108.7572260130829L175.31458333333333,110.8023072036735L176.2372916666667,111.41070130185076L177.16,112.0153960196125L178.08270833333333,113.75399771678133L179.00541666666666,100.7508355399828L179.928125,106.15828333621387L180.85083333333333,110.28006284132698L181.77354166666666,102.25652054366527L182.69625000000002,106.80332034031784L183.61895833333332,107.87466562509677L184.54166666666666,110.99881426227176L185.46437500000002,108.04510691900303L186.38708333333332,110.4488120519474L187.30979166666665,112.58069139679401L188.23250000000002,113.44435781365709L189.15520833333335,114.59156448916242L190.07791666666665,113.56560616806533L191.00062499999999,115.47763053247562L191.92333333333335,112.47617291312952L192.84604166666665,114.70198331118547L193.76874999999998,115.19865311587405L194.69145833333334,114.48834190907809L195.61416666666668,117.0000778713389L196.53687499999998,117.96616047045967L197.45958333333334,117.55536472154486L198.38229166666667,116.41239650459782L199.305,116.63966460175334L200.22770833333334,118.43941843597304L201.15041666666667,118.0945298110736L202.073125,118.06586563499525L202.9958333333333,119.59510255999419L203.91854166666667,120.76807393817339L204.84125,120.03669769280094L205.76395833333333,120.12623947240675L206.68666666666667,120.82122785376168L207.609375,121.65775833741819L208.53208333333333,119.18910162279602L209.45479166666667,119.36362015384195L210.3775,120.18333792196367L211.30020833333333,120.80206424895916L212.2229166666667,120.08032170923943L213.145625,114.11896172906395L214.06833333333333,115.91632833031079L214.99104166666666,117.65940759746587L215.91375,119.5742024550936L216.83645833333333,116.81963580221542L217.75916666666666,115.81200724465018L218.68187500000002,119.19899933113078L219.60458333333332,121.49585771306407L220.52729166666666,114.5156122132781L221.45000000000002,114.5038652470495L222.37270833333335,94.17432790999327L223.29541666666665,106.50871174338289L224.21812500000001,106.86358625473277L225.14083333333335,113.01300445515929L226.06354166666665,102.2413193662108L226.98624999999998,111.59149382586128L227.90895833333335,117.21151288494374L228.83166666666668,118.53584151354377L229.75437499999998,119.44619485221472L230.67708333333334,121.32268420149188L231.59979166666668,123.23036610060512L232.52249999999998,122.8978798298453L233.44520833333334,124.59783778836814L234.36791666666667,124.03650139719538L235.290625,124.71547019899066L236.21333333333334,125.33600808334455L237.13604166666667,125.4542823249227L238.05875,125.9522036277727L238.9814583333333,126.45564398249839L239.90416666666667,125.1986193319014L240.826875,125.1320668524415L241.74958333333333,125.16191584860746L242.67229166666667,122.00218759474434L243.595,121.15559781788158L244.51770833333333,119.65502138256053L245.4404166666667,117.63725542169225L246.363125,120.69088709438688L247.28583333333333,118.64713566949874L248.20854166666666,118.65403997570817L249.13125,121.67801298004714L250.05395833333333,124.05968070359425L250.97666666666666,118.35622151095507L251.89937500000002,119.44452969818614L252.82208333333332,121.8566635435182L253.74479166666666,120.01171713384142L254.66750000000002,123.14586741365284L255.59020833333332,124.39005805335813L256.5129166666667,121.80346834082826L257.435625,112.64278712522639L258.35833333333335,118.84732749105487L259.2810416666667,110.8519139918148" style="fill: none;" fill="none"></path></g><g><path stroke="rgb(0, 119, 187)" stroke-width="2px" d="M19.376875000000002,-13.031780317425728L20.299583333333334,12.047171808779211L21.222291666666663,25.439789069550358L22.145,26.9409716098624L23.067708333333332,22.387546448576046L23.99041666666667,22.296652604470665L24.913125,20.248091212570188L25.835833333333333,18.455979401089905L26.758541666666666,14.427881090091034L27.681250000000002,15.233430892951702L28.603958333333335,-1.1243275520525629L29.526666666666667,-2.8198299320530396L30.449375,20.05244021949531L31.372083333333332,38.19153054063253L32.29479166666667,42.059602897363334L33.2175,32.61837328199252L34.140208333333334,31.052971584191994L35.062916666666666,42.21581998639385L35.985625,37.91687393486538L36.90833333333333,35.37129283943713L37.831041666666664,47.18059510629348L38.753750000000004,54.061229403450824L39.676458333333336,45.263982198674626L40.59916666666667,35.60239767759339L41.521875,45.86977160020129L42.44458333333333,40.139306176002606L43.36729166666667,42.90062287440344L44.29,46.46077339521244L45.21270833333333,43.76957130616802L46.135416666666664,36.398039941641315L47.058125000000004,26.07565451115724L47.98083333333334,35.811297627954076L48.90354166666667,18.78533487835037L49.82625,28.364121278300843L50.74895833333333,37.994729553421394L51.67166666666667,44.91168709960948L52.594375,54.71266974236711L53.51708333333333,38.50554562288278L54.439791666666665,42.56019619222468L55.362500000000004,54.441770981434914L56.28520833333334,57.17450843415328L57.20791666666667,57.07786782475628L58.130624999999995,61.067109323057934L59.053333333333335,62.69149958311648L59.97604166666667,63.03413466349309L60.89875,39.50392250710041L61.82145833333333,33.10967741282684L62.744166666666665,29.963539629340488L63.666875000000005,33.55048499062144L64.58958333333334,26.977472684058938L65.51229166666667,30.788089812579415L66.435,44.49030143073173L67.35770833333333,33.36186447171994L68.28041666666667,43.10993920523131L69.203125,59.049091593980094L70.12583333333333,59.572604031300315L71.04854166666667,60.91208133157269L71.97125,66.65506124530022L72.89395833333333,73.73267848511864L73.81666666666666,78.36825451982239L74.73937500000001,72.96223700780985L75.66208333333333,67.27850397073806L76.58479166666667,56.332958320638895L77.50750000000001,61.9661829172739L78.43020833333333,63.7594655602675L79.35291666666667,71.48629305657751L80.27562499999999,65.62895511029365L81.19833333333334,73.9504982020748L82.12104166666667,68.20395518459632L83.04375,65.7561899341211L83.96645833333334,72.08859694403796L84.88916666666665,77.38440881313316L85.811875,79.94536055410762L86.73458333333333,73.41118841043031L87.65729166666667,71.5034104327614L88.58,60.55347395779219L89.50270833333333,55.6083605429025L90.42541666666666,55.164907898932185L91.34812500000001,64.10762357498974L92.27083333333333,64.56318300834756L93.19354166666666,72.06883841080347L94.11625000000001,66.00736564590262L95.03895833333333,66.57969816442564L95.96166666666667,75.72835186669965L96.88437499999999,56.84250921934688L97.80708333333334,68.05483950930741L98.72979166666667,77.74908325527848L99.6525,69.12361190292084L100.57520833333334,78.96076528771425L101.49791666666665,76.10238488342588L102.420625,77.13905297414196L103.34333333333333,76.05666346666655L104.26604166666667,78.07229722629452L105.18875,65.67202234024087L106.11145833333335,73.96319848748612L107.03416666666666,70.22870793612343L107.956875,71.89003423852647L108.87958333333333,72.05032404066874L109.80229166666666,76.12554954172226L110.72500000000001,82.24560042429597L111.64770833333333,81.88433112030404L112.57041666666667,76.32077612474667L113.49312499999999,80.49797248837415L114.41583333333334,82.1613910138432L115.33854166666667,71.82026516138457L116.26124999999999,73.0201833411392L117.18395833333334,83.10201024498559L118.10666666666667,86.23679465047132L119.029375,84.28268741364245L119.95208333333333,72.88285227295736L120.87479166666667,82.40977548764334L121.7975,86.33083260182254L122.72020833333335,85.86205862834281L123.64291666666666,84.05959182902708L124.565625,90.38165043845494L125.48833333333333,91.64653060170839L126.41104166666666,84.97613311906355L127.33375000000001,81.68094392478287L128.25645833333334,83.78376925206078L129.17916666666667,88.96532253155644L130.101875,89.85617037254295L131.02458333333334,93.85239189945293L131.94729166666667,88.4030658339419L132.87,93.28195385843264L133.79270833333334,77.59079488938895L134.71541666666667,86.89319311723617L135.638125,91.70480880824034L136.56083333333333,93.93696208707871L137.48354166666667,98.27086596585741L138.40625,98.03920651017089L139.32895833333333,96.90056986533676L140.25166666666667,97.95698630167885L141.174375,83.54309168072845L142.09708333333333,87.46572344668095L143.0197916666667,85.51143307189574L143.9425,87.46647620618599L144.86520833333333,89.79326833141005L145.78791666666666,93.71610028059574L146.710625,93.27366906113204L147.63333333333333,91.49129122320876L148.55604166666666,95.4981698726062L149.47875000000002,79.95411016550328L150.40145833333332,71.04011163119473L151.32416666666666,77.42480092945098L152.24687500000002,86.79013237775803L153.16958333333335,94.05286512477063L154.09229166666665,86.9289697629384L155.01500000000001,83.52916080487798L155.93770833333335,91.87897150655407L156.86041666666665,94.89850394093881L157.78312499999998,92.87560949721272L158.70583333333335,92.34501313864192L159.62854166666668,96.82935508310199L160.55124999999998,100.25619222503543L161.47395833333334,103.76968247909332L162.39666666666668,104.43980465959898L163.31937499999998,97.76962579865092L164.24208333333334,98.84108742224475L165.16479166666667,101.24917299835263L166.0875,101.5633850666188L167.01020833333334,100.46317831112759L167.93291666666667,103.96314953228125L168.855625,100.341177427532L169.7783333333333,100.60714345500573L170.70104166666667,102.34235041335643L171.62375,101.32883667943133L172.54645833333333,104.73685811160357L173.46916666666667,99.7934207153222L174.391875,100.71301318895227L175.31458333333333,102.99044106716755L176.2372916666667,103.6600938890269L177.16,96.33086497508828L178.08270833333333,97.40540519013015L179.00541666666666,102.12059688063863L179.928125,103.83743888731242L180.85083333333333,103.5528530841794L181.77354166666666,96.20389556084432L182.69625000000002,102.89096178677295L183.61895833333332,100.83159125785002L184.54166666666666,98.1237529155014L185.46437500000002,103.57163704254614L186.38708333333332,98.44134192954533L187.30979166666665,99.41632247442622L188.23250000000002,97.15060251042019L189.15520833333335,104.99746271422367L190.07791666666665,106.17778595060624L191.00062499999999,109.38130805057594L191.92333333333335,112.87113877333587L192.84604166666665,110.50017289338938L193.76874999999998,113.13157651733417L194.69145833333334,112.82338634676371L195.61416666666668,115.03058689860484L196.53687499999998,111.34742494689215L197.45958333333334,109.3571106613683L198.38229166666667,113.17966729229731L199.305,110.21457703009868L200.22770833333334,101.92661814746633L201.15041666666667,105.9089758983694L202.073125,89.7689198518659L202.9958333333333,98.97730141966733L203.91854166666667,105.69636867695564L204.84125,107.74513941707323L205.76395833333333,104.65660749347273L206.68666666666667,107.64459149820367L207.609375,102.21810462345339L208.53208333333333,99.84127199214493L209.45479166666667,106.16630004383202L210.3775,109.06814145169899L211.30020833333333,110.14946110023406L212.2229166666667,105.444351398786L213.145625,110.73834336330896L214.06833333333333,108.8024747582102L214.99104166666666,112.60537991892244L215.91375,114.65567399246063L216.83645833333333,116.60902016569713L217.75916666666666,109.54730266457521L218.68187500000002,109.6887687213762L219.60458333333332,111.98311575159688L220.52729166666666,111.08449828568257L221.45000000000002,108.88593328859302L222.37270833333335,112.6199146501177L223.29541666666665,114.94699563634117L224.21812500000001,105.56684236557315L225.14083333333335,101.38724470335859L226.06354166666665,99.67614728926787L226.98624999999998,107.59059566688043L227.90895833333335,111.36377272267045L228.83166666666668,113.27947679465353L229.75437499999998,117.29599830690228L230.67708333333334,120.02499399592402L231.59979166666668,121.22826591139986L232.52249999999998,115.33156454268666L233.44520833333334,110.47320053996785L234.36791666666667,112.79701717509117L235.290625,109.0576492462354L236.21333333333334,114.42309611521941L237.13604166666667,111.80281357754933L238.05875,108.4214128481726L238.9814583333333,110.96036010249735L239.90416666666667,115.99733683624434L240.826875,102.0607843110476L241.74958333333333,109.53274008986438L242.67229166666667,106.91017298017194L243.595,109.48802949556261L244.51770833333333,108.80641256909698L245.4404166666667,102.98177054310518L246.363125,104.87968188693927L247.28583333333333,103.77650942904238L248.20854166666666,111.10544327498963L249.13125,99.99926649392538L250.05395833333333,108.44812292522724L250.97666666666666,111.82729554573616L251.89937500000002,112.16820136845064L252.82208333333332,117.4905671887991L253.74479166666666,104.82336958726627L254.66750000000002,113.32706636178722L255.59020833333332,112.33865247212785L256.5129166666667,115.96390256609283L257.435625,116.02673114881372L258.35833333333335,118.59619095799599L259.2810416666667,116.56326219068332" style="fill: none;" fill="none"></path></g></g></g></g><g opacity="0.2"><g><g><g><path stroke="rgb(255, 112, 67)" stroke-width="2px" d="M20.299583333333334,-7.419049859046936L21.222291666666663,34.49260103702545L22.145,-8.623242571949959L23.067708333333332,45.366864904761314L23.99041666666667,5.302219569683075L24.913125,43.91266304254532L25.835833333333333,32.23506774008274L26.758541666666666,53.357339568436146L27.681250000000002,21.709798604249954L28.603958333333335,23.590867549180984L29.526666666666667,8.573517680168152L30.449375,46.31540420651436L31.372083333333332,4.192871555685997L32.29479166666667,36.915387243032455L33.2175,21.38748224079609L34.140208333333334,41.02392192184925L35.062916666666666,53.616665706038475L35.985625,62.574043303728104L36.90833333333333,55.169615775346756L37.831041666666664,12.34037670493126L38.753750000000004,47.47572201490402L39.676458333333336,59.081827729940414L40.59916666666667,22.655449837446213L41.521875,45.80528426170349L42.44458333333333,14.399516835808754L43.36729166666667,45.63433434069157L44.29,26.83739948272705L45.21270833333333,69.95638831704855L46.135416666666664,54.37112416327L47.058125000000004,23.30319482088089L47.98083333333334,15.132347747683525L48.90354166666667,53.8158764988184L49.82625,40.111832946538925L50.74895833333333,49.70707806944847L51.67166666666667,67.00494050234556L52.594375,36.922890946269035L53.51708333333333,66.98949790745974L54.439791666666665,73.28725448995829L55.362500000000004,64.06079198420048L56.28520833333334,75.68992971628904L57.20791666666667,51.59209667891264L58.130624999999995,77.73774835467339L59.053333333333335,48.40237661451101L59.97604166666667,30.45058424770832L60.89875,64.38600960373878L61.82145833333333,63.25516591966152L62.744166666666665,26.83238822221756L63.666875000000005,51.25296621769667L64.58958333333334,44.254694759845734L65.51229166666667,48.557982847094536L66.435,30.101998329162598L67.35770833333333,69.55321262776852L68.28041666666667,54.765167489647865L69.203125,67.5606629177928L70.12583333333333,49.397171169519424L71.04854166666667,35.85178676247597L71.97125,70.44792703539133L72.89395833333333,71.1914596259594L73.81666666666666,83.3057599067688L74.73937500000001,56.24096392840147L75.66208333333333,34.600237637758255L76.58479166666667,35.96577975153923L77.50750000000001,84.559939943254L78.43020833333333,41.88339266180992L79.35291666666667,57.453682377934456L80.27562499999999,86.32605980336666L81.19833333333334,82.00523889809847L82.12104166666667,88.59453874826431L83.04375,23.37467122077942L83.96645833333334,73.38433447480202L84.88916666666665,79.62067014724016L85.811875,73.91717652976513L86.73458333333333,62.40313953906298L87.65729166666667,81.40592510998249L88.58,80.06154897809029L89.50270833333333,47.441750943660736L90.42541666666666,70.63627789914608L91.34812500000001,66.692442253232L92.27083333333333,84.78556535393L93.19354166666666,78.2869825065136L94.11625000000001,76.65960203111172L95.03895833333333,69.28839388489723L95.96166666666667,93.3876643627882L96.88437499999999,93.15221424400806L97.80708333333334,77.99118626117706L98.72979166666667,70.36912496387959L99.6525,59.62714518606663L100.57520833333334,85.94798657298088L101.49791666666665,67.47897277772427L102.420625,76.19745171815157L103.34333333333333,65.33233340084553L104.26604166666667,84.38001590967178L105.18875,78.11491164565086L106.11145833333335,62.56110633909702L107.03416666666666,88.77176593244076L107.956875,96.42882692813873L108.87958333333333,48.887994132936L109.80229166666666,66.78992445766926L110.72500000000001,65.12196595966816L111.64770833333333,77.14504811167717L112.57041666666667,97.84280683100224L113.49312499999999,96.99348389357328L114.41583333333334,92.15754497051239L115.33854166666667,98.92488303780556L116.26124999999999,89.40694320201874L117.18395833333334,80.88072522729635L118.10666666666667,91.66674475371838L119.029375,74.35423757135868L119.95208333333333,90.53463506698608L120.87479166666667,97.69167776405811L121.7975,63.17067342996597L122.72020833333335,92.63267840445042L123.64291666666666,93.00828556716442L124.565625,97.50573362410069L125.48833333333333,100.63420421630144L126.41104166666666,53.67825146019459L127.33375000000001,91.491166010499L128.25645833333334,100.23689038306475L129.17916666666667,95.19461280852556L130.101875,89.16451688110828L131.02458333333334,64.93008743226528L131.94729166666667,76.90519335865974L132.87,45.41824351251125L133.79270833333334,93.77008947730064L134.71541666666667,103.71472166106105L135.638125,84.20703510940075L136.56083333333333,105.24162306636572L137.48354166666667,104.25639606267214L138.40625,103.99703036248684L139.32895833333333,105.66430640593171L140.25166666666667,97.49762988835573L141.174375,85.4787875264883L142.09708333333333,91.59096921980381L143.0197916666667,88.7087229564786L143.9425,91.99196896702051L144.86520833333333,67.77232933044434L145.78791666666666,101.31870613619685L146.710625,106.31814402714372L147.63333333333333,105.81074400991201L148.55604166666666,98.27072232216597L149.47875000000002,106.8472012616694L150.40145833333332,98.7430600002408L151.32416666666666,104.45382324233651L152.24687500000002,88.97618579864502L153.16958333333335,104.46087527275085L154.09229166666665,97.75208982825279L155.01500000000001,108.35772375762463L155.93770833333335,103.5160416662693L156.86041666666665,82.40945640206337L157.78312499999998,107.76204313337803L158.70583333333335,99.28512673079967L159.62854166666668,107.95554372668266L160.55124999999998,110.56638407707214L161.47395833333334,107.49437918141484L162.39666666666668,110.73394150659442L163.31937499999998,110.50044643878937L164.24208333333334,104.35381892323494L165.16479166666667,111.30968588590622L166.0875,112.07032269984484L167.01020833333334,103.87410612031817L167.93291666666667,86.01098998636007L168.855625,67.22548212110996L169.7783333333333,102.92738340049982L170.70104166666667,110.7589582465589L171.62375,92.31068513542414L172.54645833333333,111.2441570609808L173.46916666666667,106.95647311583161L174.391875,115.31018174439669L175.31458333333333,113.86992898955941L176.2372916666667,112.3232924491167L177.16,112.92243809625506L178.08270833333333,116.36190026253462L179.00541666666666,81.24609227478504L179.928125,114.2694550305605L180.85083333333333,116.46273209899664L181.77354166666666,90.22120709717274L182.69625000000002,113.62352003529668L183.61895833333332,109.48168355226517L184.54166666666666,115.68503721803427L185.46437500000002,103.61454590409994L186.38708333333332,114.05436975136399L187.30979166666665,115.77851041406393L188.23250000000002,114.73985743895173L189.15520833333335,116.31237450242043L190.07791666666665,112.02666868641973L191.00062499999999,118.34566707909107L191.92333333333335,107.97398648411036L192.84604166666665,118.0406989082694L193.76874999999998,115.94365782290697L194.69145833333334,113.4228750988841L195.61416666666668,120.76768181473017L196.53687499999998,119.41528436914086L197.45958333333334,116.93917109817266L198.38229166666667,114.69794417917728L199.305,116.98056674748659L200.22770833333334,121.13904918730259L201.15041666666667,117.57719687372446L202.073125,118.02286937087774L202.9958333333333,121.8889579474926L203.91854166666667,122.52753100544214L204.84125,118.93963332474232L205.76395833333333,120.26055214181542L206.68666666666667,121.86371042579412L207.609375,122.91255406290293L208.53208333333333,115.48611655086279L209.45479166666667,119.62539795041084L210.3775,121.41291457414627L211.30020833333333,121.73015373945236L212.2229166666667,118.99770789965987L213.145625,105.17692175880075L214.06833333333333,118.61237823218107L214.99104166666666,120.27402649819851L215.91375,122.44639474153519L216.83645833333333,112.68778582289815L217.75916666666666,114.30056440830231L218.68187500000002,124.27948746085167L219.60458333333332,124.94114528596401L220.52729166666666,104.0452439635992L221.45000000000002,114.4862447977066L222.37270833333335,63.68002190440893L223.29541666666665,125.01028749346733L224.21812500000001,107.3958980217576L225.14083333333335,122.23713175579906L226.06354166666665,86.08379173278809L226.98624999999998,125.61675551533699L227.90895833333335,125.64154147356749L228.83166666666668,120.52233445644379L229.75437499999998,120.81172486022115L230.67708333333334,124.1374182254076L231.59979166666668,126.09188894927502L232.52249999999998,122.39915042370558L233.44520833333334,127.14777472615242L234.36791666666667,123.19449681043625L235.290625,125.73392340168357L236.21333333333334,126.2668149098754L237.13604166666667,125.63169368728995L238.05875,126.6990855820477L238.9814583333333,127.21080451458693L239.90416666666667,123.3130823560059L240.826875,125.03223813325167L241.74958333333333,125.20668934285641L242.67229166666667,117.26259521394968L243.595,119.88571315258741L244.51770833333333,117.40415672957897L245.4404166666667,114.61060648038983L246.363125,125.27133460342884L247.28583333333333,115.58150853216648L248.20854166666666,118.66439643502235L249.13125,126.21397248655558L250.05395833333333,127.63218228891492L250.97666666666666,109.80103272199631L251.89937500000002,121.07699197903275L252.82208333333332,125.47486431151628L253.74479166666666,117.24429751932621L254.66750000000002,127.84709283336997L255.59020833333332,126.25634401291609L256.5129166666667,117.92358377203345L257.435625,98.90176530182362L258.35833333333335,128.15413803979754L259.2810416666667,98.85879374295473" style="fill: none;" fill="none"></path></g><g><path stroke="rgb(0, 119, 187)" stroke-width="2px" d="M19.376875000000002,-13.031780317425728L20.299583333333334,27.09454308450222L21.222291666666663,38.29670163989067L22.145,28.706362277269363L23.067708333333332,16.442594558000565L23.99041666666667,22.170913696289062L24.913125,17.318615645170212L25.835833333333333,15.843063175678253L26.758541666666666,8.487218499183655L27.681250000000002,16.429578468203545L28.603958333333335,-25.51260155439377L29.526666666666667,-5.353856652975082L30.449375,54.28616351634264L31.372083333333332,65.36462965607643L32.29479166666667,47.85716465860605L33.2175,18.46318754553795L34.140208333333334,28.705531463027L35.062916666666666,58.957258343696594L35.985625,31.469109758734703L36.90833333333333,31.55315387248993L37.831041666666664,64.8939008563757L38.753750000000004,64.3819544389844L39.676458333333336,32.06828507781029L40.59916666666667,21.110135346651077L41.521875,61.270759508013725L42.44458333333333,31.543632477521896L43.36729166666667,47.042590856552124L44.29,51.8009937107563L45.21270833333333,39.7327706515789L46.135416666666664,25.340746968984604L47.058125000000004,10.592079788446426L47.98083333333334,50.41476036608219L48.90354166666667,-6.753607213497162L49.82625,42.73230019211769L50.74895833333333,52.440641552209854L51.67166666666667,55.28712324053049L52.594375,69.41414355486631L53.51708333333333,14.194859594106674L54.439791666666665,48.642172023653984L55.362500000000004,72.2641331255436L56.28520833333334,61.27361460775137L57.20791666666667,56.93290691077709L58.130624999999995,67.05097156763077L59.053333333333335,65.1280849725008L59.97604166666667,63.548087283968925L60.89875,4.208604276180267L61.82145833333333,23.518309772014618L62.744166666666665,25.24433295428753L63.666875000000005,38.930903032422066L64.58958333333334,17.11795422434807L65.51229166666667,36.50401550531387L66.435,65.04361885786057L67.35770833333333,16.66920903325081L68.28041666666667,57.73205130547285L69.203125,82.95782017707825L70.12583333333333,60.35787268728018L71.04854166666667,62.921297281980515L71.97125,75.26953111588955L72.89395833333333,84.34910434484482L73.81666666666666,85.32161857187748L74.73937500000001,64.8532107397914L75.66208333333333,58.752904415130615L76.58479166666667,39.914639845490456L77.50750000000001,70.4160198122263L78.43020833333333,66.44938952475786L79.35291666666667,83.07653430104256L80.27562499999999,56.8429481908679L81.19833333333334,86.43281283974648L82.12104166666667,59.5841406583786L83.04375,62.08454205840826L83.96645833333334,81.58720745891333L84.88916666666665,85.32812661677599L85.811875,83.7867881655693L86.73458333333333,63.60993019491434L87.65729166666667,68.64174346625805L88.58,44.12856924533844L89.50270833333333,48.19069042056799L90.42541666666666,54.49972893297672L91.34812500000001,77.52169708907604L92.27083333333333,65.24652215838432L93.19354166666666,83.32732151448727L94.11625000000001,56.91515649855137L95.03895833333333,67.4381969422102L95.96166666666667,89.4513324201107L96.88437499999999,28.51374524831772L97.80708333333334,84.8733349442482L98.72979166666667,92.29044887423515L99.6525,56.1854048743844L100.57520833333334,93.7164953649044L101.49791666666665,71.81481427699327L102.420625,78.69405511021614L103.34333333333333,74.4330792054534L104.26604166666667,81.09574786573648L105.18875,47.071610011160374L106.11145833333335,86.399962708354L107.03416666666666,64.62697210907936L107.956875,74.38202369213104L108.87958333333333,72.29075874388218L109.80229166666666,82.23838779330254L110.72500000000001,91.42567674815655L111.64770833333333,81.34242716431618L112.57041666666667,67.9754436314106L113.49312499999999,86.76376703381538L114.41583333333334,84.65651880204678L115.33854166666667,56.30857638269663L116.26124999999999,74.82006061077118L117.18395833333334,98.22475060075521L118.10666666666667,90.9389712586999L119.029375,81.3515265583992L119.95208333333333,55.7830995619297L120.87479166666667,96.70016030967236L121.7975,92.21241827309132L122.72020833333335,85.15889766812325L123.64291666666666,81.35589163005352L124.565625,99.86473835259676L125.48833333333333,93.54385084658861L126.41104166666666,74.9705368950963L127.33375000000001,76.73816013336182L128.25645833333334,86.93800724297762L129.17916666666667,96.73765245079994L130.101875,91.19244213402271L131.02458333333334,99.8467241898179L131.94729166666667,80.22907673567533L132.87,100.60028589516878L133.79270833333334,54.05405643582344L134.71541666666667,100.84679045900702L135.638125,98.92223234474659L136.56083333333333,97.28519200533628L137.48354166666667,104.77172178402543L138.40625,97.69171732664108L139.32895833333333,95.1926148980856L140.25166666666667,99.54161095619202L141.174375,61.922249749302864L142.09708333333333,93.34967109560966L143.0197916666667,82.57999750971794L143.9425,90.39904090762138L144.86520833333333,93.2834565192461L145.78791666666666,99.60034820437431L146.710625,92.61002223193645L147.63333333333333,88.81772446632385L148.55604166666666,101.50848784670234L149.47875000000002,56.63802060484886L150.40145833333332,57.66911382973194L151.32416666666666,87.00183487683535L152.24687500000002,100.83812955021858L153.16958333333335,104.94696424528956L154.09229166666665,76.24312672019005L155.01500000000001,78.42944736778736L155.93770833333335,104.4036875590682L156.86041666666665,99.42780259251595L157.78312499999998,89.84126783162355L158.70583333333335,91.54911860078573L159.62854166666668,103.5558679997921L160.55124999999998,105.39644793793559L161.47395833333334,109.03991786018014L162.39666666666668,105.44498793035746L163.31937499999998,87.76435750722885L164.24208333333334,100.4482798576355L165.16479166666667,104.8613013625145L166.0875,102.03470316901803L167.01020833333334,98.81286817789078L167.93291666666667,109.21310636401176L168.855625,94.90821927040815L169.7783333333333,101.0060924962163L170.70104166666667,104.94516085088253L171.62375,99.80856607854366L172.54645833333333,109.84889025986195L173.46916666666667,92.37826462090015L174.391875,102.09240189939737L175.31458333333333,106.40658288449049L176.2372916666667,104.66457312181592L177.16,85.33702160418034L178.08270833333333,99.01721551269293L179.00541666666666,109.19338441640139L179.928125,106.41270189732313L180.85083333333333,103.12597437947989L181.77354166666666,85.18045927584171L182.69625000000002,112.9215611256659L183.61895833333332,97.74253546446562L184.54166666666666,94.06199540197849L185.46437500000002,111.74346323311329L186.38708333333332,90.7458992600441L187.30979166666665,100.87879329174757L188.23250000000002,93.75202256441116L189.15520833333335,116.76775301992893L190.07791666666665,107.94827080518007L191.00062499999999,114.18659120053053L191.92333333333335,118.10588485747576L192.84604166666665,106.94372407346964L193.76874999999998,117.07868195325136L194.69145833333334,112.36110109090805L195.61416666666668,118.34138772636652L196.53687499999998,105.82268201932311L197.45958333333334,106.37163923308253L198.38229166666667,118.91350223869085L199.305,105.76694163680077L200.22770833333334,89.4946798235178L201.15041666666667,111.882512524724L202.073125,65.55883578211069L202.9958333333333,112.78987377136946L203.91854166666667,115.77496956288815L204.84125,110.81829552724957L205.76395833333333,100.02380960807204L206.68666666666667,112.12656750530005L207.609375,94.07837431132793L208.53208333333333,96.27602304518223L209.45479166666667,115.65384212136269L210.3775,113.42090356349945L211.30020833333333,111.77144057303667L212.2229166666667,98.38668684661388L213.145625,118.6793313100934L214.06833333333333,105.8986718505621L214.99104166666666,118.30973765999079L215.91375,117.73111510276794L216.83645833333333,119.53903942555189L217.75916666666666,98.95472641289234L218.68187500000002,109.90096780657768L219.60458333333332,115.42463629692793L220.52729166666666,109.73657208681107L221.45000000000002,105.58808579295874L222.37270833333335,118.22088669240475L223.29541666666665,118.4376171156764L224.21812500000001,91.49661245942116L225.14083333333335,95.11784821003675L226.06354166666665,97.10950116813183L226.98624999999998,119.46226823329926L227.90895833333335,117.02353830635548L228.83166666666668,116.15303290262818L229.75437499999998,123.32078057527542L230.67708333333334,124.11848752945662L231.59979166666668,123.03317378461361L232.52249999999998,106.48651248961687L233.44520833333334,103.18565453588963L234.36791666666667,116.28274212777615L235.290625,103.44859735295177L236.21333333333334,122.47126641869545L237.13604166666667,107.87238977104425L238.05875,103.34931175410748L238.9814583333333,114.76878098398447L239.90416666666667,123.55280193686485L240.826875,81.15595552325249L241.74958333333333,120.74067375808954L242.67229166666667,102.9763223156333L243.595,113.35481426864862L244.51770833333333,107.78398717939854L245.4404166666667,94.24480750411749L246.363125,107.72654890269041L247.28583333333333,102.12175074219704L248.20854166666666,122.0988440439105L249.13125,83.34000132232904L250.05395833333333,121.12140757218003L250.97666666666666,116.89605447649956L251.89937500000002,112.67956010252237L252.82208333333332,125.47411591932178L253.74479166666666,85.82257318496704L254.66750000000002,126.08261152356863L255.59020833333332,110.85603163763881L256.5129166666667,121.40177770704031L257.435625,116.1209740228951L258.35833333333335,122.45038067176938L259.2810416666667,113.51386903971434" style="fill: none;" fill="none"></path></g></g></g></g></g></g><g transform="translate(53, 177)" clip-path="url(#clip_1)"><clipPath id="clip_1"><rect width="276" height="23"></rect></clipPath><g><g><line x1="0" y1="0" x2="0" y2="5" style="visibility: inherit;" fill="rgb(0, 0, 0)" stroke="rgb(204, 204, 204)" stroke-width="1px"></line><line x1="18.454166666666666" y1="0" x2="18.454166666666666" y2="5" style="visibility: inherit;" fill="rgb(0, 0, 0)" stroke="rgb(204, 204, 204)" stroke-width="1px"></line><line x1="36.90833333333333" y1="0" x2="36.90833333333333" y2="5" style="visibility: inherit;" fill="rgb(0, 0, 0)" stroke="rgb(204, 204, 204)" stroke-width="1px"></line><line x1="55.362500000000004" y1="0" x2="55.362500000000004" y2="5" style="visibility: inherit;" fill="rgb(0, 0, 0)" stroke="rgb(204, 204, 204)" stroke-width="1px"></line><line x1="73.81666666666666" y1="0" x2="73.81666666666666" y2="5" style="visibility: inherit;" fill="rgb(0, 0, 0)" stroke="rgb(204, 204, 204)" stroke-width="1px"></line><line x1="92.27083333333333" y1="0" x2="92.27083333333333" y2="5" style="visibility: inherit;" fill="rgb(0, 0, 0)" stroke="rgb(204, 204, 204)" stroke-width="1px"></line><line x1="110.72500000000001" y1="0" x2="110.72500000000001" y2="5" style="visibility: inherit;" fill="rgb(0, 0, 0)" stroke="rgb(204, 204, 204)" stroke-width="1px"></line><line x1="129.17916666666667" y1="0" x2="129.17916666666667" y2="5" style="visibility: inherit;" fill="rgb(0, 0, 0)" stroke="rgb(204, 204, 204)" stroke-width="1px"></line><line x1="147.63333333333333" y1="0" x2="147.63333333333333" y2="5" style="visibility: inherit;" fill="rgb(0, 0, 0)" stroke="rgb(204, 204, 204)" stroke-width="1px"></line><line x1="166.0875" y1="0" x2="166.0875" y2="5" style="visibility: inherit;" fill="rgb(0, 0, 0)" stroke="rgb(204, 204, 204)" stroke-width="1px"></line><line x1="184.54166666666666" y1="0" x2="184.54166666666666" y2="5" style="visibility: inherit;" fill="rgb(0, 0, 0)" stroke="rgb(204, 204, 204)" stroke-width="1px"></line><line x1="202.9958333333333" y1="0" x2="202.9958333333333" y2="5" style="visibility: inherit;" fill="rgb(0, 0, 0)" stroke="rgb(204, 204, 204)" stroke-width="1px"></line><line x1="221.45000000000002" y1="0" x2="221.45000000000002" y2="5" style="visibility: inherit;" fill="rgb(0, 0, 0)" stroke="rgb(204, 204, 204)" stroke-width="1px"></line><line x1="239.90416666666667" y1="0" x2="239.90416666666667" y2="5" style="visibility: inherit;" fill="rgb(0, 0, 0)" stroke="rgb(204, 204, 204)" stroke-width="1px"></line><line x1="258.35833333333335" y1="0" x2="258.35833333333335" y2="5" style="visibility: inherit;" fill="rgb(0, 0, 0)" stroke="rgb(204, 204, 204)" stroke-width="1px"></line><line x1="276.8125" y1="0" x2="276.8125" y2="5" style="visibility: inherit;" fill="rgb(0, 0, 0)" stroke="rgb(204, 204, 204)" stroke-width="1px"></line></g><g transform="translate(0, 8)"><text x="0" y="0" dx="0em" dy="0.95em" style="text-anchor: middle; visibility: hidden; font-family: &quot;Helvetica Neue&quot;, sans-serif; font-size: 12px; font-weight: 200;" fill="rgb(50, 49, 63)" stroke="none" stroke-width="1px">-2k</text><text x="18.454166666666666" y="0" dx="0em" dy="0.95em" style="text-anchor: middle; visibility: inherit; font-family: &quot;Helvetica Neue&quot;, sans-serif; font-size: 12px; font-weight: 200;" fill="rgb(50, 49, 63)" stroke="none" stroke-width="1px">0</text><text x="36.90833333333333" y="0" dx="0em" dy="0.95em" style="text-anchor: middle; visibility: hidden; font-family: &quot;Helvetica Neue&quot;, sans-serif; font-size: 12px; font-weight: 200;" fill="rgb(50, 49, 63)" stroke="none" stroke-width="1px">2k</text><text x="55.362500000000004" y="0" dx="0em" dy="0.95em" style="text-anchor: middle; visibility: inherit; font-family: &quot;Helvetica Neue&quot;, sans-serif; font-size: 12px; font-weight: 200;" fill="rgb(50, 49, 63)" stroke="none" stroke-width="1px">4k</text><text x="73.81666666666666" y="0" dx="0em" dy="0.95em" style="text-anchor: middle; visibility: hidden; font-family: &quot;Helvetica Neue&quot;, sans-serif; font-size: 12px; font-weight: 200;" fill="rgb(50, 49, 63)" stroke="none" stroke-width="1px">6k</text><text x="92.27083333333333" y="0" dx="0em" dy="0.95em" style="text-anchor: middle; visibility: inherit; font-family: &quot;Helvetica Neue&quot;, sans-serif; font-size: 12px; font-weight: 200;" fill="rgb(50, 49, 63)" stroke="none" stroke-width="1px">8k</text><text x="110.72500000000001" y="0" dx="0em" dy="0.95em" style="text-anchor: middle; visibility: hidden; font-family: &quot;Helvetica Neue&quot;, sans-serif; font-size: 12px; font-weight: 200;" fill="rgb(50, 49, 63)" stroke="none" stroke-width="1px">10k</text><text x="129.17916666666667" y="0" dx="0em" dy="0.95em" style="text-anchor: middle; visibility: inherit; font-family: &quot;Helvetica Neue&quot;, sans-serif; font-size: 12px; font-weight: 200;" fill="rgb(50, 49, 63)" stroke="none" stroke-width="1px">12k</text><text x="147.63333333333333" y="0" dx="0em" dy="0.95em" style="text-anchor: middle; visibility: hidden; font-family: &quot;Helvetica Neue&quot;, sans-serif; font-size: 12px; font-weight: 200;" fill="rgb(50, 49, 63)" stroke="none" stroke-width="1px">14k</text><text x="166.0875" y="0" dx="0em" dy="0.95em" style="text-anchor: middle; visibility: inherit; font-family: &quot;Helvetica Neue&quot;, sans-serif; font-size: 12px; font-weight: 200;" fill="rgb(50, 49, 63)" stroke="none" stroke-width="1px">16k</text><text x="184.54166666666666" y="0" dx="0em" dy="0.95em" style="text-anchor: middle; visibility: hidden; font-family: &quot;Helvetica Neue&quot;, sans-serif; font-size: 12px; font-weight: 200;" fill="rgb(50, 49, 63)" stroke="none" stroke-width="1px">18k</text><text x="202.9958333333333" y="0" dx="0em" dy="0.95em" style="text-anchor: middle; visibility: inherit; font-family: &quot;Helvetica Neue&quot;, sans-serif; font-size: 12px; font-weight: 200;" fill="rgb(50, 49, 63)" stroke="none" stroke-width="1px">20k</text><text x="221.45000000000002" y="0" dx="0em" dy="0.95em" style="text-anchor: middle; visibility: hidden; font-family: &quot;Helvetica Neue&quot;, sans-serif; font-size: 12px; font-weight: 200;" fill="rgb(50, 49, 63)" stroke="none" stroke-width="1px">22k</text><text x="239.90416666666667" y="0" dx="0em" dy="0.95em" style="text-anchor: middle; visibility: inherit; font-family: &quot;Helvetica Neue&quot;, sans-serif; font-size: 12px; font-weight: 200;" fill="rgb(50, 49, 63)" stroke="none" stroke-width="1px">24k</text><text x="258.35833333333335" y="0" dx="0em" dy="0.95em" style="text-anchor: middle; visibility: hidden; font-family: &quot;Helvetica Neue&quot;, sans-serif; font-size: 12px; font-weight: 200;" fill="rgb(50, 49, 63)" stroke="none" stroke-width="1px">26k</text><text x="276.8125" y="0" dx="0em" dy="0.95em" style="text-anchor: middle; visibility: hidden; font-family: &quot;Helvetica Neue&quot;, sans-serif; font-size: 12px; font-weight: 200;" fill="rgb(50, 49, 63)" stroke="none" stroke-width="1px">28k</text></g><line x1="0" y1="0" x2="276.8125" y2="0" fill="rgb(0, 0, 0)" stroke="rgb(204, 204, 204)" stroke-width="1px"></line></g></g></g></g></svg>